<svg width="12" height="12" viewBox="0 0 12 12" fill="none" xmlns="http://www.w3.org/2000/svg">
<path d="M5.99988 0C2.68627 0 0 2.68627 0 5.99988C0 8.81358 1.93724 11.1747 4.55055 11.8231V7.83344H3.31337V5.99988H4.55055V5.20982C4.55055 3.1677 5.47477 2.22116 7.47969 2.22116C7.85984 2.22116 8.51575 2.29579 8.78407 2.37019V4.03216C8.64247 4.01728 8.39647 4.00984 8.09096 4.00984C7.10722 4.00984 6.72706 4.38255 6.72706 5.35141V5.99988H8.68687L8.35015 7.83344H6.72706V11.9558C9.69797 11.597 12 9.0675 12 5.99988C11.9998 2.68627 9.31349 0 5.99988 0Z" fill="black"/>
</svg>
