<svg width="218" height="34" viewBox="0 0 218 34" fill="none" xmlns="http://www.w3.org/2000/svg">
<path d="M5.77548 15.9691C4.69748 15.9691 3.73148 15.7941 2.87748 15.4441C2.02348 15.0941 1.33748 14.5761 0.819484 13.8901C0.315484 13.2041 0.0494844 12.3781 0.0214844 11.4121H3.84348C3.89948 11.9581 4.08848 12.3781 4.41048 12.6721C4.73248 12.9521 5.15248 13.0921 5.67048 13.0921C6.20248 13.0921 6.62248 12.9731 6.93048 12.7351C7.23848 12.4831 7.39248 12.1401 7.39248 11.7061C7.39248 11.3421 7.26649 11.0411 7.01449 10.8031C6.77648 10.5651 6.47548 10.3691 6.11149 10.2151C5.76149 10.0611 5.25748 9.88612 4.59948 9.69012C3.64748 9.39612 2.87048 9.10212 2.26848 8.80812C1.66648 8.51412 1.14848 8.08012 0.714484 7.50612C0.280484 6.93212 0.0634844 6.18312 0.0634844 5.25912C0.0634844 3.88712 0.560484 2.81612 1.55448 2.04612C2.54848 1.26212 3.84348 0.870117 5.43948 0.870117C7.06348 0.870117 8.37249 1.26212 9.36649 2.04612C10.3605 2.81612 10.8925 3.89412 10.9625 5.28012H7.07749C7.04949 4.80412 6.87448 4.43312 6.55248 4.16712C6.23048 3.88712 5.81748 3.74712 5.31348 3.74712C4.87948 3.74712 4.52948 3.86612 4.26348 4.10412C3.99748 4.32812 3.86448 4.65712 3.86448 5.09112C3.86448 5.56712 4.08848 5.93812 4.53648 6.20412C4.98448 6.47012 5.68448 6.75712 6.63648 7.06512C7.58848 7.38712 8.35848 7.69512 8.94648 7.98912C9.54848 8.28312 10.0665 8.71012 10.5005 9.27012C10.9345 9.83012 11.1515 10.5511 11.1515 11.4331C11.1515 12.2731 10.9345 13.0361 10.5005 13.7221C10.0805 14.4081 9.46448 14.9541 8.65248 15.3601C7.84048 15.7661 6.88148 15.9691 5.77548 15.9691Z" fill="black"/>
<path d="M30.0564 1.08012V15.8221H26.4654V6.98112L23.1684 15.8221H20.2704L16.9524 6.96012V15.8221H13.3614V1.08012H17.6034L21.7404 11.2861L25.8354 1.08012H30.0564Z" fill="black"/>
<path d="M41.8158 13.2181H36.3138L35.4318 15.8221H31.6728L37.0068 1.08012H41.1647L46.4988 15.8221H42.6978L41.8158 13.2181ZM40.8918 10.4461L39.0648 5.04912L37.2588 10.4461H40.8918Z" fill="black"/>
<path d="M56.1633 13.0501H60.8673V15.8221H52.5723V1.08012H56.1633V13.0501Z" fill="black"/>
<path d="M71.7572 13.2181H66.2552L65.3732 15.8221H61.6142L66.9482 1.08012H71.1062L76.4402 15.8221H72.6392L71.7572 13.2181ZM70.8332 10.4461L69.0062 5.04912L67.2002 10.4461H70.8332Z" fill="black"/>
<path d="M86.9886 8.26212C87.8426 8.44412 88.5286 8.87112 89.0466 9.54312C89.5646 10.2011 89.8236 10.9571 89.8236 11.8111C89.8236 13.0431 89.3896 14.0231 88.5216 14.7511C87.6676 15.4651 86.4706 15.8221 84.9305 15.8221H78.0636V1.08012H84.6996C86.1976 1.08012 87.3666 1.42312 88.2066 2.10912C89.0606 2.79512 89.4876 3.72612 89.4876 4.90212C89.4876 5.77012 89.2566 6.49112 88.7946 7.06512C88.3465 7.63912 87.7446 8.03812 86.9886 8.26212ZM81.6546 7.04412H84.0066C84.5946 7.04412 85.0426 6.91812 85.3506 6.66612C85.6726 6.40012 85.8336 6.01512 85.8336 5.51112C85.8336 5.00712 85.6726 4.62212 85.3506 4.35612C85.0426 4.09012 84.5946 3.95712 84.0066 3.95712H81.6546V7.04412ZM84.3006 12.9241C84.9026 12.9241 85.3646 12.7911 85.6866 12.5251C86.0226 12.2451 86.1906 11.8461 86.1906 11.3281C86.1906 10.8101 86.0156 10.4041 85.6656 10.1101C85.3296 9.81612 84.8606 9.66912 84.2586 9.66912H81.6546V12.9241H84.3006Z" fill="black"/>
<path d="M98.8783 15.9691C97.4923 15.9691 96.2183 15.6471 95.0563 15.0031C93.9083 14.3591 92.9913 13.4631 92.3053 12.3151C91.6333 11.1531 91.2973 9.85112 91.2973 8.40912C91.2973 6.96712 91.6333 5.67212 92.3053 4.52412C92.9913 3.37612 93.9083 2.48012 95.0563 1.83612C96.2183 1.19212 97.4923 0.870117 98.8783 0.870117C100.264 0.870117 101.531 1.19212 102.679 1.83612C103.841 2.48012 104.751 3.37612 105.409 4.52412C106.081 5.67212 106.417 6.96712 106.417 8.40912C106.417 9.85112 106.081 11.1531 105.409 12.3151C104.737 13.4631 103.827 14.3591 102.679 15.0031C101.531 15.6471 100.264 15.9691 98.8783 15.9691ZM98.8783 12.6931C100.054 12.6931 100.992 12.3011 101.692 11.5171C102.406 10.7331 102.763 9.69712 102.763 8.40912C102.763 7.10712 102.406 6.07112 101.692 5.30112C100.992 4.51712 100.054 4.12512 98.8783 4.12512C97.6883 4.12512 96.7363 4.51012 96.0223 5.28012C95.3223 6.05012 94.9723 7.09312 94.9723 8.40912C94.9723 9.71112 95.3223 10.7541 96.0223 11.5381C96.7363 12.3081 97.6883 12.6931 98.8783 12.6931Z" fill="black"/>
<path d="M115.933 15.8221L112.867 10.2571H112.006V15.8221H108.415V1.08012H114.442C115.604 1.08012 116.591 1.28312 117.403 1.68912C118.229 2.09512 118.845 2.65512 119.251 3.36912C119.657 4.06912 119.86 4.85312 119.86 5.72112C119.86 6.70112 119.58 7.57612 119.02 8.34612C118.474 9.11612 117.662 9.66212 116.584 9.98412L119.986 15.8221H115.933ZM112.006 7.71612H114.232C114.89 7.71612 115.38 7.55512 115.702 7.23312C116.038 6.91112 116.206 6.45612 116.206 5.86812C116.206 5.30812 116.038 4.86712 115.702 4.54512C115.38 4.22312 114.89 4.06212 114.232 4.06212H112.006V7.71612Z" fill="black"/>
<path d="M131.291 13.2181H125.789L124.907 15.8221H121.148L126.482 1.08012H130.64L135.974 15.8221H132.173L131.291 13.2181ZM130.367 10.4461L128.54 5.04912L126.734 10.4461H130.367Z" fill="black"/>
<path d="M148.203 1.08012V3.95712H144.297V15.8221H140.706V3.95712H136.8V1.08012H148.203Z" fill="black"/>
<path d="M156.977 15.9691C155.591 15.9691 154.317 15.6471 153.155 15.0031C152.007 14.3591 151.09 13.4631 150.404 12.3151C149.732 11.1531 149.396 9.85112 149.396 8.40912C149.396 6.96712 149.732 5.67212 150.404 4.52412C151.09 3.37612 152.007 2.48012 153.155 1.83612C154.317 1.19212 155.591 0.870117 156.977 0.870117C158.363 0.870117 159.63 1.19212 160.778 1.83612C161.94 2.48012 162.85 3.37612 163.508 4.52412C164.18 5.67212 164.516 6.96712 164.516 8.40912C164.516 9.85112 164.18 11.1531 163.508 12.3151C162.836 13.4631 161.926 14.3591 160.778 15.0031C159.63 15.6471 158.363 15.9691 156.977 15.9691ZM156.977 12.6931C158.153 12.6931 159.091 12.3011 159.791 11.5171C160.505 10.7331 160.862 9.69712 160.862 8.40912C160.862 7.10712 160.505 6.07112 159.791 5.30112C159.091 4.51712 158.153 4.12512 156.977 4.12512C155.787 4.12512 154.835 4.51012 154.121 5.28012C153.421 6.05012 153.071 7.09312 153.071 8.40912C153.071 9.71112 153.421 10.7541 154.121 11.5381C154.835 12.3081 155.787 12.6931 156.977 12.6931Z" fill="black"/>
<path d="M174.032 15.8221L170.966 10.2571H170.105V15.8221H166.514V1.08012H172.541C173.703 1.08012 174.69 1.28312 175.502 1.68912C176.328 2.09512 176.944 2.65512 177.35 3.36912C177.756 4.06912 177.959 4.85312 177.959 5.72112C177.959 6.70112 177.679 7.57612 177.119 8.34612C176.573 9.11612 175.761 9.66212 174.683 9.98412L178.085 15.8221H174.032ZM170.105 7.71612H172.331C172.989 7.71612 173.479 7.55512 173.801 7.23312C174.137 6.91112 174.305 6.45612 174.305 5.86812C174.305 5.30812 174.137 4.86712 173.801 4.54512C173.479 4.22312 172.989 4.06212 172.331 4.06212H170.105V7.71612Z" fill="black"/>
<path d="M183.804 1.08012V15.8221H180.213V1.08012H183.804Z" fill="black"/>
<path d="M189.934 1.08012V9.90012C189.934 10.7821 190.151 11.4611 190.585 11.9371C191.019 12.4131 191.656 12.6511 192.496 12.6511C193.336 12.6511 193.98 12.4131 194.428 11.9371C194.876 11.4611 195.1 10.7821 195.1 9.90012V1.08012H198.691V9.87912C198.691 11.1951 198.411 12.3081 197.851 13.2181C197.291 14.1281 196.535 14.8141 195.583 15.2761C194.645 15.7381 193.595 15.9691 192.433 15.9691C191.271 15.9691 190.228 15.7451 189.304 15.2971C188.394 14.8351 187.673 14.1491 187.141 13.2391C186.609 12.3151 186.343 11.1951 186.343 9.87912V1.08012H189.934Z" fill="black"/>
<path d="M217.908 1.08012V15.8221H214.317V6.98112L211.02 15.8221H208.122L204.804 6.96012V15.8221H201.213V1.08012H205.455L209.592 11.2861L213.687 1.08012H217.908Z" fill="black"/>
<path d="M1.31823 23.097V29.3813C1.31823 30.2648 1.53198 30.9203 1.95948 31.3478C2.39648 31.7753 2.99973 31.989 3.76923 31.989C4.52923 31.989 5.12298 31.7753 5.55048 31.3478C5.98748 30.9203 6.20598 30.2648 6.20598 29.3813V23.097H7.50273V29.367C7.50273 30.1935 7.33648 30.8918 7.00398 31.4618C6.67148 32.0223 6.22023 32.4403 5.65023 32.7158C5.08973 32.9913 4.45798 33.129 3.75498 33.129C3.05198 33.129 2.41548 32.9913 1.84548 32.7158C1.28498 32.4403 0.838484 32.0223 0.505984 31.4618C0.182984 30.8918 0.0214844 30.1935 0.0214844 29.367V23.097H1.31823Z" fill="black"/>
<path d="M17.475 33.0293H16.1782L10.9627 25.1205V33.0293H9.66595V23.0828H10.9627L16.1782 30.9773V23.0828H17.475V33.0293Z" fill="black"/>
<path d="M20.9822 23.097V33.0293H19.6855V23.097H20.9822Z" fill="black"/>
<path d="M31.4003 23.097L27.6526 33.0293H26.1563L22.4086 23.097H23.7908L26.9116 31.6613L30.0323 23.097H31.4003Z" fill="black"/>
<path d="M34.119 24.1515V27.4718H37.7385V28.5405H34.119V31.9605H38.166V33.0293H32.8222V23.0828H38.166V24.1515H34.119Z" fill="black"/>
<path d="M45.3579 33.0293L42.9924 28.968H41.4249V33.0293H40.1281V23.097H43.3344C44.0849 23.097 44.7166 23.2252 45.2296 23.4818C45.7521 23.7383 46.1416 24.085 46.3981 24.522C46.6546 24.959 46.7829 25.4578 46.7829 26.0183C46.7829 26.7023 46.5834 27.3055 46.1844 27.828C45.7949 28.3505 45.2059 28.6973 44.4174 28.8683L46.9111 33.0293H45.3579ZM41.4249 27.9278H43.3344C44.0374 27.9278 44.5646 27.7568 44.9161 27.4148C45.2676 27.0633 45.4434 26.5978 45.4434 26.0183C45.4434 25.4293 45.2676 24.9733 44.9161 24.6503C44.5741 24.3273 44.0469 24.1657 43.3344 24.1657H41.4249V27.9278Z" fill="black"/>
<path d="M51.947 33.129C51.2915 33.129 50.7025 33.015 50.18 32.787C49.667 32.5495 49.2633 32.2265 48.9688 31.818C48.6743 31.4 48.5223 30.9203 48.5128 30.3788H49.895C49.9425 30.8443 50.1325 31.2385 50.465 31.5615C50.807 31.875 51.301 32.0318 51.947 32.0318C52.5645 32.0318 53.049 31.8798 53.4005 31.5758C53.7615 31.2623 53.942 30.8633 53.942 30.3788C53.942 29.9988 53.8375 29.69 53.6285 29.4525C53.4195 29.215 53.1583 29.0345 52.8448 28.911C52.5313 28.7875 52.1085 28.6545 51.5765 28.512C50.921 28.341 50.3938 28.17 49.9948 27.999C49.6053 27.828 49.268 27.562 48.983 27.201C48.7075 26.8305 48.5698 26.3365 48.5698 25.719C48.5698 25.1775 48.7075 24.6977 48.983 24.2798C49.2585 23.8617 49.6433 23.5387 50.1373 23.3107C50.6408 23.0827 51.2155 22.9688 51.8615 22.9688C52.7925 22.9688 53.5525 23.2015 54.1415 23.667C54.74 24.1325 55.0773 24.75 55.1533 25.5195H53.7283C53.6808 25.1395 53.4813 24.807 53.1298 24.522C52.7783 24.2275 52.3128 24.0803 51.7333 24.0803C51.1918 24.0803 50.75 24.2227 50.408 24.5077C50.066 24.7832 49.895 25.1728 49.895 25.6762C49.895 26.0373 49.9948 26.3318 50.1943 26.5598C50.4033 26.7878 50.655 26.9635 50.9495 27.087C51.2535 27.201 51.6763 27.334 52.2178 27.486C52.8733 27.6665 53.4005 27.847 53.7995 28.0275C54.1985 28.1985 54.5405 28.4693 54.8255 28.8398C55.1105 29.2008 55.253 29.6948 55.253 30.3218C55.253 30.8063 55.1248 31.2623 54.8683 31.6898C54.6118 32.1173 54.2318 32.464 53.7283 32.73C53.2248 32.996 52.631 33.129 51.947 33.129Z" fill="black"/>
<path d="M58.4581 23.097V33.0293H57.1613V23.097H58.4581Z" fill="black"/>
<path d="M66.7814 23.097V24.1515H64.0739V33.0293H62.7771V24.1515H60.0554V23.097H66.7814Z" fill="black"/>
<path d="M74.2486 30.8205H69.9166L69.1186 33.0293H67.7506L71.3416 23.154H72.8379L76.4146 33.0293H75.0466L74.2486 30.8205ZM73.8781 29.766L72.0826 24.75L70.2871 29.766H73.8781Z" fill="black"/>
<path d="M81.1289 33.129C80.4734 33.129 79.8844 33.015 79.3619 32.787C78.8489 32.5495 78.4452 32.2265 78.1507 31.818C77.8562 31.4 77.7042 30.9203 77.6947 30.3788H79.0769C79.1244 30.8443 79.3144 31.2385 79.6469 31.5615C79.9889 31.875 80.4829 32.0318 81.1289 32.0318C81.7464 32.0318 82.2309 31.8798 82.5824 31.5758C82.9434 31.2623 83.1239 30.8633 83.1239 30.3788C83.1239 29.9988 83.0194 29.69 82.8104 29.4525C82.6014 29.215 82.3402 29.0345 82.0267 28.911C81.7132 28.7875 81.2904 28.6545 80.7584 28.512C80.1029 28.341 79.5757 28.17 79.1767 27.999C78.7872 27.828 78.4499 27.562 78.1649 27.201C77.8894 26.8305 77.7517 26.3365 77.7517 25.719C77.7517 25.1775 77.8894 24.6977 78.1649 24.2798C78.4404 23.8617 78.8252 23.5387 79.3192 23.3107C79.8227 23.0827 80.3974 22.9688 81.0434 22.9688C81.9744 22.9688 82.7344 23.2015 83.3234 23.667C83.9219 24.1325 84.2592 24.75 84.3352 25.5195H82.9102C82.8627 25.1395 82.6632 24.807 82.3117 24.522C81.9602 24.2275 81.4947 24.0803 80.9152 24.0803C80.3737 24.0803 79.9319 24.2227 79.5899 24.5077C79.2479 24.7832 79.0769 25.1728 79.0769 25.6762C79.0769 26.0373 79.1767 26.3318 79.3762 26.5598C79.5852 26.7878 79.8369 26.9635 80.1314 27.087C80.4354 27.201 80.8582 27.334 81.3997 27.486C82.0552 27.6665 82.5824 27.847 82.9814 28.0275C83.3804 28.1985 83.7224 28.4693 84.0074 28.8398C84.2924 29.2008 84.4349 29.6948 84.4349 30.3218C84.4349 30.8063 84.3067 31.2623 84.0502 31.6898C83.7937 32.1173 83.4137 32.464 82.9102 32.73C82.4067 32.996 81.8129 33.129 81.1289 33.129Z" fill="black"/>
<path d="M97.9513 33.0293H96.6545L91.439 25.1205V33.0293H90.1423V23.0828H91.439L96.6545 30.9773V23.0828H97.9513V33.0293Z" fill="black"/>
<path d="M101.459 24.1515V27.4718H105.078V28.5405H101.459V31.9605H105.506V33.0293H100.162V23.0828H105.506V24.1515H101.459Z" fill="black"/>
<path d="M114.992 25.9755C114.716 25.396 114.317 24.9495 113.795 24.636C113.272 24.313 112.664 24.1515 111.971 24.1515C111.277 24.1515 110.65 24.313 110.09 24.636C109.539 24.9495 109.102 25.4055 108.779 26.004C108.465 26.593 108.308 27.277 108.308 28.056C108.308 28.835 108.465 29.519 108.779 30.108C109.102 30.697 109.539 31.153 110.09 31.476C110.65 31.7895 111.277 31.9463 111.971 31.9463C112.94 31.9463 113.738 31.6565 114.365 31.077C114.992 30.4975 115.357 29.7138 115.462 28.7258H111.5V27.6713H116.844V28.6688C116.768 29.4858 116.512 30.2363 116.075 30.9203C115.638 31.5948 115.063 32.1315 114.35 32.5305C113.638 32.92 112.845 33.1148 111.971 33.1148C111.049 33.1148 110.208 32.901 109.448 32.4735C108.688 32.0365 108.085 31.4333 107.639 30.6638C107.202 29.8943 106.983 29.025 106.983 28.056C106.983 27.087 107.202 26.2178 107.639 25.4483C108.085 24.6693 108.688 24.066 109.448 23.6385C110.208 23.2015 111.049 22.983 111.971 22.983C113.025 22.983 113.956 23.2443 114.764 23.7668C115.581 24.2893 116.174 25.0255 116.545 25.9755H114.992Z" fill="black"/>
<path d="M119.856 24.1515V27.4718H123.475V28.5405H119.856V31.9605H123.903V33.0293H118.559V23.0828H123.903V24.1515H119.856Z" fill="black"/>
<path d="M131.094 33.0293L128.729 28.968H127.161V33.0293H125.865V23.097H129.071C129.821 23.097 130.453 23.2252 130.966 23.4818C131.489 23.7383 131.878 24.085 132.135 24.522C132.391 24.959 132.519 25.4578 132.519 26.0183C132.519 26.7023 132.32 27.3055 131.921 27.828C131.531 28.3505 130.942 28.6973 130.154 28.8683L132.648 33.0293H131.094ZM127.161 27.9278H129.071C129.774 27.9278 130.301 27.7568 130.653 27.4148C131.004 27.0633 131.18 26.5978 131.18 26.0183C131.18 25.4293 131.004 24.9733 130.653 24.6503C130.311 24.3273 129.783 24.1657 129.071 24.1657H127.161V27.9278Z" fill="black"/>
<path d="M135.831 23.097V33.0293H134.534V23.097H135.831Z" fill="black"/>
<path d="M151.915 23.1682V33.0293H150.618V25.6762L147.341 33.0293H146.429L143.137 25.662V33.0293H141.84V23.1682H143.237L146.885 31.3193L150.533 23.1682H151.915Z" fill="black"/>
<path d="M159.985 30.8205H155.653L154.855 33.0293H153.487L157.078 23.154H158.574L162.151 33.0293H160.783L159.985 30.8205ZM159.615 29.766L157.819 24.75L156.024 29.766H159.615Z" fill="black"/>
<path d="M165.013 31.9748H168.49V33.0293H163.716V23.097H165.013V31.9748Z" fill="black"/>
<path d="M175.738 30.8205H171.406L170.608 33.0293H169.24L172.831 23.154H174.327L177.904 33.0293H176.536L175.738 30.8205ZM175.368 29.766L173.572 24.75L171.777 29.766H175.368Z" fill="black"/>
<path d="M187.278 33.0293H185.981L180.766 25.1205V33.0293H179.469V23.0828H180.766L185.981 30.9773V23.0828H187.278V33.0293Z" fill="black"/>
<path d="M197.013 25.9755C196.737 25.396 196.338 24.9495 195.816 24.636C195.293 24.313 194.685 24.1515 193.992 24.1515C193.298 24.1515 192.671 24.313 192.111 24.636C191.56 24.9495 191.123 25.4055 190.8 26.004C190.486 26.593 190.329 27.277 190.329 28.056C190.329 28.835 190.486 29.519 190.8 30.108C191.123 30.697 191.56 31.153 192.111 31.476C192.671 31.7895 193.298 31.9463 193.992 31.9463C194.961 31.9463 195.759 31.6565 196.386 31.077C197.013 30.4975 197.378 29.7138 197.483 28.7258H193.521V27.6713H198.865V28.6688C198.789 29.4858 198.533 30.2363 198.096 30.9203C197.659 31.5948 197.084 32.1315 196.371 32.5305C195.659 32.92 194.866 33.1148 193.992 33.1148C193.07 33.1148 192.229 32.901 191.469 32.4735C190.709 32.0365 190.106 31.4333 189.66 30.6638C189.223 29.8943 189.004 29.025 189.004 28.056C189.004 27.087 189.223 26.2178 189.66 25.4483C190.106 24.6693 190.709 24.066 191.469 23.6385C192.229 23.2015 193.07 22.983 193.992 22.983C195.046 22.983 195.977 23.2443 196.785 23.7668C197.602 24.2893 198.195 25.0255 198.566 25.9755H197.013Z" fill="black"/>
</svg>
