<svg width="61" height="60" viewBox="0 0 61 60" fill="none" xmlns="http://www.w3.org/2000/svg">
<g clip-path="url(#clip0_1183_4843)">
<path d="M12.4191 20.7682C12.5417 21.4416 12.6388 22.104 12.785 22.755C13.1222 24.2547 13.6061 25.6991 14.5917 26.9159C15.5391 28.0857 16.7429 28.7549 18.2802 28.8003C19.5774 28.8384 20.778 28.5064 21.9405 27.9761C22.712 27.6237 23.4475 27.2077 24.1402 26.7196C24.3323 26.5844 24.5244 26.5395 24.7421 26.5734C25.2902 26.6585 25.8399 26.6857 26.3927 26.6262C27.3031 26.5285 28.0981 26.1845 28.7428 25.5216C28.7814 25.4814 28.8346 25.4459 28.8148 25.3556C28.5178 25.4668 28.2286 25.5957 27.9274 25.6845C26.8818 25.994 25.8524 25.8734 24.8408 25.5237C24.5108 25.4094 24.1856 25.2757 23.8703 25.1259C23.6694 25.0304 23.518 25.0471 23.3327 25.1692C22.238 25.8886 21.0828 26.4805 19.7929 26.7713C18.8633 26.9806 17.9424 26.9963 17.0524 26.6021C15.7918 26.0436 15.169 24.9886 14.8892 23.7061C14.5055 21.9448 14.8203 20.2566 15.4979 18.6154C16.0016 17.3945 16.7345 16.3212 17.6491 15.3811C18.537 14.4686 19.568 13.743 20.7895 13.2001C20.6162 13.5796 20.4554 13.9137 20.3087 14.2541C19.1122 17.0306 19.641 20.1413 21.7745 22.2872C22.843 23.3621 24.1073 24.0422 25.5951 24.3267C26.7168 24.5413 28.4677 24.2829 29.3008 23.7348C28.748 23.6236 28.2218 23.5354 27.704 23.4106C25.7929 22.9507 24.0384 22.1907 22.6431 20.7447C20.6548 18.6843 20.5238 15.4411 22.3367 13.2341C23.4804 11.8414 24.9598 11.0855 26.7299 10.8448C27.3589 10.7592 27.9843 10.8078 28.6655 10.7979C28.2782 11.2369 27.9164 11.6242 27.5802 12.0324C26.5869 13.2388 25.7694 14.5401 25.511 16.1182C25.2818 17.5161 25.5674 18.806 26.3901 19.9643C27.1345 21.0125 28.0934 21.7919 29.3008 22.2564C29.6537 22.3922 30.0071 22.4031 30.3578 22.2925C32.2799 21.6859 33.7603 20.5479 34.5454 18.6515C35.0851 17.3475 34.9578 16.0232 34.4566 14.7291C33.9503 13.423 33.1516 12.3033 32.2167 11.2734C32.1201 11.1669 31.9406 11.0474 31.986 10.9299C32.0408 10.7874 32.2491 10.86 32.3879 10.8636C33.954 10.9059 35.4652 11.1758 36.7968 12.0611C38.5706 13.2403 39.4684 14.8972 39.2816 17.0364C39.1364 18.6937 38.2924 20.0186 37.0495 21.0981C35.3488 22.5754 33.3134 23.2791 31.1356 23.6518C31.0119 23.6732 30.8887 23.6998 30.764 23.7243C30.7478 23.8256 30.8386 23.8277 30.8913 23.8465C32.8958 24.5762 34.8774 24.6096 36.7702 23.528C38.6071 22.4788 39.7253 20.8611 40.228 18.8227C40.7092 16.8719 40.4441 15.0272 39.3515 13.3207C39.3379 13.2993 39.3327 13.2722 39.3077 13.2048C39.9831 13.5629 40.6022 13.9356 41.1848 14.3684C42.6182 15.4338 43.7985 16.7185 44.5878 18.3362C45.1818 19.554 45.4966 20.8413 45.4214 22.1964C45.3452 23.5729 44.9229 24.8367 43.9112 25.8228C43.0056 26.7055 41.9025 27.0641 40.6335 26.9347C39.1004 26.7786 37.8372 26.0457 36.6632 25.1186C36.5013 24.9907 36.3719 24.9672 36.1892 25.0507C35.5346 25.3493 34.868 25.6129 34.157 25.7544C33.0196 25.9815 31.9364 25.8562 30.9112 25.2971C30.8647 25.2716 30.8193 25.2188 30.7316 25.258C31.156 25.7857 31.7166 26.101 32.3248 26.3317C33.3672 26.7274 34.4446 26.7848 35.5351 26.5823C35.7157 26.5489 35.8332 26.6314 35.9616 26.7154C37.0902 27.4515 38.2709 28.0836 39.565 28.4767C40.7421 28.8342 41.9292 28.9987 43.1439 28.6296C44.1816 28.3143 44.9902 27.6958 45.6218 26.8308C46.5656 25.5383 47.0407 24.0542 47.358 22.5101C47.476 21.9365 47.5658 21.3565 47.6765 20.7337C48.1176 21.4839 48.4762 22.2256 48.803 22.9826C49.3746 24.3064 49.8271 25.6698 50.0725 27.0934C50.4342 29.1913 50.4389 31.2725 49.6408 33.2885C49.0692 34.7324 48.1802 35.9273 46.764 36.6456C45.0993 37.4902 43.4524 37.332 41.8582 36.4477C40.2875 35.5765 39.2006 34.2302 38.3096 32.707C37.619 31.5268 37.1074 30.2672 36.6856 28.9694C36.6251 28.7826 36.5447 28.6897 36.3338 28.6536C35.3414 28.4845 34.3371 28.3618 33.3583 28.0142C33.4246 28.0846 33.4888 28.1567 33.5572 28.2245C34.1554 28.8222 34.7798 29.3949 35.2767 30.0876C35.8661 30.9087 36.3134 31.8066 36.6277 32.7597C37.0536 34.0522 37.6007 35.3003 38.0032 36.6007C38.0564 36.7724 38.0715 36.9582 38.1968 37.1566C38.3806 36.5798 38.7455 36.2253 39.293 36.0614C40.0479 35.8354 40.8638 36.0823 41.3106 36.6764C41.7637 37.2788 41.8096 38.222 41.3899 38.8437C41.024 39.3856 40.4446 39.5349 39.8417 39.5876C39.3478 39.6304 38.8493 39.6069 38.3586 39.5276C37.7724 39.4326 37.3663 39.0499 37.0244 38.6036C36.1605 37.475 35.7392 36.169 35.4323 34.7945C35.0831 33.2316 34.6686 31.6787 33.8527 30.2724C33.255 29.2419 32.3932 28.5028 31.2588 28.1823C30.0765 27.8477 28.9234 28.0147 27.8339 28.6468C27.0567 29.0979 26.5561 29.7655 26.1395 30.5219C25.286 32.0707 24.7891 33.7328 24.5088 35.4768C24.2347 37.1832 23.4324 38.577 21.8319 39.3814C21.1162 39.7411 20.352 39.8366 19.5742 39.5354C18.6811 39.1898 18.3459 38.2758 18.465 37.4359C18.5772 36.6445 19.4077 35.9753 20.2012 35.9675C21.0708 35.9591 21.5161 36.2671 21.9144 37.1665C22.0083 37.0668 22.0224 36.9421 22.0605 36.833C22.5977 35.3124 23.0221 33.7521 23.6474 32.2623C24.1256 31.1227 24.7891 30.0991 25.6154 29.1793C25.998 28.7533 26.3869 28.3347 26.875 27.8999C26.496 28.0189 26.1901 28.1149 25.8837 28.2115C25.178 28.4344 24.4482 28.544 23.7216 28.6641C23.5592 28.6907 23.4914 28.7549 23.4413 28.9005C22.8744 30.5417 22.1723 32.1203 21.2185 33.5772C20.3672 34.878 19.3644 36.04 17.9555 36.7578C16.2496 37.6269 14.5859 37.4839 13.0382 36.3663C11.4497 35.2194 10.6067 33.5788 10.093 31.7361C9.73335 30.4462 9.65035 29.1255 9.75475 27.8054C9.95886 25.2272 10.8687 22.8964 12.37 20.7943C12.3747 20.7875 12.3857 20.7854 12.4186 20.7677L12.4191 20.7682Z" fill="black"/>
<path d="M33.1931 45.6199C33.2652 45.2519 33.3388 44.8985 33.404 44.543C33.665 43.1205 33.926 41.6976 34.1808 40.274C34.2152 40.0814 34.2914 39.9796 34.4992 39.9363C34.8782 39.8575 35.2514 39.7463 35.622 39.6309C35.7708 39.5845 35.8314 39.6309 35.8851 39.7588C36.9422 42.2838 38.0003 44.8082 39.0636 47.3305C39.1195 47.4626 39.1111 47.5096 38.9655 47.5503C38.5077 47.6782 38.0504 47.8103 37.601 47.9642C37.3723 48.0426 37.3791 47.8625 37.3363 47.7575C36.7454 46.3111 36.1613 44.8614 35.5745 43.4129C35.5354 43.3168 35.4879 43.2239 35.3851 43.1336C35.2838 43.7381 35.1815 44.342 35.0818 44.9465C34.8839 46.144 34.685 47.341 34.4924 48.539C34.47 48.6773 34.4214 48.7379 34.2732 48.7483C33.7882 48.7828 33.3028 48.8188 32.8215 48.883C32.6158 48.9101 32.5589 48.8271 32.5004 48.6596C31.8532 46.7991 31.1996 44.9408 30.5471 43.0824C30.4197 42.7191 30.2892 42.3569 30.1618 41.9988C30.0308 42.0113 30.0601 42.0995 30.047 42.1559C29.6988 43.6582 29.3491 45.1606 29.0082 46.6645C28.7175 47.9496 27.9214 48.7373 26.6132 48.9122C25.3411 49.0824 24.1551 48.8047 23.12 48.0175C22.4925 47.5404 22.2106 46.9401 22.3558 46.1111C22.7243 44.0074 23.0406 41.8944 23.3737 39.7844C23.4013 39.608 23.4483 39.5432 23.6519 39.598C24.1013 39.7192 24.5586 39.8126 25.0159 39.8977C25.2096 39.9337 25.2367 40.0203 25.2049 40.1931C24.8833 41.9304 24.567 43.6681 24.2496 45.4059C24.2167 45.5876 24.1776 45.7682 24.1541 45.9509C24.0883 46.4609 24.2517 46.7913 24.699 47.0377C25.2722 47.3535 25.883 47.4005 26.5068 47.2371C26.8936 47.1358 27.1274 46.8874 27.2172 46.476C27.6369 44.5519 28.0764 42.6319 28.4993 40.7084C28.5363 40.5392 28.6016 40.4922 28.7676 40.4881C29.4874 40.4698 30.2073 40.4458 30.9255 40.4014C31.1109 40.3899 31.1725 40.451 31.232 40.6092C31.8317 42.2086 32.4383 43.8049 33.047 45.4007C33.0726 45.468 33.0741 45.5552 33.1931 45.6189V45.6199Z" fill="black"/>
<path d="M33.5427 14.8853C33.6575 16.0196 33.62 17.0902 33.1486 18.1014C32.5462 19.3933 31.4479 20.1095 30.1799 20.6237C30.0849 20.6623 30.0108 20.6279 29.9283 20.6034C28.0303 20.0464 26.7399 18.5153 26.5191 16.5484C26.4737 16.1433 26.4413 15.7356 26.421 15.3285C26.4043 14.9975 26.4137 15.0033 26.7164 15.103C28.1243 15.5665 29.0529 16.5218 29.5833 17.8874C29.7227 18.246 29.861 18.6046 30.0322 19.0462C30.3558 18.0925 30.727 17.2589 31.355 16.563C31.9746 15.8766 32.7127 15.3525 33.5432 14.8848L33.5427 14.8853Z" fill="black"/>
<path d="M30.0325 17.9713C29.7569 17.3036 29.4666 16.7018 29.0349 16.1787C28.6252 15.6823 28.1235 15.3064 27.5493 15.0246C27.4345 14.9682 27.3859 14.9259 27.4512 14.7886C28.0619 13.5055 28.8053 12.319 29.8644 11.3491C30.0388 11.1894 30.1405 11.1868 30.3097 11.3585C31.278 12.343 32.0062 13.4784 32.5152 14.7599C32.5867 14.94 32.5564 15.0308 32.3993 15.1378C31.3537 15.8472 30.5451 16.7592 30.032 17.9708L30.0325 17.9713Z" fill="black"/>
<path d="M30.4188 29.8779C30.66 30.6818 30.8855 31.4027 31.0891 32.1293C31.1423 32.3194 31.2295 32.3684 31.4138 32.3658C32.1112 32.3564 32.8091 32.3622 33.5791 32.3622C33.0351 32.7897 32.5439 33.1775 32.0506 33.5623C31.6195 33.8984 31.6205 33.8958 31.7834 34.4277C31.9708 35.0395 32.1529 35.6529 32.3367 36.2657C32.3419 36.2835 32.3388 36.3038 32.3414 36.3581C31.7646 35.904 31.1982 35.4728 30.6501 35.0192C30.4726 34.872 30.3672 34.8694 30.1876 35.0192C29.6431 35.4723 29.0778 35.9014 28.4697 36.3795C28.6153 35.8873 28.7437 35.4483 28.8742 35.0098C28.9436 34.7775 28.9927 34.5358 29.0929 34.3171C29.2422 33.9919 29.1441 33.806 28.8606 33.6071C28.3287 33.2334 27.8302 32.8127 27.2539 32.3616C27.7138 32.3616 28.1037 32.3616 28.4937 32.3616C28.8048 32.3616 29.1169 32.3528 29.4275 32.3658C29.6139 32.3736 29.6969 32.3152 29.7496 32.1262C29.9527 31.3991 30.1782 30.6787 30.4183 29.8779H30.4188Z" fill="black"/>
<path d="M29.9997 59.9984C13.5795 60.1295 -0.00156589 46.5369 1.35419e-07 29.9956C0.00104415 13.9496 13.0074 0.00783351 30.0378 3.40715e-06C46.5959 -0.0078267 60.0611 13.4814 60.0219 30.0483C59.9817 47.121 45.9711 60.1608 29.9997 59.999V59.9984ZM30.0023 59.8157C46.4435 59.7844 59.7364 46.5698 59.798 30.148C59.8601 13.628 46.5166 0.223422 30.0927 0.21507C13.6072 0.206718 0.286582 13.4438 0.225507 29.8677C0.16391 46.4383 13.5132 59.8147 30.0023 59.8157Z" fill="black"/>
<path d="M29.9828 59.3509C13.8006 59.3806 0.65128 46.1488 0.667985 29.9859C0.684689 13.8058 13.8753 0.652257 30.0408 0.668961C46.2282 0.685665 59.3729 13.8857 59.3557 30.0439C59.3384 46.2266 46.1447 59.4141 29.9828 59.3504V59.3509ZM30.0084 59.1191C46.0617 59.1202 59.0868 46.1118 59.1181 30.0846C59.1495 13.9874 46.1019 0.911694 30.0298 0.910128C13.951 0.908562 0.916982 13.9201 0.910196 29.9901C0.902888 46.0857 13.9217 59.1181 30.0084 59.1191Z" fill="black"/>
<path d="M18.2564 6.07559C18.4062 6.56367 18.5534 7.05227 18.7069 7.5393C18.7559 7.69538 18.793 7.81179 18.5946 7.91671C18.402 8.0185 18.3227 7.94333 18.2146 7.80866C17.9014 7.41767 17.5773 7.03556 17.2019 6.68477C17.4347 7.11595 17.6576 7.55339 17.9056 7.9757C18.0194 8.16988 17.9834 8.26071 17.7871 8.34632C17.6702 8.39696 17.6185 8.38339 17.5595 8.27272C17.1753 7.55235 16.788 6.83355 16.3954 6.11788C16.3286 5.99573 16.3479 5.94039 16.469 5.86888C16.9002 5.61309 16.8971 5.60683 17.2301 5.99729C17.501 6.31467 17.7699 6.63362 18.0893 6.93221C17.9907 6.58977 17.8931 6.24733 17.7934 5.90542C17.7662 5.8125 17.7312 5.72115 17.7031 5.62875C17.6002 5.29154 17.7845 5.01957 18.14 4.9705C18.2376 4.95693 18.2527 5.02479 18.283 5.08169C18.6719 5.79945 19.0551 6.52086 19.4513 7.23445C19.5504 7.41297 19.4309 7.44377 19.3239 7.51424C19.1923 7.60037 19.1245 7.56697 19.0545 7.43333C18.8123 6.97083 18.5591 6.51356 18.3107 6.05419C18.2924 6.0615 18.2747 6.06881 18.2564 6.07611V6.07559Z" fill="black"/>
<path d="M56.0593 23.5887C55.5409 23.6132 55.0221 23.6309 54.5042 23.6654C54.333 23.6769 54.227 23.6831 54.1691 23.4665C54.1101 23.2452 54.2197 23.1956 54.368 23.1256C54.8289 22.908 55.2872 22.6856 55.7268 22.4131C55.2303 22.5373 54.7318 22.6532 54.2391 22.7905C54.0637 22.8396 54.0042 22.8056 53.9587 22.6282C53.9107 22.4423 53.9765 22.399 54.1378 22.3593C54.8816 22.1766 55.6239 21.9845 56.3647 21.7893C56.5401 21.7428 56.646 21.7475 56.6883 21.9642C56.7932 22.4987 56.8533 22.3604 56.4038 22.5885C56.0144 22.7863 55.6208 22.9758 55.2309 23.1679C55.2183 23.2645 55.2862 23.2306 55.3175 23.229C55.7931 23.2065 56.2697 23.1914 56.7436 23.1507C56.9295 23.1345 56.9999 23.1951 57.0448 23.3652C57.1654 23.8173 57.1717 23.8152 56.7087 23.9316C56.0593 24.0955 55.411 24.2615 54.7616 24.4239C54.6159 24.4604 54.4557 24.5784 54.3826 24.3069C54.3127 24.0475 54.4854 24.0444 54.6415 24.0047C55.1165 23.8836 55.5916 23.762 56.0666 23.6409C56.064 23.6236 56.0609 23.6064 56.0582 23.5897L56.0593 23.5887Z" fill="black"/>
<path d="M13.6219 51.5416C14.0687 51.1601 14.455 50.827 14.847 50.5002C14.9154 50.4433 14.9796 50.3108 15.083 50.3739C15.238 50.4689 15.3774 50.5947 15.5079 50.7231C15.5481 50.7628 15.4724 50.8244 15.4385 50.8683C14.9483 51.4978 14.4519 52.1221 13.9685 52.7569C13.8547 52.9062 13.7842 52.8555 13.6657 52.7741C13.5128 52.6692 13.5885 52.593 13.6636 52.4974C14.0108 52.0563 14.3553 51.6137 14.6581 51.1282C14.2384 51.4915 13.8192 51.8548 13.399 52.2176C13.2946 52.308 13.2204 52.4332 13.0388 52.2902C12.8644 52.1524 12.913 52.0506 12.9918 51.9003C13.2429 51.4221 13.4825 50.9382 13.6683 50.4188C13.3442 50.8338 13.0205 51.2498 12.6953 51.6638C12.6113 51.7708 12.5601 51.9175 12.3659 51.7619C12.1681 51.6038 12.3101 51.5182 12.392 51.4127C12.8456 50.8286 13.3003 50.2455 13.7607 49.6671C13.8244 49.5873 13.8782 49.3779 14.0332 49.546C14.1642 49.6885 14.5239 49.7021 14.3308 50.0565C14.0985 50.483 13.8944 50.9246 13.6788 51.36C13.6631 51.3918 13.6574 51.4284 13.6229 51.5416H13.6219Z" fill="black"/>
<path d="M38.4665 54.3866C38.5386 54.9118 38.6122 55.4364 38.6827 55.962C38.702 56.1056 38.7844 56.2517 38.5532 56.3389C38.3178 56.4277 38.2671 56.2825 38.1847 56.1385C37.9116 55.6624 37.635 55.1879 37.3087 54.7364C37.4867 55.2568 37.6647 55.7778 37.8438 56.2982C37.8882 56.4271 37.9602 56.5378 37.7483 56.6145C37.5431 56.6887 37.5238 56.579 37.4768 56.4412C37.2304 55.7146 36.9846 54.9874 36.7236 54.266C36.6609 54.0927 36.7001 54.0322 36.865 53.9763C37.2581 53.8427 37.2555 53.8343 37.4638 54.1867C37.7044 54.5928 37.9445 54.9995 38.2374 55.3816C38.169 54.8736 38.1006 54.3663 38.0317 53.8583C38.0014 53.636 38.3616 53.3379 38.5756 53.4079C38.6305 53.4256 38.6393 53.4752 38.6555 53.5206C38.9217 54.2916 39.1859 55.0637 39.4573 55.8331C39.5147 55.996 39.4218 56.0268 39.3033 56.0758C39.1639 56.1338 39.1159 56.0769 39.0757 55.9568C38.9238 55.5058 38.7677 55.0563 38.6117 54.6064C38.584 54.527 38.5506 54.4503 38.5198 54.372C38.502 54.3767 38.4843 54.3814 38.4665 54.3861V54.3866Z" fill="black"/>
<path d="M25.9843 55.6417C25.9159 56.1966 25.8501 56.7515 25.7755 57.3059C25.763 57.3977 25.7922 57.5319 25.6998 57.5705C25.6231 57.6024 25.5093 57.5658 25.4179 57.5387C25.326 57.511 25.3678 57.4275 25.3756 57.3638C25.4685 56.5918 25.5583 55.8192 25.6601 55.0487C25.6721 54.9589 25.6283 54.7522 25.8199 54.8201C26.0005 54.8838 26.3225 54.6901 26.3424 55.0978C26.3669 55.6114 26.4254 56.124 26.4692 56.6372C26.5846 56.6539 26.5658 56.5568 26.5841 56.5041C26.7386 56.0541 26.8905 55.6031 27.0393 55.151C27.1598 54.7841 27.4172 55.0639 27.6041 55.0414C27.7956 55.0179 27.721 55.1996 27.7095 55.3003C27.6218 56.0437 27.5273 56.786 27.4375 57.5288C27.4208 57.6687 27.425 57.7929 27.212 57.7783C26.9897 57.7626 27.0241 57.6316 27.0403 57.4974C27.1082 56.9384 27.1792 56.3793 27.2585 55.7466C27.1014 55.9962 27.0685 56.2191 26.9959 56.4237C26.8727 56.7713 26.7631 57.1242 26.6545 57.4771C26.6107 57.6212 26.5684 57.7104 26.3763 57.6781C26.2025 57.6488 26.1612 57.5836 26.1529 57.4191C26.1216 56.8277 26.073 56.2373 26.0307 55.6464C26.0156 55.6454 26.0005 55.6438 25.9853 55.6428L25.9843 55.6417Z" fill="black"/>
<path d="M21.0123 4.86887C20.8766 5.0996 21.0462 5.16694 21.2514 5.27552C21.5505 5.43421 21.6481 5.74219 21.6455 6.06949C21.6434 6.36442 21.4748 6.55287 21.2127 6.66875C20.9204 6.79821 20.6249 6.92245 20.3384 7.06391C20.2047 7.12969 20.1499 7.08949 20.0972 6.96995C19.7699 6.224 19.4416 5.4791 19.1075 4.73628C19.0464 4.60004 19.1002 4.54523 19.2166 4.49668C19.4849 4.38445 19.7475 4.25865 20.0173 4.15007C20.5305 3.94335 21.0154 4.27953 21.0118 4.86887H21.0123ZM21.137 5.91811C21.1 5.74428 21.0269 5.57306 20.7722 5.58454C20.5508 5.59446 20.1087 5.8325 20.1546 5.91341C20.2585 6.09663 20.2355 6.40149 20.4746 6.44794C20.7304 6.49753 21.1449 6.13892 21.137 5.91811ZM20.5936 4.88923C20.5487 4.73472 20.4908 4.55254 20.2804 4.59482C20.0664 4.63762 19.7809 4.67155 19.7224 4.89915C19.6921 5.01712 19.7683 5.3084 19.9881 5.34912C20.2032 5.38879 20.6004 5.05888 20.5942 4.88923H20.5936Z" fill="black"/>
<path d="M3.70046 29.5731C3.29329 29.5731 2.88613 29.571 2.47896 29.5741C2.31453 29.5751 2.2331 29.5287 2.25293 29.3376C2.28373 29.049 2.29052 28.7572 2.2973 28.4664C2.31192 27.8175 3.07875 27.6782 3.44572 27.9783C3.58666 28.0937 3.63886 28.0718 3.7631 27.9574C4.02828 27.7126 4.34879 27.7361 4.66356 27.863C4.95902 27.9825 5.09056 28.2075 5.07542 28.528C5.06133 28.8287 5.05402 29.1293 5.05559 29.43C5.05663 29.6096 5.00965 29.6889 4.80555 29.6785C4.43805 29.6587 4.06899 29.6728 3.70046 29.6728C3.70046 29.6393 3.70046 29.6059 3.70046 29.5731ZM4.59152 28.8026C4.59152 28.7634 4.58943 28.7248 4.59152 28.6862C4.60457 28.4539 4.53201 28.2811 4.27101 28.2612C4.00165 28.2409 3.88525 28.3876 3.87794 28.6444C3.87481 28.7598 3.8581 28.8751 3.85288 28.9905C3.85027 29.0453 3.83148 29.1226 3.90247 29.1403C4.09979 29.1894 4.31381 29.2296 4.50017 29.1675C4.63746 29.122 4.55289 28.9258 4.591 28.802L4.59152 28.8026ZM2.76032 28.8099C2.82557 28.8866 2.63922 29.0583 2.86264 29.1241C3.23639 29.2332 3.37211 29.1372 3.37525 28.7519C3.37525 28.6935 3.37733 28.635 3.37472 28.5771C3.36324 28.3453 3.21395 28.2785 3.01506 28.302C2.7076 28.338 2.79686 28.5927 2.76032 28.8104V28.8099Z" fill="black"/>
<path d="M43.1618 5.73939C43.144 6.14969 43.0156 6.38303 42.7535 6.51666C42.6194 6.58504 42.6137 6.63254 42.6622 6.77244C42.7875 7.13419 42.6491 7.43696 42.3793 7.687C42.1303 7.9172 41.8604 7.90729 41.5717 7.76112C41.3034 7.6254 41.0315 7.49647 40.7553 7.37745C40.6175 7.31794 40.5877 7.25582 40.6572 7.11592C41.0137 6.39399 41.3645 5.6684 41.7106 4.94124C41.7748 4.80552 41.8374 4.77629 41.9742 4.84989C42.2561 5.0018 42.5494 5.13177 42.8319 5.28211C43.0568 5.40165 43.1748 5.59166 43.1618 5.73991V5.73939ZM42.2399 6.96454C42.2436 6.79176 41.7388 6.38877 41.5602 6.42687C41.5305 6.43314 41.5049 6.47385 41.4835 6.50309C41.1661 6.93792 41.2021 7.07103 41.6923 7.27827C41.7101 7.28558 41.7283 7.29184 41.7466 7.29863C42.0113 7.39728 42.2342 7.24642 42.2394 6.96402L42.2399 6.96454ZM42.682 5.88138C42.6747 5.75975 42.1318 5.39121 42.0201 5.43506C41.9977 5.44393 41.9862 5.47891 41.969 5.50136C41.7001 5.85528 41.7268 5.96646 42.1204 6.14238C42.1642 6.16222 42.2075 6.18414 42.2529 6.1998C42.4691 6.2734 42.6961 6.10427 42.6826 5.88138H42.682Z" fill="black"/>
<path d="M46.584 11.1404C46.2886 10.9553 46.173 10.7157 46.2374 10.4216C46.2828 10.2128 46.3272 10.004 46.3648 9.79365C46.3872 9.66785 46.3867 9.54518 46.2927 9.4366C46.1983 9.32802 46.1226 9.29566 46.0187 9.43034C45.8642 9.63027 45.6825 9.80984 45.5379 10.0155C45.4064 10.2024 45.3166 10.11 45.1913 10.0171C45.0556 9.91685 45.0566 9.83959 45.1621 9.71587C45.6799 9.11035 46.1936 8.50117 46.702 7.88781C46.7949 7.7761 46.8586 7.74426 46.9781 7.8544C47.2141 8.07103 47.4704 8.26574 47.7048 8.48394C47.9793 8.73972 48.0221 8.98559 47.8729 9.29566C47.6959 9.66367 47.3529 9.89336 47.0235 9.82915C46.868 9.79887 46.8257 9.80931 46.8221 9.97949C46.8137 10.3705 46.6722 10.738 46.584 11.1404ZM46.8925 8.45366C46.8398 8.45262 46.4817 8.85143 46.4765 8.91668C46.4697 9.00229 46.9515 9.39693 47.0684 9.38179C47.2731 9.35517 47.3957 9.22467 47.4239 9.02108C47.4396 8.90781 47.0058 8.45575 46.8925 8.45366Z" fill="black"/>
<path d="M52.3775 18.6307C52.176 18.3384 52.1601 18.0605 52.33 17.797C52.4552 17.6008 52.5758 17.4014 52.6974 17.203C52.7794 17.0694 52.759 16.931 52.6682 16.8219C52.5534 16.6841 52.4594 16.8412 52.3696 16.882C52.176 16.9702 51.987 17.0746 51.8106 17.1931C51.654 17.298 51.5777 17.2573 51.5021 17.1007C51.4389 16.9702 51.3736 16.8825 51.5605 16.7828C52.2715 16.4043 52.9746 16.0107 53.6773 15.6161C53.7994 15.5477 53.86 15.5608 53.9242 15.6881C54.0682 15.9737 54.2384 16.2467 54.3767 16.5353C54.5506 16.8981 54.5036 17.1257 54.2353 17.3726C53.9497 17.6357 53.5509 17.7281 53.2732 17.5533C53.103 17.4463 53.0508 17.4703 53.0054 17.6519C52.983 17.7433 52.9235 17.8278 52.8702 17.9082C52.7152 18.1421 52.5549 18.3723 52.3785 18.6312L52.3775 18.6307ZM53.6136 17.1638C53.7764 17.1216 53.9461 17.0516 53.955 16.8251C53.9607 16.6805 53.6376 16.1903 53.5765 16.2274C53.4042 16.3318 53.137 16.3422 53.0843 16.5682C53.0414 16.753 53.4345 17.1717 53.6136 17.1638Z" fill="black"/>
<path d="M56.0119 32.5059C56.4838 32.5507 56.9552 32.6019 57.4281 32.6364C57.5831 32.6478 57.6567 32.6807 57.6385 32.8566C57.6207 33.0252 57.5769 33.0848 57.3869 33.0654C56.6326 32.9887 55.8762 32.9365 55.1208 32.8686C55.019 32.8598 54.8567 32.9177 54.8457 32.7423C54.8348 32.568 54.8008 32.3816 55.0519 32.2965C55.5113 32.1404 55.9597 31.9525 56.4123 31.7771C56.4734 31.7536 56.5323 31.7255 56.5877 31.6534C56.1205 31.6117 55.6543 31.5595 55.1861 31.5328C54.9919 31.5219 54.9449 31.4566 54.9538 31.2677C54.9642 31.0531 55.0812 31.0709 55.2263 31.0844C55.9811 31.1559 56.7359 31.2207 57.4902 31.2964C57.5863 31.3058 57.7549 31.2353 57.7518 31.4321C57.7491 31.5897 57.7773 31.7563 57.5565 31.834C57.0622 32.0079 56.5767 32.2073 56.0881 32.3973C56.0552 32.4098 56.026 32.4317 55.9952 32.4495C56.0009 32.4683 56.0062 32.4871 56.0119 32.5059Z" fill="black"/>
<path d="M5.8864 18.8971C6.34264 19.12 6.7592 19.3288 7.17994 19.5266C7.31983 19.5924 7.37099 19.6545 7.28747 19.8111C7.21126 19.9541 7.16323 20.0162 6.98575 19.9254C6.31184 19.5804 5.6254 19.2593 4.94888 18.919C4.857 18.8725 4.65655 18.8861 4.72181 18.6888C4.77923 18.5144 4.84709 18.3641 5.10026 18.3771C5.5852 18.4022 6.07224 18.385 6.55823 18.3844C6.62191 18.3844 6.68507 18.3787 6.76337 18.3202C6.33324 18.1088 5.90467 17.8932 5.47141 17.6881C5.32629 17.6192 5.25895 17.5612 5.34769 17.3848C5.43121 17.2188 5.50586 17.2084 5.65933 17.2856C6.34472 17.6301 7.03638 17.9621 7.72282 18.3051C7.80582 18.3463 7.97443 18.3536 7.91283 18.5056C7.85332 18.6528 7.8361 18.8548 7.58501 18.848C7.12826 18.836 6.67098 18.8438 6.21422 18.848C6.12131 18.8485 6.02369 18.8224 5.8864 18.8981V18.8971Z" fill="black"/>
<path d="M33.1928 3.56032C33.1244 3.99776 33.0471 4.43416 32.9908 4.87316C32.9673 5.05743 32.926 5.15192 32.7084 5.12425C32.4651 5.09345 32.5298 4.94833 32.5517 4.80739C32.664 4.07815 32.7715 3.34786 32.8947 2.62018C32.9114 2.51996 32.8514 2.32368 33.056 2.34091C33.2178 2.35448 33.3932 2.35083 33.4574 2.58729C33.601 3.12026 33.7779 3.64384 33.9601 4.23266C34.0953 3.89388 34.0833 3.59111 34.148 3.30453C34.1862 3.13436 34.2112 2.96001 34.2237 2.78618C34.2368 2.60556 34.2994 2.53196 34.4967 2.55545C34.704 2.57999 34.6909 2.69274 34.6674 2.84047C34.5505 3.57911 34.4419 4.31931 34.3177 5.05691C34.3005 5.15974 34.3511 5.35184 34.1564 5.33879C33.9852 5.32783 33.8051 5.33305 33.7388 5.07675C33.6062 4.56153 33.4256 4.05883 33.2643 3.55092C33.2408 3.55405 33.2168 3.55666 33.1933 3.55979L33.1928 3.56032Z" fill="black"/>
<path d="M3.95727 32.2255C3.47441 32.2741 2.98999 32.309 2.50975 32.3779C2.31347 32.4061 2.30512 32.3064 2.27902 32.1759C2.24718 32.0172 2.29207 31.9546 2.4659 31.9384C3.22124 31.869 3.9745 31.7797 4.72984 31.7098C4.83372 31.7004 5.00076 31.572 5.04879 31.7698C5.09264 31.9499 5.13179 32.1336 4.89218 32.2662C4.47562 32.4959 4.08255 32.7689 3.68008 33.0242C3.63258 33.0545 3.58665 33.0873 3.54958 33.1709C4.00321 33.126 4.45892 33.0936 4.90993 33.0304C5.09942 33.0038 5.19182 33.0148 5.22209 33.2325C5.25498 33.4715 5.11143 33.4507 4.96318 33.4653C4.21827 33.541 3.47441 33.6255 2.72899 33.695C2.63659 33.7038 2.47686 33.8129 2.44449 33.6177C2.41735 33.4554 2.35732 33.2888 2.57604 33.1651C3.00774 32.9213 3.4196 32.6436 3.8393 32.379C3.88628 32.3498 3.9296 32.3153 3.97502 32.2829C3.96928 32.2636 3.96301 32.2443 3.95727 32.2245V32.2255Z" fill="black"/>
<path d="M51.1189 46.1515C50.7488 45.8383 50.3819 45.5214 50.006 45.215C49.8844 45.1158 49.8525 45.0448 49.9679 44.9133C50.0739 44.7927 50.1391 44.7394 50.2879 44.8694C50.8673 45.3742 51.4614 45.8628 52.0429 46.3655C52.1144 46.4276 52.3002 46.4657 52.1864 46.6254C52.0899 46.7606 52.0079 46.9141 51.7714 46.8452C51.2776 46.7011 50.7749 46.5889 50.2754 46.4641C50.23 46.4527 50.184 46.4448 50.1068 46.4819C50.4664 46.7852 50.8235 47.0916 51.1873 47.3897C51.3178 47.4967 51.4128 47.5661 51.2573 47.7498C51.1038 47.932 51.026 47.8318 50.9107 47.7337C50.3323 47.2419 49.7492 46.7559 49.1734 46.2616C49.1066 46.2042 48.9338 46.1582 49.0476 46.0241C49.1421 45.9134 49.1839 45.7145 49.4219 45.7787C49.9737 45.928 50.5312 46.0554 51.0866 46.1917C51.097 46.1786 51.1075 46.165 51.1179 46.152L51.1189 46.1515Z" fill="black"/>
<path d="M25.0987 3.85036C25.1613 4.32017 25.2114 4.79258 25.2929 5.25926C25.3258 5.44822 25.2652 5.49677 25.0992 5.52078C24.9374 5.54427 24.8852 5.4999 24.8627 5.33077C24.7636 4.57021 24.6425 3.81225 24.5381 3.05273C24.5245 2.95355 24.4404 2.79904 24.6143 2.75937C24.7641 2.72543 24.928 2.65966 25.0522 2.85489C25.3132 3.26467 25.5936 3.66192 25.8671 4.06386C25.9047 4.11919 25.9464 4.17192 26.0112 4.25909C26.0848 3.97721 25.9772 3.7423 25.9595 3.50427C25.9423 3.2725 25.8968 3.04229 25.8629 2.81157C25.8431 2.67793 25.83 2.56727 26.0279 2.55161C26.1928 2.53908 26.2716 2.56309 26.2957 2.74579C26.3954 3.50636 26.5123 4.26483 26.613 5.0254C26.6256 5.11936 26.7195 5.27178 26.5232 5.30467C26.3703 5.33025 26.2179 5.4169 26.0884 5.21384C25.7919 4.74769 25.4704 4.2972 25.1592 3.84044C25.1389 3.84357 25.1185 3.84723 25.0982 3.85036H25.0987Z" fill="black"/>
<path d="M21.6135 56.6575C21.2418 56.5776 20.8467 56.4158 20.4468 56.2665C20.3523 56.231 20.3836 56.1663 20.4082 56.099C20.6885 55.3321 20.9709 54.5663 21.2434 53.7969C21.2951 53.6507 21.3702 53.6534 21.4856 53.6972C21.7398 53.7943 21.9987 53.8789 22.2498 53.9833C22.7958 54.2109 22.8715 54.8738 22.3777 55.2152C22.2211 55.3233 22.2248 55.3781 22.3025 55.5341C22.5207 55.9747 22.1261 56.6497 21.6135 56.657V56.6575ZM21.945 55.7581C21.9465 55.6646 21.9011 55.5488 21.7732 55.4887C21.5827 55.3995 21.3984 55.2872 21.1787 55.2846C21.1635 55.2846 21.1468 55.329 21.1322 55.3535C20.8341 55.85 20.8827 55.9773 21.4266 56.1313C21.436 56.1339 21.4454 56.1355 21.4548 56.1381C21.7205 56.2086 21.9136 56.0749 21.945 55.7581ZM22.2503 54.7083C22.2603 54.5001 21.8745 54.1983 21.6224 54.2474C21.4026 54.2902 21.3718 54.5695 21.3843 54.7141C21.4089 55.0027 21.7304 54.9594 21.9293 55.0074C22.1371 55.0576 22.2227 54.8712 22.2503 54.7083Z" fill="black"/>
<path d="M10.9604 11.5784C11.2867 11.9057 11.6061 12.2277 11.9282 12.5472C12.0347 12.6532 12.1375 12.7278 11.97 12.8938C11.8123 13.0504 11.7382 12.9805 11.6234 12.8656C11.0873 12.328 10.5444 11.7971 10.0093 11.2589C9.94564 11.1947 9.78486 11.1414 9.895 11.0104C9.99419 10.8924 10.0803 10.7285 10.2975 10.8053C10.7647 10.9702 11.236 11.1232 11.7058 11.2803C11.7847 11.3069 11.8598 11.3555 11.9726 11.3294C11.6255 10.9817 11.2914 10.6445 10.9542 10.3109C10.8477 10.206 10.7318 10.1345 10.9046 9.9664C11.058 9.81658 11.1327 9.86722 11.2538 9.98885C11.7894 10.527 12.3338 11.0558 12.8699 11.5935C12.9347 11.6582 13.0933 11.7193 12.9853 11.8441C12.8804 11.9652 12.7958 12.1453 12.5604 12.0591C12.1135 11.8957 11.6594 11.7522 11.2068 11.6034C11.1363 11.5804 11.068 11.5246 10.9599 11.5794L10.9604 11.5784Z" fill="black"/>
<path d="M29.3074 4.22181C29.3215 4.74486 29.2139 4.90459 28.7321 5.07633C28.2717 5.24024 27.8019 5.11653 27.52 4.75739C27.1306 4.26043 27.0643 3.30307 27.3786 2.7628C27.6124 2.36033 27.9705 2.22513 28.4147 2.26428C28.7744 2.2956 28.9983 2.50232 29.132 2.82231C29.1675 2.90687 29.2421 3.02223 29.0887 3.0546C28.9644 3.0807 28.813 3.24826 28.7045 3.05773C28.5546 2.7936 28.3401 2.70433 28.0681 2.79621C27.7847 2.89173 27.685 3.13603 27.6693 3.41635C27.6531 3.7092 27.6599 3.99995 27.7899 4.27296C27.9825 4.677 28.3761 4.76156 28.7295 4.48803C28.8543 4.39146 28.8616 4.27818 28.8339 4.1529C28.8026 4.01092 28.6752 4.05529 28.5922 4.07042C28.3516 4.11427 28.3051 3.99421 28.2842 3.7875C28.2587 3.53693 28.4335 3.57034 28.5635 3.56825C29.3705 3.55625 29.2437 3.34327 29.3069 4.22233L29.3074 4.22181Z" fill="black"/>
<path d="M13.8672 10.9226C13.0106 10.9179 12.1065 9.86971 12.2161 9.10915C12.32 8.38565 13.1009 7.98631 13.6762 8.36581C13.7471 8.41279 13.8923 8.45873 13.7847 8.57722C13.697 8.67432 13.6814 8.91287 13.4548 8.8043C13.2241 8.69363 13.02 8.71816 12.8467 8.90609C12.6666 9.10132 12.6682 9.32891 12.7647 9.5586C12.8963 9.87128 13.1124 10.1229 13.3932 10.3072C13.7717 10.5546 14.1538 10.411 14.3083 9.99969C14.3741 9.82534 14.3052 9.71415 14.1919 9.6181C14.065 9.51057 14.0014 9.66143 13.9366 9.7199C13.8025 9.84152 13.7179 9.85562 13.5926 9.69641C13.4726 9.54398 13.4574 9.46307 13.6208 9.32787C14.1888 8.85911 14.1684 8.86485 14.5886 9.33727C14.8449 9.62541 14.9843 9.88955 14.7692 10.2649C14.5448 10.6564 14.2451 10.9064 13.8672 10.9221V10.9226Z" fill="black"/>
<path d="M45.6671 7.44764C45.6593 8.04325 45.1059 8.86124 44.5589 9.08622C43.8458 9.37959 43.067 8.81165 43.174 8.04691C43.2664 7.38866 43.6172 6.86091 44.2044 6.53987C44.8935 6.16351 45.6775 6.66411 45.6671 7.44764ZM43.6746 8.11581C43.6746 8.54804 44.0609 8.80016 44.4367 8.58719C44.8554 8.35019 45.1122 7.96965 45.1701 7.49254C45.2213 7.07545 44.8183 6.80975 44.4284 6.97418C44.075 7.12296 43.6741 7.73057 43.6746 8.11581Z" fill="black"/>
<path d="M51.955 13.4082C52.6519 13.404 53.1254 14.0769 52.8931 14.7419C52.689 15.3266 51.8386 15.9316 51.2216 15.9311C50.5258 15.9306 50.0476 15.2473 50.2836 14.5921C50.4992 13.9934 51.3198 13.4119 51.955 13.4082ZM51.2754 15.4253C51.6784 15.4206 52.298 14.9701 52.4228 14.5911C52.5423 14.2288 52.2542 13.8363 51.8799 13.9C51.3876 13.9835 50.9904 14.2502 50.78 14.7158C50.613 15.086 50.8698 15.43 51.2749 15.4253H51.2754Z" fill="black"/>
<path d="M56.2141 35.717C55.8091 35.6805 55.3873 35.6241 55.0088 35.397C54.6565 35.1856 54.4973 34.8907 54.5484 34.4715C54.6638 33.5241 54.6575 33.5246 55.5721 33.712C56.1327 33.8268 56.6928 33.9453 57.2561 34.0456C57.4377 34.0779 57.4816 34.1406 57.4294 34.3154C57.3772 34.4914 57.361 34.6777 57.3208 34.8578C57.1825 35.4826 56.8755 35.7238 56.2136 35.717H56.2141ZM56.1447 35.2269C56.6453 35.2368 56.7581 35.1313 56.8593 34.6615C56.8896 34.5195 56.8818 34.4496 56.721 34.4209C56.2429 34.3353 55.7673 34.2371 55.2907 34.1447C55.227 34.1322 55.167 34.1014 55.1111 34.1808C54.9217 34.4512 55.0271 34.8928 55.3288 35.0311C55.6055 35.158 55.9004 35.2159 56.1447 35.2269Z" fill="black"/>
<path d="M4.31647 22.5322C4.66361 22.5489 5.11306 22.6549 5.50247 22.943C5.81359 23.1732 5.942 23.4749 5.84178 23.8623C5.76922 24.1431 5.80419 24.5357 5.60113 24.6761C5.39337 24.8196 5.05616 24.5973 4.77636 24.5341C4.22669 24.4109 3.68224 24.2663 3.13256 24.1431C2.96187 24.105 2.90549 24.0403 2.96343 23.868C3.01616 23.7125 3.04487 23.5485 3.08245 23.3878C3.23957 22.7196 3.50789 22.5108 4.31647 22.5317V22.5322ZM4.31073 23.0072C3.68485 22.9655 3.6008 23.2745 3.53138 23.6519C3.51311 23.7516 3.57836 23.76 3.64726 23.7767C4.14526 23.8967 4.64273 24.0189 5.1402 24.141C5.1877 24.1525 5.2279 24.165 5.27018 24.1191C5.46176 23.9098 5.3798 23.3867 5.11932 23.251C4.82491 23.097 4.50283 23.0286 4.31125 23.0072H4.31073Z" fill="black"/>
<path d="M55.2525 39.4865C54.803 39.438 54.3019 39.2762 53.888 38.9029C53.5993 38.6425 53.5012 38.3214 53.6411 37.9529C53.747 37.6726 53.7653 37.2722 53.996 37.1511C54.2127 37.0373 54.5259 37.3004 54.7963 37.3969C55.3089 37.5791 55.8095 37.7947 56.3242 37.9685C56.5559 38.0468 56.5794 38.1476 56.4823 38.347C56.4014 38.512 56.3513 38.6915 56.2835 38.8633C56.0971 39.3357 55.8523 39.498 55.2525 39.4871V39.4865ZM55.2786 39.0136C55.6294 39.0183 55.7813 38.8701 55.9008 38.4926C55.94 38.3694 55.9123 38.3209 55.7985 38.2786C55.3339 38.1069 54.8714 37.9278 54.4084 37.7519C54.3546 37.7316 54.305 37.7065 54.2481 37.7566C54.0425 37.9372 54.0362 38.4326 54.256 38.5981C54.5728 38.8366 54.9398 38.9598 55.2786 39.0136Z" fill="black"/>
<path d="M53.3825 41.7167C53.3428 41.2913 53.027 41.1227 52.6846 40.9964C52.445 40.9082 52.4272 40.7902 52.5541 40.5887C52.6204 40.4838 52.6663 40.4566 52.7817 40.5135C53.5213 40.88 54.2626 41.2433 55.007 41.6003C55.185 41.6859 55.0858 41.7841 55.0404 41.8807C54.9939 41.9793 54.9704 42.1187 54.7971 42.0305C54.5158 41.8869 54.2297 41.7528 53.905 41.6578C54.046 41.9292 54.1629 42.2168 54.3336 42.4684C54.5581 42.7999 54.5424 43.0896 54.2506 43.4107C54.0856 43.0776 53.916 42.7561 53.7662 42.4256C53.6967 42.2722 53.6101 42.2106 53.4368 42.2184C52.9513 42.2414 52.4643 42.2408 51.9788 42.2596C51.8013 42.2664 51.7637 42.2408 51.8342 42.054C51.9355 41.7862 52.0837 41.6823 52.3766 41.71C52.7034 41.7413 53.0359 41.7173 53.383 41.7173L53.3825 41.7167Z" fill="black"/>
<path d="M56.4099 28.7912C56.7988 28.7912 57.1877 28.7979 57.5766 28.788C57.7489 28.7833 57.8204 28.8287 57.8115 29.0151C57.7922 29.4134 57.7823 29.8122 57.7885 30.211C57.7917 30.4146 57.7061 30.4459 57.5275 30.4459C57.3297 30.4459 57.2796 30.3687 57.2911 30.186C57.3062 29.9437 57.2858 29.6989 57.3036 29.4572C57.3239 29.1847 57.1339 29.2568 56.9946 29.2526C56.8588 29.2484 56.6902 29.1968 56.7048 29.4463C56.7189 29.6885 56.6965 29.9328 56.7048 30.1755C56.7122 30.3796 56.579 30.3551 56.4522 30.3535C56.3243 30.352 56.1896 30.3692 56.2001 30.1693C56.2116 29.9458 56.2022 29.7214 56.2178 29.4985C56.2303 29.3215 56.1959 29.2338 55.9871 29.2359C55.3821 29.2432 55.5027 29.1712 55.4839 29.7188C55.4781 29.8837 55.4682 30.0502 55.4818 30.2147C55.4974 30.4052 55.4322 30.4751 55.237 30.4652C55.0668 30.4569 54.9655 30.435 54.9775 30.223C55.001 29.8059 55.0068 29.3873 55.0041 28.9692C55.0031 28.788 55.0689 28.7363 55.2438 28.7416C55.6321 28.753 56.0215 28.7452 56.4104 28.7452V28.7917L56.4099 28.7912Z" fill="black"/>
<path d="M44.576 51.3569C44.9002 51.7573 45.1946 52.13 45.5005 52.4933C45.6007 52.6123 45.6153 52.6828 45.4822 52.7945C45.3397 52.9145 45.2771 52.8561 45.1862 52.7423C44.7065 52.1425 44.2195 51.5479 43.7397 50.9481C43.6828 50.8771 43.5398 50.8035 43.6766 50.6871C43.781 50.5984 43.8655 50.4684 44.0519 50.5634C44.5102 50.7973 44.9785 51.0118 45.443 51.2337C45.5109 51.266 45.5798 51.2968 45.6858 51.289C45.3668 50.8939 45.0521 50.495 44.7263 50.1061C44.624 49.984 44.6178 49.9167 44.7493 49.806C44.8965 49.6823 44.956 49.7548 45.0432 49.8645C45.5234 50.4642 46.0105 51.0583 46.4892 51.6591C46.5429 51.727 46.7016 51.798 46.5549 51.9139C46.4437 52.0021 46.3597 52.1524 46.1577 52.047C45.7448 51.8314 45.3183 51.6414 44.896 51.4435C44.8119 51.4044 44.7363 51.3339 44.576 51.3574V51.3569Z" fill="black"/>
<path d="M6.17024 37.666C6.16658 38.0006 5.88731 38.3598 5.57567 38.4605C5.43943 38.5044 5.42116 38.4151 5.39506 38.3384C5.36008 38.235 5.21288 38.1254 5.39976 38.02C5.61013 37.9015 5.70774 37.7235 5.64197 37.4828C5.58716 37.2824 5.45718 37.1644 5.23689 37.1821C5.02809 37.1988 4.96179 37.346 4.94979 37.5251C4.93778 37.7094 4.95501 37.8962 4.93517 38.0795C4.89028 38.4903 4.57551 38.7753 4.14955 38.8087C3.77057 38.8385 3.48765 38.626 3.35871 38.2141C3.22821 37.7976 3.34357 37.4625 3.69854 37.2615C3.77423 37.2187 3.88541 37.0809 3.95484 37.2448C4.006 37.3659 4.1793 37.5131 3.9799 37.6514C3.7784 37.7908 3.77632 37.9667 3.86297 38.164C3.91256 38.2773 3.99556 38.3671 4.12815 38.3561C4.2764 38.3436 4.34739 38.2335 4.3594 38.0967C4.37297 37.9422 4.36618 37.7856 4.3714 37.63C4.39176 37.0475 4.77439 36.6753 5.33712 36.6888C5.81997 36.7003 6.17546 37.1179 6.16972 37.6671L6.17024 37.666Z" fill="black"/>
<path d="M11.3935 13.5081C11.3444 13.5707 11.3157 13.6093 11.2854 13.6459C10.9983 13.9883 10.706 14.3271 10.4257 14.6753C10.3228 14.8032 10.2519 14.7739 10.1454 14.6831C9.53984 14.1653 8.93118 13.6501 8.31886 13.1406C8.2082 13.0482 8.17479 12.9856 8.28284 12.8634C8.56577 12.5429 8.84296 12.2166 9.10866 11.882C9.22872 11.7306 9.30859 11.7933 9.41247 11.8883C9.51269 11.9796 9.6458 12.0418 9.49181 12.2051C9.30545 12.403 9.14676 12.6269 8.95884 12.8232C8.79441 12.9955 8.94579 13.0644 9.04915 13.1307C9.15355 13.1975 9.22976 13.4423 9.41142 13.2137C9.56855 13.0158 9.74498 12.8331 9.89741 12.6322C10.0284 12.4588 10.1083 12.5925 10.2007 12.664C10.2978 12.7397 10.422 12.8023 10.2769 12.9548C10.1161 13.1234 9.97989 13.3149 9.82172 13.4856C9.70844 13.6078 9.69017 13.6861 9.83686 13.8098C10.2268 14.1397 10.2195 14.1481 10.5426 13.767C10.6622 13.6261 10.7786 13.483 10.9018 13.3452C10.9482 13.293 10.9853 13.185 11.0803 13.2476C11.1904 13.3202 11.2849 13.4162 11.3935 13.5081Z" fill="black"/>
<path d="M15.6984 6.79609C15.7099 6.88379 15.6368 6.90936 15.5841 6.94643C15.3622 7.10407 15.1451 7.26903 14.9143 7.41258C14.6867 7.55404 14.8679 7.65844 14.9394 7.75658C15.0093 7.85263 15.0375 8.07083 15.251 7.90535C15.4504 7.75084 15.6702 7.62243 15.8696 7.46843C16.0377 7.33845 16.0868 7.47679 16.1536 7.57597C16.2188 7.67254 16.3405 7.76441 16.1552 7.87769C15.9401 8.00923 15.7422 8.16897 15.5303 8.30573C15.4134 8.38142 15.4087 8.44093 15.4854 8.55838C15.785 9.01723 15.7798 9.02088 16.2225 8.71342C16.342 8.63042 16.4736 8.55943 16.579 8.46129C16.7753 8.27807 16.8823 8.36054 16.9977 8.55421C17.0687 8.67323 17.0661 8.73117 16.9486 8.80999C16.578 9.05899 16.2115 9.31529 15.8498 9.57786C15.736 9.66034 15.6739 9.6499 15.5945 9.53558C15.1315 8.86376 14.6648 8.19402 14.1929 7.52846C14.1073 7.40788 14.1407 7.34994 14.2503 7.27634C14.5891 7.04874 14.9206 6.81123 15.2563 6.57893C15.4337 6.45626 15.6801 6.57893 15.6968 6.79713L15.6984 6.79609Z" fill="black"/>
<path d="M45.606 49.4889C45.5976 49.0948 45.8038 48.8306 46.1264 48.6411C46.4172 48.4704 46.7053 48.5117 46.9825 48.6751C47.0577 48.7194 47.1882 48.7675 47.0744 48.888C46.9956 48.9716 46.9883 49.1798 46.7836 49.0786C46.5529 48.9648 46.3478 49.0034 46.1807 49.1992C46.0163 49.3923 46.021 49.6126 46.1176 49.8292C46.2726 50.1764 46.5179 50.4525 46.8546 50.6295C47.2242 50.8242 47.5792 50.6498 47.6987 50.251C47.7514 50.0756 47.6674 49.9681 47.5552 49.872C47.4247 49.7603 47.362 49.9107 47.3015 49.9717C47.1663 50.109 47.0874 50.0902 46.9585 49.9498C46.8129 49.7911 46.8771 49.7196 47.0039 49.6095C47.515 49.1642 47.5124 49.1611 47.9352 49.6502C48.2881 50.0584 48.3069 50.1962 48.0673 50.6216C47.8444 51.0168 47.4382 51.2251 47.0212 51.1577C46.3478 51.0492 45.607 50.1764 45.6055 49.4889H45.606Z" fill="black"/>
<path d="M32.6975 56.5283C32.7016 56.8259 32.6531 57.1124 32.4949 57.3682C32.1091 57.9941 31.227 57.9732 30.8631 57.3113C30.5698 56.7784 30.5186 56.2 30.7143 55.6174C30.8428 55.2348 31.1064 54.9993 31.5245 54.9649C31.9395 54.931 32.2396 55.1168 32.4443 55.4618C32.6379 55.7886 32.6875 56.1551 32.6975 56.5283ZM32.2506 56.5006C32.2475 56.2459 32.2235 55.9938 32.1055 55.763C32.0016 55.56 31.844 55.4211 31.6002 55.4316C31.3449 55.4425 31.1935 55.5939 31.1105 55.8236C31.0182 56.0794 31.0385 56.344 31.0782 56.603C31.1513 57.0806 31.4102 57.3687 31.7218 57.3479C32.0569 57.3254 32.2579 57.0039 32.2506 56.5006Z" fill="black"/>
<path d="M5.36535 25.2295C5.42747 25.2358 5.53552 25.2117 5.50316 25.3151C5.46035 25.4519 5.54283 25.6434 5.34603 25.7181C5.31054 25.7317 5.27034 25.7338 5.23171 25.739C5.08138 25.7609 4.86161 25.7071 4.80367 25.8486C4.71023 26.0757 4.66638 26.3382 4.66951 26.5851C4.6716 26.7548 4.90181 26.7543 5.02918 26.8305C5.13671 26.8947 5.25364 26.9229 5.22023 27.1025C5.1602 27.4277 5.16803 27.4308 4.87049 27.2815C4.15116 26.9208 3.43184 26.5606 2.71094 26.203C2.60706 26.1514 2.51624 26.0924 2.56374 25.9629C2.60863 25.8402 2.53555 25.6466 2.74748 25.6147C3.62028 25.4848 4.49308 25.3574 5.36639 25.2295H5.36535ZM3.37076 25.9812C3.37233 26.0005 3.37441 26.0198 3.37598 26.0386C3.59261 26.1425 3.8082 26.2474 4.02588 26.3497C4.07286 26.3716 4.14229 26.4317 4.17413 26.3607C4.23312 26.2291 4.28636 26.0757 4.24251 25.9399C4.19762 25.8006 4.06346 25.9018 3.97159 25.9091C3.77062 25.9248 3.57121 25.9561 3.37076 25.9812Z" fill="black"/>
<path d="M31.6954 5.08208C31.5607 5.11132 31.498 5.00065 31.4578 4.82056C31.4281 4.68745 31.4511 4.47081 31.3002 4.44315C31.047 4.39669 30.7771 4.404 30.5198 4.43584C30.4117 4.44941 30.4018 4.6295 30.3835 4.73651C30.3381 5.00796 30.1732 5.03562 29.9451 5.01213C29.8125 4.99856 29.8052 4.94584 29.8401 4.84561C30.1293 4.02241 30.4217 3.20025 30.7035 2.37443C30.7604 2.20791 30.8763 2.25072 30.9859 2.25542C31.1055 2.26064 31.237 2.22932 31.2856 2.4068C31.5132 3.23888 31.7496 4.06887 31.983 4.8999C32.0487 5.13428 31.8728 5.0612 31.6943 5.08208H31.6954ZM30.9672 2.97213C30.8669 3.26289 30.7844 3.48892 30.7135 3.71808C30.6973 3.77132 30.6278 3.86424 30.7197 3.89139C30.857 3.93158 31.0094 3.94881 31.1472 3.89974C31.225 3.87207 31.1864 3.77811 31.1707 3.71756C31.1138 3.49257 31.0491 3.2702 30.9666 2.97213H30.9672Z" fill="black"/>
<path d="M22.3347 4.85004C22.3535 4.42252 22.3817 3.995 22.3864 3.56747C22.3885 3.37903 22.4777 3.32108 22.6396 3.28141C22.7998 3.24226 22.9021 3.25009 23.0008 3.41139C23.4262 4.10827 23.8699 4.79419 24.299 5.48846C24.3387 5.55266 24.4895 5.65498 24.345 5.71971C24.2212 5.77504 24.0704 5.89145 23.9148 5.76512C23.9002 5.75312 23.8924 5.73328 23.8809 5.71814C23.7754 5.5819 23.7405 5.32455 23.5813 5.31567C23.3495 5.30262 23.1125 5.41538 22.8755 5.46445C22.7701 5.48637 22.7633 5.55266 22.7622 5.63462C22.7612 5.75155 22.7586 5.86796 22.757 5.98489C22.7534 6.25737 22.5184 6.21718 22.3723 6.22814C22.1927 6.24171 22.2903 6.07415 22.2888 5.98645C22.282 5.60748 22.2862 5.2285 22.2862 4.84952C22.3023 4.84952 22.3185 4.84952 22.3347 4.84952V4.85004ZM22.8745 4.07591C22.8562 4.08217 22.8379 4.08791 22.8196 4.09418C22.8113 4.27636 22.8035 4.45854 22.7941 4.64072C22.7763 4.98837 22.7737 4.9795 23.1088 4.89911C23.2931 4.85526 23.3296 4.79262 23.2185 4.63237C23.0942 4.45332 22.9883 4.26174 22.8745 4.07591Z" fill="black"/>
<path d="M6.69121 40.2451C6.88435 40.2425 7.10725 40.0958 7.21113 40.4242C7.27481 40.6267 7.23201 40.6706 7.04409 40.6867C6.3566 40.7457 5.67017 40.8136 4.98373 40.8778C4.88716 40.8867 4.79006 40.8935 4.69349 40.9049C4.53323 40.9243 4.38655 40.9801 4.29259 40.751C4.20698 40.5416 4.23621 40.4315 4.40847 40.2905C5.02496 39.7852 5.62527 39.2596 6.23707 38.7485C6.29292 38.7021 6.36652 38.5366 6.45526 38.6755C6.52991 38.7929 6.64945 38.9297 6.5581 39.0993C6.54975 39.1155 6.52887 39.1244 6.51477 39.1374C6.39001 39.2564 6.14728 39.3384 6.15668 39.4898C6.17025 39.7101 6.31641 39.9199 6.3968 40.1381C6.45631 40.2999 6.58472 40.2352 6.69173 40.2441L6.69121 40.2451ZM5.02079 40.372C5.05837 40.3976 5.07299 40.4163 5.08604 40.4153C5.24055 40.4012 5.39455 40.3824 5.54906 40.3678C5.93848 40.3307 5.97241 40.2582 5.77665 39.9293C5.72028 39.8343 5.68008 39.827 5.60178 39.8928C5.41177 40.0525 5.21863 40.2091 5.02131 40.372H5.02079Z" fill="black"/>
<path d="M5.25617 33.9361C5.3945 34.3871 5.40129 34.4017 5.01344 34.5901C4.82029 34.6841 4.78741 34.8016 4.83856 34.9822C4.85683 35.0474 4.87771 35.1148 4.88085 35.1816C4.89233 35.4609 5.003 35.619 5.31307 35.6081C5.41329 35.6044 5.56729 35.5668 5.6221 35.7057C5.66386 35.8116 5.71031 35.9489 5.67586 36.0429C5.6341 36.1551 5.48533 36.0904 5.38876 36.081C4.60523 36.0043 3.82274 35.914 3.03868 35.8393C2.85076 35.8216 2.77611 35.7354 2.73957 35.5595C2.70095 35.3737 2.76359 35.2828 2.92645 35.1962C3.62124 34.825 4.30768 34.4393 4.99778 34.0598C5.08077 34.0138 5.16899 33.9773 5.25669 33.9355L5.25617 33.9361ZM3.45577 35.428C3.74287 35.4582 3.93497 35.4864 4.12811 35.4948C4.22416 35.499 4.38024 35.5752 4.40686 35.4525C4.43505 35.3225 4.37659 35.1696 4.339 35.0307C4.32282 34.9702 4.26018 35.0015 4.21738 35.0239C3.98926 35.1445 3.76114 35.2656 3.45577 35.4274V35.428Z" fill="black"/>
<path d="M51.608 42.4648C52.212 43.1539 52.8118 43.8429 53.4183 44.5257C53.5144 44.6338 53.482 44.7147 53.4147 44.8071C53.3395 44.9104 53.3103 45.0728 53.1197 45.0253C52.272 44.8134 51.4232 44.6035 50.575 44.3931C50.5087 44.377 50.4137 44.3603 50.4706 44.2705C50.5473 44.1488 50.563 43.962 50.7582 43.9468C50.7947 43.9442 50.8323 43.9708 50.8704 43.9755C51.0218 43.9954 51.2149 44.1452 51.3079 44.0502C51.4869 43.8675 51.608 43.6221 51.7281 43.3904C51.7803 43.2896 51.6492 43.2254 51.5897 43.157C51.2985 42.8224 51.2958 42.8245 51.608 42.4654V42.4648ZM52.7836 44.4725C52.6019 44.2715 52.4782 44.1363 52.356 44.0001C52.0992 43.7145 52.0543 43.7255 51.8899 44.0841C51.8455 44.1802 51.856 44.2313 51.9536 44.2574C52.2021 44.3242 52.4516 44.3864 52.7841 44.472L52.7836 44.4725Z" fill="black"/>
<path d="M4.63074 20.3276C5.32815 20.3647 6.02607 20.3986 6.72347 20.4419C6.80751 20.4471 6.98604 20.3798 6.95159 20.5495C6.92392 20.6852 6.92236 20.9571 6.70207 20.9055C6.19311 20.7854 6.0506 21.0715 5.93159 21.4677C5.87678 21.6499 5.8893 21.7563 6.05321 21.8498C6.13673 21.8973 6.21712 21.9573 6.28342 22.0267C6.44315 22.1927 6.29125 22.3467 6.21973 22.4684C6.14143 22.6009 6.05791 22.4396 5.9984 22.3942C5.35164 21.8983 4.71479 21.3888 4.06541 20.8966C3.91768 20.7844 3.91403 20.6847 3.97354 20.5317C4.032 20.3814 4.08838 20.2723 4.28257 20.3104C4.3948 20.3323 4.51486 20.3146 4.63127 20.3146C4.63127 20.3193 4.63127 20.324 4.63127 20.3287L4.63074 20.3276ZM4.76125 20.7875C4.75028 20.8063 4.7388 20.8251 4.72784 20.8439C4.86356 20.9472 4.99928 21.0506 5.13553 21.1529C5.46648 21.4019 5.49153 21.3899 5.59855 20.9916C5.63091 20.8715 5.60585 20.8407 5.48684 20.836C5.24463 20.8266 5.00346 20.8042 4.76177 20.787L4.76125 20.7875Z" fill="black"/>
<path d="M9.37145 44.2596C9.38294 44.3572 9.3015 44.3614 9.242 44.3786C8.41357 44.6203 7.58254 44.8531 6.75776 45.1047C6.57036 45.1621 6.54165 45.0332 6.47379 44.9387C6.40332 44.8406 6.31458 44.7545 6.43255 44.6109C6.98223 43.9438 7.52042 43.2662 8.06591 42.5954C8.10402 42.549 8.1557 42.42 8.23348 42.5427C8.30917 42.6623 8.47778 42.7526 8.40104 42.9379C8.39008 42.964 8.36398 42.9828 8.34832 43.0073C8.25958 43.1425 8.0372 43.2573 8.08314 43.3962C8.15988 43.628 8.31596 43.8472 8.48195 44.032C8.6182 44.1834 8.78263 44.0023 8.93297 43.9735C9.11776 43.938 9.3511 44.0759 9.37145 44.2591V44.2596ZM7.14405 44.4637C7.15606 44.4815 7.16806 44.4987 7.18007 44.5164C7.38 44.4559 7.57679 44.3812 7.7809 44.3389C8.0038 44.2925 7.99753 44.2194 7.89156 44.0372C7.74958 43.7924 7.65301 43.8002 7.50424 44.0205C7.39775 44.1776 7.26516 44.317 7.14457 44.4647L7.14405 44.4637Z" fill="black"/>
<path d="M48.3768 12.8437C48.2572 12.8546 48.0176 12.5075 48.0923 12.4172C48.4029 12.0424 48.2275 11.8002 47.9221 11.534C47.7493 11.3831 47.636 11.3633 47.4502 11.4807C47.3468 11.546 47.2398 11.6958 47.0952 11.6065C46.9924 11.5434 46.8734 11.439 46.8499 11.3335C46.8264 11.227 46.9945 11.2025 47.0832 11.1545C47.7744 10.7797 48.4723 10.4174 49.1598 10.0363C49.3357 9.93871 49.4302 9.99091 49.5581 10.1115C49.688 10.2342 49.6953 10.3297 49.6139 10.4853C49.2355 11.2072 48.8716 11.937 48.4994 12.6631C48.466 12.7283 48.4535 12.8124 48.3773 12.8437H48.3768ZM48.5762 11.4792C48.7176 11.214 48.8565 10.953 48.9953 10.692C48.8283 10.7222 48.7098 10.7859 48.5929 10.8522C48.2873 11.0245 48.2819 11.2333 48.5767 11.4786L48.5762 11.4792Z" fill="black"/>
<path d="M54.1184 21.5378C53.6768 21.5346 53.4163 21.305 53.2926 20.8623C53.1814 20.4635 53.2988 20.1325 53.6397 19.9326C53.9769 19.7348 54.3549 19.634 54.7198 19.5025C54.9661 19.4137 55.2157 19.3339 55.4615 19.2425C55.6077 19.1882 55.7173 19.136 55.7873 19.3589C55.8494 19.5562 55.8196 19.6246 55.6213 19.6878C55.1311 19.8428 54.6498 20.0245 54.1664 20.1999C54.0093 20.2568 53.8511 20.3272 53.7948 20.5011C53.7441 20.6577 53.7744 20.8106 53.8887 20.9364C54.0218 21.0836 54.1946 21.0586 54.3507 21.0079C54.8675 20.8398 55.3837 20.6692 55.8911 20.475C56.1067 20.3925 56.1866 20.452 56.2393 20.654C56.2706 20.773 56.2832 20.8477 56.1386 20.8952C55.5487 21.0883 54.9625 21.2924 54.3731 21.4877C54.2729 21.5205 54.1649 21.5289 54.1184 21.5378Z" fill="black"/>
<path d="M40.1746 5.55065C40.1746 5.95834 40.1798 6.36603 40.1699 6.77319C40.1683 6.84941 40.2471 7.01227 40.0911 6.99557C39.9485 6.97991 39.7455 6.99087 39.7042 6.76954C39.7006 6.75075 39.7063 6.73039 39.7042 6.7116C39.686 6.54247 39.805 6.31696 39.6567 6.21569C39.4631 6.0831 39.2157 6.0095 38.9807 5.96304C38.7939 5.92598 38.7688 6.15357 38.6675 6.25849C38.5851 6.34358 38.5543 6.47304 38.3747 6.41353C38.0516 6.30704 38.0422 6.30704 38.2463 6.03299C38.7218 5.39457 39.2047 4.76138 39.6693 4.11513C39.782 3.95801 39.8833 3.96793 40.0352 4.02274C40.1871 4.07755 40.2711 4.13601 40.2607 4.32811C40.2388 4.73476 40.2539 5.14349 40.2539 5.55117C40.2273 5.55117 40.2007 5.55117 40.1741 5.55117L40.1746 5.55065ZM39.7648 4.7358C39.5957 4.96862 39.485 5.13931 39.355 5.29435C39.2203 5.4546 39.2277 5.52664 39.4432 5.6039C39.6855 5.69107 39.7805 5.65297 39.7669 5.38779C39.757 5.19882 39.7648 5.00881 39.7648 4.7358Z" fill="black"/>
<path d="M29.1836 56.2735C29.4092 55.9796 29.6247 55.74 29.7907 55.4701C29.9807 55.1606 30.2209 55.0509 30.6119 55.1726C30.4072 55.4283 30.2256 55.6873 30.0105 55.9149C29.8268 56.109 29.8168 56.2745 29.9416 56.5063C30.13 56.856 30.2872 57.224 30.4422 57.5905C30.4798 57.6792 30.6233 57.7821 30.4918 57.887C30.3879 57.9695 30.0345 57.863 29.987 57.7497C29.8513 57.4276 29.7182 57.1045 29.5898 56.7788C29.5297 56.6274 29.4995 56.5825 29.3465 56.7281C29.0819 56.9792 29.1173 57.2888 29.1027 57.5926C29.0949 57.7602 29.0719 57.8583 28.859 57.8478C28.6376 57.8374 28.6695 57.708 28.6742 57.5733C28.7008 56.8247 28.73 56.0767 28.7525 55.3281C28.7577 55.159 28.789 55.0692 28.9978 55.0734C29.2244 55.0776 29.1857 55.2075 29.1852 55.3412C29.1836 55.6298 29.1852 55.9185 29.1852 56.275L29.1836 56.2735Z" fill="black"/>
<path d="M57.6542 27.0794C57.7226 27.6928 57.3149 27.8937 56.8008 27.9475C56.3143 27.9981 55.9911 27.7371 55.9097 27.2391C55.8627 26.9517 55.6925 26.8214 55.3992 26.8482C55.2927 26.8581 55.1846 26.856 55.0808 26.8774C54.9148 26.9118 54.8062 26.9066 54.7879 26.6884C54.7712 26.489 54.8281 26.418 55.0301 26.3997C55.7735 26.3319 56.5157 26.2525 57.257 26.1648C57.4872 26.1377 57.5963 26.1868 57.5911 26.4436C57.5869 26.655 57.6313 26.8675 57.6542 27.0799V27.0794ZM57.1453 27.0141C57.0941 26.8941 57.2236 26.6023 56.8926 26.69C56.7115 26.738 56.3915 26.5673 56.3743 26.9097C56.3544 27.3023 56.5053 27.461 56.7841 27.4542C57.0425 27.4479 57.1552 27.3174 57.1453 27.0141Z" fill="black"/>
<path d="M12.7218 50.1793C12.7224 50.5593 12.4259 50.9467 12.0537 51.074C11.7431 51.1805 11.3923 51.0469 11.1344 50.7243C10.9126 50.4461 10.9079 50.0979 11.1235 49.746C11.1715 49.6683 11.2096 49.5445 11.3333 49.6536C11.4205 49.7304 11.6178 49.7434 11.503 49.9501C11.3631 50.2012 11.4132 50.4173 11.6616 50.5776C11.824 50.6825 11.9754 50.6569 12.1168 50.5384C12.2625 50.4168 12.2531 50.2722 12.1722 50.1188C12.0725 49.9298 11.955 49.7481 11.8783 49.5503C11.7457 49.211 11.895 48.8273 12.2176 48.6107C12.5292 48.4013 12.8638 48.4436 13.1702 48.7297C13.4495 48.9907 13.5158 49.3347 13.3357 49.6536C13.2955 49.7246 13.2673 49.8823 13.1394 49.7935C13.0397 49.7246 12.8356 49.6954 12.9296 49.4782C13.0377 49.2298 12.9181 49.0669 12.7041 48.9557C12.6039 48.9035 12.4953 48.8999 12.4039 48.9813C12.3048 49.0695 12.2834 49.1781 12.3444 49.2976C12.4201 49.4443 12.4995 49.5894 12.5772 49.7351C12.655 49.8818 12.7291 50.0295 12.7224 50.1803L12.7218 50.1793Z" fill="black"/>
<path d="M7.7922 14.0093C8.14351 14.0479 8.45306 14.2286 8.66552 14.559C8.8644 14.8685 8.75165 15.1515 8.57312 15.4276C8.36954 15.7429 8.37319 15.7445 8.69371 15.958C8.79863 16.0279 8.89572 16.1161 9.009 16.1673C9.24703 16.2738 9.18961 16.4017 9.07425 16.5661C8.99386 16.6804 8.93487 16.6924 8.81899 16.6131C8.15291 16.1574 7.48369 15.7064 6.80978 15.2616C6.68241 15.1776 6.66206 15.1123 6.75445 14.9881C6.92776 14.7537 7.08593 14.5083 7.25401 14.2698C7.37407 14.0991 7.54216 14.0145 7.7922 14.0088V14.0093ZM8.23382 14.9578C8.23591 14.738 8.02919 14.5345 7.83657 14.5313C7.69406 14.5292 7.36938 14.843 7.35685 14.9949C7.35215 15.0518 7.89138 15.4678 7.93784 15.4302C8.09601 15.3008 8.20093 15.1311 8.23434 14.9578H8.23382Z" fill="black"/>
<path d="M14.4635 53.2161C14.3252 53.1681 14.2015 53.1049 14.1393 53.0031C14.0809 52.9076 14.2161 52.8648 14.2766 52.8147C14.8999 52.3005 15.5305 51.7957 16.1491 51.2769C16.2832 51.1646 16.3699 51.1813 16.5009 51.2716C16.6288 51.3593 16.6862 51.4303 16.6335 51.5979C16.3887 52.3767 16.1606 53.1603 15.9183 53.9401C15.8969 54.0085 15.9157 54.1891 15.7722 54.1129C15.6605 54.0534 15.4397 54.0341 15.5049 53.8023C15.5075 53.7929 15.5122 53.7841 15.5138 53.7747C15.5378 53.6055 15.7184 53.4181 15.6041 53.284C15.4517 53.1055 15.2178 52.9948 15.0158 52.8601C14.913 52.7917 14.8561 52.8899 14.7919 52.94C14.6775 53.0292 14.57 53.1263 14.4635 53.2172V53.2161ZM16.1031 51.9074C16.0896 51.8934 16.076 51.8798 16.0624 51.8657C15.8484 52.0468 15.6339 52.2269 15.4204 52.4086C15.376 52.4462 15.3196 52.4958 15.3906 52.5464C15.5159 52.6356 15.6443 52.7599 15.7831 52.7771C15.8761 52.7886 15.8802 52.5897 15.9194 52.4848C15.9899 52.2958 16.0431 52.1001 16.1037 51.9069L16.1031 51.9074Z" fill="black"/>
<path d="M45.0969 52.9942C44.7498 53.2761 44.7419 53.285 44.4397 53.0083C44.2841 52.8658 44.1552 52.8361 43.9955 52.9828C43.9459 53.0282 43.8869 53.0689 43.8253 53.0934C43.5288 53.2114 43.4818 53.4056 43.6149 53.6828C43.6687 53.795 43.735 53.9166 43.5606 54.0309C43.3706 54.1552 43.2991 54.1484 43.2354 53.9161C43.0204 53.1305 42.7943 52.348 42.5552 51.5697C42.502 51.3969 42.5881 51.3473 42.6972 51.2763C42.8058 51.2053 42.8878 51.1442 43.024 51.2601C43.7026 51.8401 44.3922 52.407 45.0969 52.9948V52.9942ZM43.0945 51.8589C43.0981 52.1126 43.1931 52.2937 43.2495 52.4832C43.3664 52.8747 43.3685 52.8705 43.7047 52.6288C43.7981 52.562 43.8597 52.515 43.7402 52.4159C43.533 52.2436 43.3315 52.0645 43.094 51.8594L43.0945 51.8589Z" fill="black"/>
<path d="M40.0382 55.2343C40.0523 55.3329 40.0648 55.429 40.08 55.525C40.1076 55.7036 39.961 55.8884 39.7871 55.8842C39.6524 55.8811 39.6853 55.7584 39.6749 55.689C39.5851 55.1142 39.5058 54.5374 39.4228 53.9616C39.3909 53.7408 39.3638 53.5195 39.3241 53.2997C39.298 53.1551 39.2933 53.0486 39.464 52.975C39.6232 52.9067 39.7276 52.8832 39.8607 53.0351C40.3921 53.6406 40.9408 54.231 41.4769 54.8329C41.527 54.8892 41.6935 54.9597 41.5635 55.0469C41.4575 55.1179 41.325 55.2818 41.1563 55.1288C41.149 55.1226 41.1433 55.1142 41.1365 55.108C41.0128 54.9889 40.9235 54.7446 40.7727 54.7634C40.543 54.7921 40.329 54.9435 40.1082 55.0432C40.0194 55.0834 40.009 55.1539 40.0393 55.2348L40.0382 55.2343ZM39.8284 53.6208C39.8117 53.627 39.7944 53.6333 39.7777 53.6396C39.8033 53.8009 39.8258 53.9622 39.8555 54.1224C39.923 54.492 40.1228 54.564 40.4548 54.3385C40.2449 54.0979 40.0366 53.8593 39.8284 53.6208Z" fill="black"/>
<path d="M19.7313 55.6419C19.8174 55.4211 19.6817 55.2969 19.4384 55.2327C19.3455 55.2081 19.2521 55.1716 19.1691 55.1231C19.0088 55.0291 18.8997 55.0719 18.8058 55.2207C18.7489 55.311 18.6847 55.3987 18.6095 55.4738C18.4612 55.6226 18.3323 55.4681 18.2232 55.4107C18.088 55.3397 18.2383 55.2635 18.2796 55.2113C18.7797 54.5781 19.2918 53.9538 19.7877 53.3169C19.9056 53.1655 20.0038 53.1509 20.1781 53.2136C20.3671 53.2819 20.3666 53.4004 20.3525 53.5529C20.2804 54.3369 20.2141 55.1215 20.1369 55.905C20.1285 55.9875 20.2068 56.1639 20.0419 56.1384C19.8989 56.1159 19.6582 56.1128 19.713 55.8361C19.7224 55.7886 19.7224 55.7395 19.7308 55.6409L19.7313 55.6419ZM19.2516 54.6532C19.4019 54.7169 19.5267 54.7676 19.6493 54.8229C19.7391 54.8636 19.8002 54.8532 19.8122 54.7436C19.8425 54.4643 19.8712 54.185 19.8999 53.9057C19.8811 53.9 19.8618 53.8942 19.843 53.8885C19.6504 54.1375 19.4578 54.3865 19.2516 54.6527V54.6532Z" fill="black"/>
<path d="M34.5669 56.8821C34.6108 56.1837 34.6604 55.4857 34.6943 54.7868C34.7032 54.6072 34.7737 54.5378 34.9417 54.4944C35.1208 54.448 35.1991 54.5117 35.2826 54.6589C35.6814 55.3594 36.0928 56.0532 36.4937 56.7521C36.5281 56.8122 36.6571 56.9051 36.5339 56.9609C36.418 57.0137 36.2755 57.1102 36.1345 56.9949C36.1131 56.9776 36.1058 56.9442 36.0876 56.9218C35.9821 56.7881 35.9675 56.5287 35.7921 56.5214C35.5577 56.512 35.3155 56.6008 35.0837 56.6707C34.936 56.7156 35.0007 56.868 34.9814 56.9755C34.959 57.0961 35.0326 57.2527 34.9235 57.3321C34.8389 57.3937 34.6928 57.4245 34.5925 57.3979C34.4704 57.3655 34.5581 57.2319 34.5544 57.1436C34.5508 57.0565 34.5638 56.9693 34.5696 56.8816C34.569 56.8816 34.568 56.8816 34.5675 56.8816L34.5669 56.8821ZM35.1323 55.2305L35.0691 55.2441C35.0571 55.5202 34.9929 55.8068 35.0467 56.0688C35.1046 56.3528 35.316 56.0777 35.4585 56.1001C35.5415 56.1132 35.5943 56.0464 35.5363 55.9462C35.399 55.7092 35.267 55.469 35.1323 55.23V55.2305Z" fill="black"/>
<path d="M24.3308 57.358C23.7039 57.3616 23.351 56.9544 23.4502 56.3416C23.5467 55.746 23.7273 55.1697 23.8594 54.5824C23.896 54.4206 23.9461 54.3851 24.1115 54.4253C24.2786 54.4655 24.3141 54.536 24.276 54.6889C24.1502 55.188 24.0301 55.6886 23.909 56.1892C23.8907 56.2644 23.8745 56.3416 23.8698 56.4183C23.8542 56.6736 23.9831 56.825 24.2274 56.872C24.4639 56.9174 24.6022 56.7843 24.6602 56.576C24.8116 56.0336 24.9567 55.4892 25.0887 54.9416C25.1295 54.7714 25.1676 54.6863 25.3722 54.7344C25.5763 54.7824 25.5465 54.8883 25.5079 55.0303C25.3508 55.6113 25.2125 56.1981 25.0397 56.7749C24.9201 57.1737 24.6685 57.3569 24.3308 57.3585V57.358Z" fill="black"/>
<path d="M5.81582 43.7837C5.62059 43.5005 5.61189 43.2349 5.78972 42.9872C5.9244 42.7987 6.05751 42.6097 6.22873 42.3681C5.87428 42.3884 5.57204 42.403 5.27032 42.4234C5.08344 42.4359 4.84906 42.2391 4.84384 42.0543C4.84019 41.9243 4.94668 41.9588 5.01193 41.9562C5.44885 41.9364 5.88577 41.9092 6.32269 41.9108C6.74447 41.9123 7.05402 41.6597 7.37662 41.4598C7.64232 41.2948 7.70496 41.4404 7.7984 41.6216C7.84277 41.7077 7.83599 41.7771 7.74255 41.8074C6.79615 42.1138 6.40412 42.9637 5.88838 43.6924C5.8722 43.7154 5.85288 43.7368 5.81582 43.7832V43.7837Z" fill="black"/>
<path d="M8.54808 46.1524C8.24062 46.2114 7.93838 46.2699 7.63561 46.3273C7.47066 46.3586 7.19138 46.1535 7.17833 45.9969C7.1705 45.9024 7.24098 45.9181 7.29265 45.9087C7.50302 45.8706 7.71235 45.8157 7.9248 45.8001C8.57314 45.7526 9.16144 45.5683 9.63751 45.1037C9.78837 44.9565 9.89799 44.955 10.0217 45.1507C10.1115 45.2927 10.1073 45.3752 9.96376 45.4503C9.317 45.7891 8.95159 46.3586 8.67754 47.007C8.59454 47.2027 8.48544 47.3875 8.3873 47.5791C8.03286 47.3123 8.01563 47.2382 8.20825 46.878C8.3231 46.6635 8.43533 46.4479 8.54704 46.2323C8.55434 46.2177 8.54808 46.1958 8.54808 46.1519V46.1524Z" fill="black"/>
<path d="M49.201 13.7779C49.0611 13.7414 49.0079 13.6166 48.9265 13.5263C48.8429 13.4345 48.9437 13.3906 48.9964 13.3441C49.4469 12.9453 49.8906 12.5382 50.3552 12.1561C50.5577 11.9895 50.5802 11.8747 50.3865 11.6894C50.2957 11.6022 50.0717 11.5135 50.3035 11.3088C50.4831 11.1507 50.5797 11.147 50.7316 11.3386C50.9967 11.6727 51.2812 11.9927 51.5762 12.3012C51.7265 12.4583 51.6263 12.5236 51.5208 12.6191C51.4128 12.7167 51.3381 12.7955 51.1982 12.6342C50.9033 12.2939 50.8923 12.3027 50.5624 12.5919C50.161 12.9438 49.7606 13.2966 49.3592 13.6485C49.3086 13.6928 49.2548 13.7341 49.2016 13.7779H49.201Z" fill="black"/>
<path d="M37.8501 5.82582C37.837 6.1218 37.7347 6.19645 37.456 6.10875C37.1141 6.00122 36.7753 5.88377 36.4308 5.78719C36.2663 5.74126 36.2428 5.67079 36.2929 5.51627C36.5362 4.77033 36.7768 4.02333 36.9997 3.27164C37.0582 3.07432 37.1469 3.09938 37.2936 3.14219C37.4544 3.18969 37.5123 3.24606 37.4508 3.42825C37.2555 4.00611 37.0916 4.59493 36.8922 5.17123C36.8249 5.36646 36.8839 5.4244 37.0551 5.46929C37.2795 5.52828 37.5009 5.60188 37.7212 5.67549C37.7885 5.69793 37.8861 5.70837 37.8496 5.82582H37.8501Z" fill="black"/>
<path d="M34.3894 54.9664C34.4306 55.1788 34.2714 55.136 34.1701 55.1538C33.7729 55.2232 33.7781 55.2206 33.8319 55.6184C33.9044 56.1565 33.9697 56.6963 34.0344 57.2355C34.0501 57.3671 34.0887 57.5018 33.871 57.5305C33.6664 57.5571 33.6304 57.4699 33.6116 57.2982C33.55 56.7391 33.4586 56.1826 33.4116 55.6225C33.3882 55.3438 33.3245 55.2091 33.017 55.2994C32.8484 55.349 32.6923 55.3443 32.6934 55.0828C32.6939 54.923 32.7283 54.8604 32.8943 54.8458C33.29 54.8098 33.6878 54.7722 34.0777 54.6986C34.3419 54.6485 34.4134 54.744 34.3894 54.9664Z" fill="black"/>
<path d="M18.0101 55.2932C17.9569 55.2676 17.913 55.2473 17.8697 55.2253C17.5586 55.0661 17.2532 54.8933 16.9338 54.7529C16.7333 54.6647 16.7396 54.5718 16.8294 54.4016C17.1775 53.7397 17.5148 53.0726 17.8504 52.4044C17.9188 52.2687 17.9637 52.1862 18.149 52.2729C18.3536 52.3684 18.3014 52.4639 18.2262 52.6075C17.9475 53.141 17.6828 53.6818 17.4015 54.2142C17.3211 54.3666 17.3237 54.4491 17.497 54.5227C17.7199 54.6172 17.9292 54.743 18.1474 54.849C18.2409 54.8944 18.255 54.9549 18.1996 55.0311C18.1359 55.1188 18.1406 55.2603 18.0101 55.2932Z" fill="black"/>
<path d="M41.959 54.8946C41.864 54.9113 41.8494 54.8304 41.8206 54.7745C41.4573 54.0651 41.0998 53.3531 40.7317 52.6463C40.6571 52.5033 40.7009 52.4479 40.8288 52.3858C40.9562 52.3237 41.0371 52.2845 41.1201 52.4568C41.3775 52.9903 41.6698 53.5076 41.9177 54.0458C42.0341 54.2974 42.149 54.3193 42.3651 54.1794C42.5358 54.0693 42.7305 53.9978 42.908 53.8976C43.0495 53.8177 43.0829 53.9216 43.1137 54.0098C43.1455 54.1022 43.3073 54.205 43.1283 54.2995C42.7592 54.4952 42.3844 54.6806 42.0122 54.8701C41.995 54.8789 41.9772 54.8862 41.959 54.8946Z" fill="black"/>
<path d="M54.2849 35.9859C54.525 36.0459 54.7317 36.0991 54.9389 36.1487C55.5325 36.2912 56.1255 36.4369 56.7211 36.5716C56.9064 36.6133 56.9398 36.6916 56.8918 36.8733C56.8458 37.045 56.7942 37.0837 56.6151 37.0377C55.8545 36.8435 55.0887 36.6687 54.3256 36.4854C54.2217 36.4604 54.0995 36.439 54.1507 36.2845C54.1862 36.178 54.1627 36.0323 54.2854 35.9854L54.2849 35.9859Z" fill="black"/>
<path d="M55.6437 40.5087C55.6578 40.7243 55.4636 40.8767 55.27 40.7979C54.5506 40.5046 53.8355 40.2023 53.112 39.9199C52.9183 39.8442 52.9251 39.7591 52.9909 39.5968C53.0582 39.4297 53.1308 39.4068 53.2952 39.4762C54.0192 39.7826 54.75 40.0734 55.4772 40.3735C55.5425 40.4007 55.638 40.4033 55.6442 40.5082L55.6437 40.5087Z" fill="black"/>
<path d="M52.8145 19.4592C52.6741 19.4211 52.6762 19.2718 52.612 19.1752C52.5472 19.0786 52.6146 19.0369 52.6898 19.0009C53.442 18.6396 54.1957 18.281 54.9464 17.9167C55.1541 17.8159 55.1327 18.0132 55.1949 18.0968C55.2836 18.2158 55.257 18.2967 55.114 18.364C54.403 18.6986 53.6957 19.0421 52.9868 19.3819C52.9346 19.407 52.8808 19.43 52.8145 19.4597V19.4592Z" fill="black"/>
<path d="M29.988 53.3649C17.1075 53.3889 6.64126 42.8564 6.65431 29.9915C6.66788 17.1126 17.167 6.64269 30.0345 6.65626C42.9192 6.66984 53.3818 17.1763 53.3682 30.038C53.3546 42.919 42.8529 53.4161 29.988 53.3649ZM30.0084 53.1801C42.7866 53.1812 53.1542 42.8266 53.1787 30.0693C53.2038 17.2567 42.8184 6.84836 30.0256 6.84732C17.227 6.84627 6.85267 17.2029 6.84693 29.9936C6.84119 42.8052 17.2035 53.1786 30.0084 53.1796V53.1801Z" fill="black"/>
</g>
<defs>
<clipPath id="clip0_1183_4843">
<rect width="60.0219" height="60" fill="white"/>
</clipPath>
</defs>
</svg>
