<svg width="12" height="12" viewBox="0 0 12 12" fill="none" xmlns="http://www.w3.org/2000/svg">
<path d="M11.8805 3.60039C11.8805 3.60039 11.7633 2.77305 11.4023 2.40977C10.9453 1.93164 10.4344 1.9293 10.2 1.90117C8.52188 1.7793 6.00234 1.7793 6.00234 1.7793H5.99766C5.99766 1.7793 3.47812 1.7793 1.8 1.90117C1.56563 1.9293 1.05469 1.93164 0.597656 2.40977C0.236719 2.77305 0.121875 3.60039 0.121875 3.60039C0.121875 3.60039 0 4.57305 0 5.54336V6.45273C0 7.42305 0.119531 8.3957 0.119531 8.3957C0.119531 8.3957 0.236719 9.22305 0.595312 9.58633C1.05234 10.0645 1.65234 10.048 1.91953 10.0996C2.88047 10.191 6 10.2191 6 10.2191C6 10.2191 8.52188 10.2145 10.2 10.0949C10.4344 10.0668 10.9453 10.0645 11.4023 9.58633C11.7633 9.22305 11.8805 8.3957 11.8805 8.3957C11.8805 8.3957 12 7.42539 12 6.45273V5.54336C12 4.57305 11.8805 3.60039 11.8805 3.60039ZM4.76016 7.55664V4.18398L8.00156 5.87617L4.76016 7.55664Z" fill="black"/>
</svg>
