<svg width="20" height="20" viewBox="0 0 20 20" fill="none" xmlns="http://www.w3.org/2000/svg">
<path d="M18.3153 9.50805C18.0319 4.67472 13.6403 0.949724 8.58194 1.78306C5.09861 2.35806 2.30695 5.18304 1.76528 8.66637C1.44862 10.683 1.8653 12.5914 2.77363 14.1664L2.03196 16.9247C1.86529 17.5497 2.44027 18.1164 3.05694 17.9414L5.77361 17.1914C7.00695 17.9164 8.44861 18.333 9.99028 18.333C14.6903 18.333 18.5903 14.1914 18.3153 9.50805ZM14.0653 13.0997C13.9903 13.2497 13.8986 13.3914 13.7819 13.5247C13.5736 13.7497 13.3486 13.9164 13.0986 14.0164C12.8486 14.1247 12.5736 14.1747 12.2819 14.1747C11.8569 14.1747 11.3986 14.0747 10.9236 13.8664C10.4403 13.6581 9.9653 13.383 9.4903 13.0414C9.00697 12.6914 8.55695 12.2997 8.12362 11.8747C7.69029 11.4414 7.30693 10.983 6.95693 10.508C6.61527 10.033 6.34028 9.55804 6.14028 9.08304C5.94028 8.60804 5.84029 8.14972 5.84029 7.71639C5.84029 7.43305 5.89029 7.15805 5.99029 6.90805C6.09029 6.64972 6.24864 6.41639 6.47364 6.20806C6.7403 5.94139 7.03195 5.81639 7.34028 5.81639C7.45695 5.81639 7.5736 5.84138 7.68193 5.89138C7.79026 5.94138 7.89029 6.01638 7.96528 6.12472L8.93193 7.49137C9.00693 7.5997 9.06527 7.69138 9.09861 7.78304C9.14027 7.87471 9.15695 7.95804 9.15695 8.04137C9.15695 8.14137 9.12362 8.24139 9.06529 8.34139C9.00696 8.44139 8.93193 8.54137 8.83193 8.64137L8.51526 8.9747C8.46526 9.0247 8.44863 9.07471 8.44863 9.14138C8.44863 9.17471 8.45693 9.20804 8.46526 9.24138C8.48193 9.27471 8.4903 9.29971 8.49863 9.32471C8.57363 9.46638 8.70694 9.64137 8.89027 9.85803C9.08194 10.0747 9.28197 10.2997 9.49864 10.5164C9.72364 10.7414 9.9403 10.9414 10.1653 11.133C10.382 11.3164 10.5653 11.4414 10.7069 11.5164C10.7319 11.5247 10.757 11.5414 10.782 11.5497C10.8153 11.5664 10.8486 11.5664 10.8903 11.5664C10.9653 11.5664 11.0153 11.5414 11.0653 11.4914L11.3819 11.1747C11.4903 11.0664 11.5903 10.9914 11.682 10.9414C11.782 10.883 11.8736 10.8497 11.982 10.8497C12.0653 10.8497 12.1486 10.8664 12.2403 10.908C12.332 10.9497 12.4319 10.9997 12.5319 11.0747L13.9153 12.058C14.0236 12.133 14.0986 12.2247 14.1486 12.3247C14.1903 12.4331 14.2153 12.533 14.2153 12.6497C14.1653 12.7914 14.132 12.9497 14.0653 13.0997Z" fill="#2FC350"/>
</svg>
