<svg width="24" height="24" viewBox="0 0 24 24" fill="none" xmlns="http://www.w3.org/2000/svg">
<path d="M20.6216 13.0703C20.2416 13.0703 19.9216 12.7803 19.8716 12.4003C19.6316 10.1403 18.4116 8.09035 16.5316 6.79035C16.1916 6.55035 16.1116 6.09035 16.3416 5.75035C16.5816 5.41035 17.0516 5.33035 17.3816 5.56035C19.6216 7.11035 21.0616 9.55035 21.3516 12.2403C21.3916 12.6503 21.1016 13.0203 20.6816 13.0703C20.6716 13.0703 20.6416 13.0703 20.6216 13.0703Z" fill="#09A677"/>
<path d="M3.49186 13.1193C3.46186 13.1193 3.44186 13.1193 3.41186 13.1193C3.00186 13.0693 2.70186 12.6993 2.74186 12.2893C3.01186 9.59928 4.44186 7.16928 6.65186 5.59928C6.99186 5.35928 7.46186 5.43928 7.70186 5.77928C7.94186 6.11928 7.86186 6.58928 7.52186 6.82928C5.66186 8.13928 4.46186 10.1893 4.23186 12.4493C4.20186 12.8293 3.87186 13.1193 3.49186 13.1193Z" fill="#09A677"/>
<path d="M12.06 22.61C10.58 22.61 9.16997 22.27 7.84997 21.61C7.47997 21.42 7.32997 20.97 7.51997 20.6C7.70997 20.23 8.15997 20.08 8.52997 20.27C10.69 21.36 13.29 21.38 15.47 20.33C15.84 20.15 16.29 20.31 16.47 20.68C16.65 21.05 16.49 21.5 16.12 21.68C14.84 22.3 13.48 22.61 12.06 22.61Z" fill="#09A677"/>
<path d="M12.0613 8.44086C10.1113 8.44086 8.53125 6.86086 8.53125 4.91086C8.53125 2.96086 10.1113 1.38086 12.0613 1.38086C14.0113 1.38086 15.5913 2.96086 15.5913 4.91086C15.5913 6.86086 14.0013 8.44086 12.0613 8.44086ZM12.0613 2.89086C10.9413 2.89086 10.0312 3.80086 10.0312 4.92086C10.0312 6.04086 10.9413 6.95086 12.0613 6.95086C13.1813 6.95086 14.0913 6.04086 14.0913 4.92086C14.0913 3.80086 13.1713 2.89086 12.0613 2.89086Z" fill="#09A677"/>
<path d="M4.83078 20.6694C2.88078 20.6694 1.30078 19.0894 1.30078 17.1394C1.30078 15.1994 2.88078 13.6094 4.83078 13.6094C6.78078 13.6094 8.36078 15.1894 8.36078 17.1394C8.36078 19.0794 6.78078 20.6694 4.83078 20.6694ZM4.83078 15.1094C3.71078 15.1094 2.80078 16.0194 2.80078 17.1394C2.80078 18.2594 3.71078 19.1694 4.83078 19.1694C5.95078 19.1694 6.86078 18.2594 6.86078 17.1394C6.86078 16.0194 5.95078 15.1094 4.83078 15.1094Z" fill="#09A677"/>
<path d="M19.1706 20.6694C17.2206 20.6694 15.6406 19.0894 15.6406 17.1394C15.6406 15.1994 17.2206 13.6094 19.1706 13.6094C21.1206 13.6094 22.7006 15.1894 22.7006 17.1394C22.6906 19.0794 21.1106 20.6694 19.1706 20.6694ZM19.1706 15.1094C18.0506 15.1094 17.1406 16.0194 17.1406 17.1394C17.1406 18.2594 18.0506 19.1694 19.1706 19.1694C20.2906 19.1694 21.2006 18.2594 21.2006 17.1394C21.1906 16.0194 20.2906 15.1094 19.1706 15.1094Z" fill="#09A677"/>
</svg>
