<svg width="18" height="18" viewBox="0 0 18 18" fill="none" xmlns="http://www.w3.org/2000/svg">
<path d="M6.68172 15.5026C6.53922 15.5026 6.39672 15.4501 6.28422 15.3376C6.06672 15.1201 6.06672 14.7601 6.28422 14.5426L11.1742 9.65264C11.5342 9.29264 11.5342 8.70764 11.1742 8.34764L6.28422 3.45764C6.06672 3.24014 6.06672 2.88014 6.28422 2.66264C6.50172 2.44514 6.86172 2.44514 7.07922 2.66264L11.9692 7.55264C12.3517 7.93514 12.5692 8.45264 12.5692 9.00014C12.5692 9.54764 12.3592 10.0651 11.9692 10.4476L7.07922 15.3376C6.96672 15.4426 6.82422 15.5026 6.68172 15.5026Z" fill="white"/>
</svg>
