<svg width="61" height="60" viewBox="0 0 61 60" fill="none" xmlns="http://www.w3.org/2000/svg">
<g clip-path="url(#clip0_1183_5141)">
<path d="M12.421 20.7687C12.5437 21.4421 12.6408 22.1045 12.787 22.7554C13.1242 24.2552 13.6081 25.6996 14.5936 26.9164C15.5411 28.0862 16.7448 28.7554 18.2821 28.8008C19.5793 28.8389 20.7799 28.5069 21.9424 27.9766C22.714 27.6242 23.4495 27.2082 24.1422 26.7201C24.3343 26.5849 24.5264 26.54 24.744 26.5739C25.2922 26.659 25.8418 26.6862 26.3946 26.6266C27.305 26.529 28.1 26.185 28.7447 25.5221C28.7833 25.4819 28.8366 25.4464 28.8167 25.3561C28.5197 25.4673 28.2305 25.5962 27.9293 25.6849C26.8838 25.9945 25.8544 25.8739 24.8427 25.5242C24.5128 25.4098 24.1876 25.2762 23.8723 25.1264C23.6713 25.0309 23.5199 25.0476 23.3346 25.1697C22.24 25.8891 21.0848 26.481 19.7949 26.7718C18.8652 26.9811 17.9444 26.9968 17.0544 26.6026C15.7937 26.0441 15.171 24.9891 14.8912 23.7065C14.5075 21.9453 14.8223 20.2571 15.4998 18.6159C16.0036 17.395 16.7365 16.3217 17.651 15.3816C18.539 14.4691 19.5699 13.7435 20.7914 13.2006C20.6181 13.5801 20.4573 13.9142 20.3106 14.2546C19.1142 17.0311 19.643 20.1418 21.7764 22.2877C22.845 23.3625 24.1093 24.0427 25.597 24.3272C26.7188 24.5418 28.4696 24.2834 29.3027 23.7353C28.7499 23.6241 28.2237 23.5358 27.7059 23.4111C25.7948 22.9512 24.0404 22.1912 22.6451 20.7452C20.6567 18.6848 20.5257 15.4416 22.3386 13.2346C23.4824 11.8418 24.9617 11.086 26.7318 10.8453C27.3609 10.7597 27.9862 10.8083 28.6675 10.7984C28.2801 11.2374 27.9184 11.6247 27.5822 12.0329C26.5888 13.2393 25.7714 14.5406 25.513 16.1186C25.2838 17.5166 25.5693 18.8065 26.392 19.9648C27.1364 21.013 28.0953 21.7923 29.3027 22.2569C29.6556 22.3926 30.009 22.4036 30.3598 22.2929C32.2818 21.6864 33.7622 20.5484 34.5473 18.6519C35.0871 17.348 34.9597 16.0236 34.4586 14.7296C33.9523 13.4235 33.1536 12.3038 32.2187 11.2739C32.1221 11.1674 31.9425 11.0479 31.9879 10.9304C32.0427 10.7879 32.251 10.8605 32.3899 10.8641C33.9559 10.9064 35.4671 11.1763 36.7988 12.0616C38.5725 13.2408 39.4704 14.8977 39.2835 17.0369C39.1384 18.6942 38.2943 20.0191 37.0514 21.0986C35.3507 22.5759 33.3154 23.2795 31.1376 23.6523C31.0139 23.6737 30.8907 23.7003 30.7659 23.7248C30.7497 23.8261 30.8406 23.8282 30.8933 23.847C32.8978 24.5767 34.8793 24.6101 36.7721 23.5285C38.6091 22.4793 39.7272 20.8616 40.2299 18.8232C40.7112 16.8724 40.446 15.0277 39.3535 13.3212C39.3399 13.2998 39.3347 13.2727 39.3096 13.2053C39.9851 13.5634 40.6042 13.9361 41.1867 14.3689C42.6202 15.4343 43.8004 16.719 44.5897 18.3367C45.1837 19.5545 45.4985 20.8418 45.4234 22.1969C45.3471 23.5734 44.9248 24.8372 43.9132 25.8233C43.0075 26.706 41.9045 27.0646 40.6355 26.9352C39.1024 26.7791 37.8391 26.0462 36.6651 25.1191C36.5033 24.9912 36.3738 24.9677 36.1911 25.0512C35.5365 25.3498 34.8699 25.6134 34.159 25.7549C33.0215 25.982 31.9383 25.8567 30.9131 25.2976C30.8667 25.272 30.8213 25.2193 30.7336 25.2585C31.1579 25.7862 31.7186 26.1015 32.3267 26.3322C33.3692 26.7279 34.4466 26.7853 35.5371 26.5828C35.7177 26.5494 35.8351 26.6319 35.9635 26.7159C37.0921 27.4519 38.2729 28.0841 39.567 28.4772C40.7441 28.8347 41.9311 28.9992 43.1458 28.6301C44.1836 28.3148 44.9922 27.6962 45.6238 26.8313C46.5676 25.5388 47.0426 24.0547 47.36 22.5106C47.478 21.9369 47.5678 21.357 47.6784 20.7342C48.1195 21.4844 48.4781 22.2261 48.8049 22.983C49.3765 24.3068 49.8291 25.6703 50.0744 27.0938C50.4362 29.1918 50.4409 31.273 49.6427 33.289C49.0711 34.7329 48.1822 35.9278 46.766 36.646C45.1013 37.4907 43.4543 37.3325 41.8601 36.4482C40.2894 35.577 39.2026 34.2307 38.3115 32.7075C37.6209 31.5272 37.1093 30.2676 36.6876 28.9699C36.627 28.7831 36.5466 28.6901 36.3357 28.6541C35.3434 28.485 34.3391 28.3623 33.3603 28.0147C33.4266 28.0851 33.4908 28.1572 33.5592 28.225C34.1574 28.8227 34.7817 29.3954 35.2787 30.0881C35.868 30.9092 36.3154 31.807 36.6296 32.7602C37.0556 34.0527 37.6026 35.3008 38.0051 36.6012C38.0584 36.7729 38.0735 36.9587 38.1988 37.1571C38.3825 36.5803 38.7474 36.2258 39.295 36.0619C40.0498 35.8359 40.8657 36.0828 41.3125 36.6768C41.7656 37.2792 41.8116 38.2225 41.3919 38.8442C41.026 39.3861 40.4465 39.5354 39.8436 39.5881C39.3498 39.6309 38.8513 39.6074 38.3606 39.528C37.7744 39.433 37.3683 39.0504 37.0263 38.6041C36.1624 37.4755 35.7412 36.1695 35.4342 34.795C35.085 33.2321 34.6705 31.6792 33.8546 30.2729C33.2569 29.2424 32.3951 28.5033 31.2608 28.1828C30.0784 27.8481 28.9253 28.0152 27.8359 28.6473C27.0586 29.0983 26.558 29.766 26.1415 30.5224C25.288 32.0712 24.791 33.7333 24.5107 35.4773C24.2367 37.1837 23.4343 38.5775 21.8339 39.3819C21.1182 39.7416 20.354 39.8371 19.5762 39.5359C18.683 39.1903 18.3479 38.2763 18.4669 37.4364C18.5791 36.645 19.4097 35.9758 20.2031 35.968C21.0728 35.9596 21.518 36.2676 21.9163 37.167C22.0103 37.0673 22.0244 36.9425 22.0625 36.8334C22.5996 35.3128 23.024 33.7526 23.6494 32.2628C24.1276 31.1232 24.791 30.0996 25.6174 29.1798C26 28.7538 26.3889 28.3352 26.877 27.9003C26.498 28.0194 26.1921 28.1154 25.8857 28.212C25.1799 28.4349 24.4502 28.5445 23.7235 28.6646C23.5612 28.6912 23.4933 28.7554 23.4432 28.901C22.8763 30.5422 22.1742 32.1208 21.2205 33.5777C20.3691 34.8785 19.3663 36.0405 17.9574 36.7583C16.2515 37.6274 14.5879 37.4844 13.0401 36.3668C11.4517 35.2199 10.6086 33.5793 10.095 31.7366C9.7353 30.4467 9.6523 29.126 9.75671 27.8059C9.96081 25.2277 10.8707 22.8969 12.372 20.7948C12.3767 20.788 12.3876 20.7859 12.4205 20.7682L12.421 20.7687Z" fill="white"/>
<path d="M33.1951 45.6204C33.2671 45.2524 33.3407 44.899 33.406 44.5435C33.667 43.121 33.928 41.698 34.1827 40.2745C34.2172 40.0819 34.2934 39.9801 34.5012 39.9368C34.8801 39.858 35.2534 39.7468 35.624 39.6314C35.7728 39.585 35.8333 39.6314 35.8871 39.7593C36.9442 42.2843 38.0023 44.8087 39.0656 47.331C39.1214 47.4631 39.1131 47.5101 38.9674 47.5508C38.5096 47.6787 38.0524 47.8107 37.6029 47.9647C37.3743 48.043 37.3811 47.8629 37.3383 47.758C36.7474 46.3115 36.1632 44.8619 35.5765 43.4134C35.5373 43.3173 35.4898 43.2244 35.387 43.1341C35.2857 43.7386 35.1834 44.3425 35.0837 44.947C34.8859 46.1445 34.687 47.3415 34.4944 48.5395C34.4719 48.6778 34.4234 48.7384 34.2751 48.7488C33.7902 48.7832 33.3047 48.8193 32.8234 48.8835C32.6178 48.9106 32.5609 48.8276 32.5024 48.6601C31.8551 46.7996 31.2016 44.9413 30.549 43.0829C30.4217 42.7196 30.2912 42.3573 30.1638 41.9992C30.0328 42.0118 30.062 42.1 30.049 42.1564C29.7008 43.6587 29.351 45.161 29.0102 46.6649C28.7194 47.9501 27.9233 48.7378 26.6152 48.9127C25.3431 49.0829 24.1571 48.8052 23.1219 48.018C22.4945 47.5409 22.2126 46.9406 22.3577 46.1116C22.7262 44.0079 23.0426 41.8948 23.3756 39.7849C23.4033 39.6085 23.4503 39.5437 23.6539 39.5985C24.1033 39.7196 24.5606 39.8131 25.0179 39.8982C25.2115 39.9342 25.2387 40.0208 25.2068 40.1936C24.8853 41.9309 24.5689 43.6686 24.2516 45.4064C24.2187 45.588 24.1795 45.7687 24.156 45.9514C24.0903 46.4614 24.2536 46.7918 24.701 47.0382C25.2742 47.354 25.8849 47.401 26.5087 47.2376C26.8955 47.1363 27.1294 46.8878 27.2192 46.4765C27.6389 44.5524 28.0784 42.6324 28.5012 40.7088C28.5383 40.5397 28.6035 40.4927 28.7695 40.4886C29.4894 40.4703 30.2092 40.4463 30.9275 40.4019C31.1128 40.3904 31.1744 40.4515 31.2339 40.6097C31.8337 42.2091 32.4403 43.8054 33.0489 45.4012C33.0745 45.4685 33.0761 45.5557 33.1951 45.6194V45.6204Z" fill="white"/>
<path d="M33.5447 14.8858C33.6595 16.0201 33.6219 17.0907 33.1505 18.1019C32.5481 19.3938 31.4498 20.11 30.1819 20.6242C30.0869 20.6628 30.0128 20.6284 29.9303 20.6038C28.0323 20.0469 26.7419 18.5158 26.521 16.5489C26.4756 16.1438 26.4433 15.7361 26.4229 15.329C26.4062 14.998 26.4156 15.0037 26.7184 15.1035C28.1262 15.567 29.0549 16.5223 29.5852 17.8878C29.7246 18.2465 29.8629 18.6051 30.0342 19.0467C30.3578 18.093 30.7289 17.2593 31.3569 16.5635C31.9765 15.8771 32.7147 15.353 33.5452 14.8853L33.5447 14.8858Z" fill="white"/>
<path d="M30.0325 17.9718C29.7569 17.3041 29.4666 16.7023 29.0349 16.1792C28.6252 15.6828 28.1235 15.3069 27.5493 15.025C27.4345 14.9687 27.3859 14.9264 27.4512 14.7891C28.0619 13.506 28.8053 12.3195 29.8644 11.3496C30.0388 11.1899 30.1405 11.1873 30.3097 11.359C31.278 12.3435 32.0062 13.4789 32.5152 14.7604C32.5867 14.9405 32.5564 15.0313 32.3993 15.1383C31.3537 15.8477 30.5451 16.7597 30.032 17.9713L30.0325 17.9718Z" fill="white"/>
<path d="M30.4227 29.8789C30.6639 30.6828 30.8894 31.4037 31.093 32.1303C31.1462 32.3203 31.2334 32.3694 31.4177 32.3668C32.1151 32.3574 32.813 32.3631 33.583 32.3631C33.039 32.7907 32.5478 33.1785 32.0545 33.5632C31.6234 33.8994 31.6244 33.8968 31.7873 34.4287C31.9747 35.0405 32.1568 35.6539 32.3406 36.2667C32.3458 36.2845 32.3427 36.3048 32.3453 36.3591C31.7685 35.905 31.2021 35.4738 30.654 35.0202C30.4765 34.8729 30.3711 34.8703 30.1915 35.0202C29.647 35.4733 29.0817 35.9023 28.4736 36.3805C28.6192 35.8882 28.7476 35.4492 28.8781 35.0108C28.9476 34.7785 28.9966 34.5368 29.0968 34.3181C29.2461 33.9928 29.148 33.807 28.8646 33.6081C28.3326 33.2344 27.8341 32.8136 27.2578 32.3626C27.7177 32.3626 28.1076 32.3626 28.4976 32.3626C28.8087 32.3626 29.1209 32.3537 29.4314 32.3668C29.6178 32.3746 29.7008 32.3162 29.7535 32.1272C29.9566 31.4 30.1821 30.6797 30.4222 29.8789H30.4227Z" fill="white"/>
<path d="M29.9997 59.9984C13.5795 60.1295 -0.00156589 46.5369 1.35419e-07 29.9956C0.00104415 13.9496 13.0074 0.00783351 30.0378 3.40715e-06C46.5959 -0.0078267 60.0611 13.4814 60.0219 30.0483C59.9817 47.121 45.9711 60.1608 29.9997 59.999V59.9984ZM30.0023 59.8157C46.4435 59.7844 59.7364 46.5698 59.798 30.148C59.8601 13.628 46.5166 0.223422 30.0927 0.21507C13.6072 0.206718 0.286582 13.4438 0.225507 29.8677C0.16391 46.4383 13.5132 59.8147 30.0023 59.8157Z" fill="white"/>
<path d="M29.9828 59.3514C13.8006 59.3811 0.65128 46.1493 0.667985 29.9864C0.684689 13.8063 13.8753 0.652745 30.0408 0.669449C46.2282 0.686154 59.3729 13.8861 59.3557 30.0443C59.3384 46.2271 46.1447 59.4145 29.9828 59.3509V59.3514ZM30.0084 59.1196C46.0617 59.1207 59.0868 46.1122 59.1181 30.0851C59.1495 13.9879 46.1019 0.912183 30.0298 0.910617C13.951 0.909051 0.916982 13.9206 0.910196 29.9906C0.902888 46.0861 13.9217 59.1186 30.0084 59.1196Z" fill="white"/>
<path d="M18.2583 6.07559C18.4082 6.56367 18.5554 7.05227 18.7088 7.5393C18.7579 7.69538 18.795 7.81179 18.5966 7.91671C18.404 8.0185 18.3246 7.94333 18.2166 7.80866C17.9034 7.41767 17.5792 7.03556 17.2039 6.68477C17.4367 7.11595 17.6596 7.55339 17.9075 7.9757C18.0213 8.16988 17.9853 8.26071 17.7891 8.34632C17.6721 8.39696 17.6204 8.38339 17.5615 8.27272C17.1773 7.55235 16.7899 6.83355 16.3974 6.11788C16.3306 5.99573 16.3499 5.94039 16.471 5.86888C16.9022 5.61309 16.899 5.60683 17.2321 5.99729C17.503 6.31467 17.7718 6.63362 18.0913 6.93221C17.9926 6.58977 17.895 6.24733 17.7953 5.90542C17.7682 5.8125 17.7332 5.72115 17.705 5.62875C17.6022 5.29154 17.7864 5.01957 18.1419 4.9705C18.2395 4.95693 18.2547 5.02479 18.285 5.08169C18.6739 5.79945 19.057 6.52086 19.4532 7.23445C19.5524 7.41297 19.4329 7.44377 19.3258 7.51424C19.1943 7.60037 19.1264 7.56697 19.0565 7.43333C18.8143 6.97083 18.5611 6.51356 18.3126 6.05419C18.2944 6.0615 18.2766 6.06881 18.2583 6.07611V6.07559Z" fill="white"/>
<path d="M56.0612 23.5891C55.5429 23.6137 55.024 23.6314 54.5062 23.6659C54.335 23.6774 54.229 23.6836 54.1711 23.467C54.1121 23.2457 54.2217 23.1961 54.3699 23.1261C54.8309 22.9084 55.2892 22.6861 55.7287 22.4136C55.2323 22.5378 54.7338 22.6537 54.241 22.791C54.0656 22.8401 54.0061 22.8061 53.9607 22.6286C53.9127 22.4428 53.9784 22.3995 54.1397 22.3598C54.8836 22.1771 55.6259 21.985 56.3666 21.7898C56.542 21.7433 56.648 21.748 56.6903 21.9647C56.7952 22.4992 56.8552 22.3609 56.4058 22.589C56.0164 22.7868 55.6228 22.9763 55.2328 23.1684C55.2203 23.265 55.2881 23.231 55.3195 23.2295C55.795 23.207 56.2716 23.1919 56.7456 23.1512C56.9314 23.135 57.0019 23.1955 57.0468 23.3657C57.1674 23.8178 57.1736 23.8157 56.7106 23.9321C56.0612 24.096 55.4129 24.262 54.7635 24.4244C54.6179 24.4609 54.4576 24.5789 54.3846 24.3074C54.3146 24.048 54.4874 24.0449 54.6435 24.0052C55.1185 23.8841 55.5935 23.7624 56.0686 23.6413C56.0659 23.6241 56.0628 23.6069 56.0602 23.5902L56.0612 23.5891Z" fill="white"/>
<path d="M13.6219 51.5412C14.0687 51.1596 14.455 50.8265 14.847 50.4998C14.9154 50.4429 14.9796 50.3103 15.083 50.3734C15.238 50.4684 15.3774 50.5942 15.5079 50.7226C15.5481 50.7623 15.4724 50.8239 15.4385 50.8678C14.9483 51.4973 14.4519 52.1216 13.9685 52.7564C13.8547 52.9057 13.7842 52.855 13.6657 52.7736C13.5128 52.6687 13.5885 52.5925 13.6636 52.497C14.0108 52.0559 14.3553 51.6132 14.6581 51.1277C14.2384 51.491 13.8192 51.8544 13.399 52.2172C13.2946 52.3075 13.2204 52.4327 13.0388 52.2897C12.8644 52.1519 12.913 52.0501 12.9918 51.8998C13.2429 51.4216 13.4825 50.9377 13.6683 50.4183C13.3442 50.8333 13.0205 51.2494 12.6953 51.6633C12.6113 51.7703 12.5601 51.917 12.3659 51.7614C12.1681 51.6033 12.3101 51.5177 12.392 51.4122C12.8456 50.8281 13.3003 50.245 13.7607 49.6666C13.8244 49.5868 13.8782 49.3774 14.0332 49.5455C14.1642 49.688 14.5239 49.7016 14.3308 50.056C14.0985 50.4825 13.8944 50.9241 13.6788 51.3595C13.6631 51.3913 13.6574 51.4279 13.6229 51.5412H13.6219Z" fill="white"/>
<path d="M38.4665 54.3861C38.5386 54.9113 38.6122 55.4359 38.6827 55.9615C38.702 56.1051 38.7844 56.2513 38.5532 56.3384C38.3178 56.4272 38.2671 56.2821 38.1847 56.138C37.9116 55.6619 37.635 55.1874 37.3087 54.7359C37.4867 55.2563 37.6647 55.7773 37.8438 56.2977C37.8882 56.4266 37.9602 56.5373 37.7483 56.6141C37.5431 56.6882 37.5238 56.5786 37.4768 56.4407C37.2304 55.7141 36.9846 54.987 36.7236 54.2655C36.6609 54.0922 36.7001 54.0317 36.865 53.9758C37.2581 53.8422 37.2555 53.8338 37.4638 54.1862C37.7044 54.5923 37.9445 54.999 38.2374 55.3811C38.169 54.8732 38.1006 54.3658 38.0317 53.8579C38.0014 53.6355 38.3616 53.3374 38.5756 53.4074C38.6305 53.4251 38.6393 53.4747 38.6555 53.5201C38.9217 54.2911 39.1859 55.0632 39.4573 55.8326C39.5147 55.9955 39.4218 56.0263 39.3033 56.0753C39.1639 56.1333 39.1159 56.0764 39.0757 55.9563C38.9238 55.5053 38.7677 55.0559 38.6117 54.6059C38.584 54.5265 38.5506 54.4498 38.5198 54.3715C38.502 54.3762 38.4843 54.3809 38.4665 54.3856V54.3861Z" fill="white"/>
<path d="M25.9843 55.6417C25.9159 56.1966 25.8501 56.7515 25.7755 57.3059C25.763 57.3977 25.7922 57.5319 25.6998 57.5705C25.6231 57.6024 25.5093 57.5658 25.4179 57.5387C25.326 57.511 25.3678 57.4275 25.3756 57.3638C25.4685 56.5918 25.5583 55.8192 25.6601 55.0487C25.6721 54.9589 25.6283 54.7522 25.8199 54.8201C26.0005 54.8838 26.3225 54.6901 26.3424 55.0978C26.3669 55.6114 26.4254 56.124 26.4692 56.6372C26.5846 56.6539 26.5658 56.5568 26.5841 56.5041C26.7386 56.0541 26.8905 55.6031 27.0393 55.151C27.1598 54.7841 27.4172 55.0639 27.6041 55.0414C27.7956 55.0179 27.721 55.1996 27.7095 55.3003C27.6218 56.0437 27.5273 56.786 27.4375 57.5288C27.4208 57.6687 27.425 57.7929 27.212 57.7783C26.9897 57.7626 27.0241 57.6316 27.0403 57.4974C27.1082 56.9384 27.1792 56.3793 27.2585 55.7466C27.1014 55.9962 27.0685 56.2191 26.9959 56.4237C26.8727 56.7713 26.7631 57.1242 26.6545 57.4771C26.6107 57.6212 26.5684 57.7104 26.3763 57.6781C26.2025 57.6488 26.1612 57.5836 26.1529 57.4191C26.1216 56.8277 26.073 56.2373 26.0307 55.6464C26.0156 55.6454 26.0005 55.6438 25.9853 55.6428L25.9843 55.6417Z" fill="white"/>
<path d="M21.0123 4.86887C20.8766 5.0996 21.0462 5.16694 21.2514 5.27552C21.5505 5.43421 21.6481 5.74219 21.6455 6.06949C21.6434 6.36442 21.4748 6.55287 21.2127 6.66875C20.9204 6.79821 20.6249 6.92245 20.3384 7.06391C20.2047 7.12969 20.1499 7.08949 20.0972 6.96995C19.7699 6.224 19.4416 5.4791 19.1075 4.73628C19.0464 4.60004 19.1002 4.54523 19.2166 4.49668C19.4849 4.38445 19.7475 4.25865 20.0173 4.15007C20.5305 3.94335 21.0154 4.27953 21.0118 4.86887H21.0123ZM21.137 5.91811C21.1 5.74428 21.0269 5.57306 20.7722 5.58454C20.5508 5.59446 20.1087 5.8325 20.1546 5.91341C20.2585 6.09663 20.2355 6.40149 20.4746 6.44794C20.7304 6.49753 21.1449 6.13892 21.137 5.91811ZM20.5936 4.88923C20.5487 4.73472 20.4908 4.55254 20.2804 4.59482C20.0664 4.63762 19.7809 4.67155 19.7224 4.89915C19.6921 5.01712 19.7683 5.3084 19.9881 5.34912C20.2032 5.38879 20.6004 5.05888 20.5942 4.88923H20.5936Z" fill="white"/>
<path d="M3.70046 29.5726C3.29329 29.5726 2.88613 29.5705 2.47896 29.5736C2.31453 29.5746 2.2331 29.5282 2.25293 29.3371C2.28373 29.0485 2.29052 28.7567 2.2973 28.4659C2.31192 27.8171 3.07875 27.6777 3.44572 27.9778C3.58666 28.0932 3.63886 28.0713 3.7631 27.957C4.02828 27.7121 4.34879 27.7356 4.66356 27.8625C4.95902 27.982 5.09056 28.207 5.07542 28.5275C5.06133 28.8282 5.05402 29.1289 5.05559 29.4295C5.05663 29.6091 5.00965 29.6884 4.80555 29.678C4.43805 29.6582 4.06899 29.6723 3.70046 29.6723C3.70046 29.6389 3.70046 29.6054 3.70046 29.5726ZM4.59152 28.8021C4.59152 28.7629 4.58943 28.7243 4.59152 28.6857C4.60457 28.4534 4.53201 28.2806 4.27101 28.2608C4.00165 28.2404 3.88525 28.3871 3.87794 28.6439C3.87481 28.7593 3.8581 28.8746 3.85288 28.99C3.85027 29.0448 3.83148 29.1221 3.90247 29.1398C4.09979 29.1889 4.31381 29.2291 4.50017 29.167C4.63746 29.1215 4.55289 28.9253 4.591 28.8016L4.59152 28.8021ZM2.76032 28.8094C2.82557 28.8861 2.63922 29.0579 2.86264 29.1236C3.23639 29.2327 3.37211 29.1367 3.37525 28.7514C3.37525 28.693 3.37733 28.6345 3.37472 28.5766C3.36324 28.3448 3.21395 28.278 3.01506 28.3015C2.7076 28.3375 2.79686 28.5922 2.76032 28.8099V28.8094Z" fill="white"/>
<path d="M43.1618 5.7389C43.144 6.1492 43.0156 6.38254 42.7535 6.51617C42.6194 6.58455 42.6137 6.63206 42.6622 6.77195C42.7875 7.1337 42.6491 7.43647 42.3793 7.68651C42.1303 7.91672 41.8604 7.9068 41.5717 7.76064C41.3034 7.62491 41.0315 7.49598 40.7553 7.37696C40.6175 7.31745 40.5877 7.25533 40.6572 7.11543C41.0137 6.3935 41.3645 5.66791 41.7106 4.94075C41.7748 4.80503 41.8374 4.7758 41.9742 4.8494C42.2561 5.00131 42.5494 5.13129 42.8319 5.28162C43.0568 5.40116 43.1748 5.59117 43.1618 5.73942V5.7389ZM42.2399 6.96405C42.2436 6.79127 41.7388 6.38828 41.5602 6.42639C41.5305 6.43265 41.5049 6.47337 41.4835 6.5026C41.1661 6.93743 41.2021 7.07054 41.6923 7.27778C41.7101 7.28509 41.7283 7.29135 41.7466 7.29814C42.0113 7.3968 42.2342 7.24594 42.2394 6.96353L42.2399 6.96405ZM42.682 5.88089C42.6747 5.75926 42.1318 5.39072 42.0201 5.43457C41.9977 5.44345 41.9862 5.47842 41.969 5.50087C41.7001 5.85479 41.7268 5.96598 42.1204 6.14189C42.1642 6.16173 42.2075 6.18365 42.2529 6.19931C42.4691 6.27292 42.6961 6.10379 42.6826 5.88089H42.682Z" fill="white"/>
<path d="M46.584 11.1399C46.2886 10.9548 46.173 10.7152 46.2374 10.4211C46.2828 10.2123 46.3272 10.0035 46.3648 9.79317C46.3872 9.66736 46.3867 9.54469 46.2927 9.43611C46.1983 9.32754 46.1226 9.29517 46.0187 9.42985C45.8642 9.62978 45.6825 9.80935 45.5379 10.015C45.4064 10.2019 45.3166 10.1095 45.1913 10.0166C45.0556 9.91636 45.0566 9.8391 45.1621 9.71539C45.6799 9.10986 46.1936 8.50068 46.702 7.88732C46.7949 7.77561 46.8586 7.74377 46.9781 7.85391C47.2141 8.07054 47.4704 8.26525 47.7048 8.48345C47.9793 8.73923 48.0221 8.9851 47.8729 9.29517C47.6959 9.66319 47.3529 9.89287 47.0235 9.82866C46.868 9.79839 46.8257 9.80883 46.8221 9.979C46.8137 10.37 46.6722 10.7375 46.584 11.1399ZM46.8925 8.45317C46.8398 8.45213 46.4817 8.85094 46.4765 8.91619C46.4697 9.0018 46.9515 9.39644 47.0684 9.3813C47.2731 9.35468 47.3957 9.22418 47.4239 9.0206C47.4396 8.90732 47.0058 8.45526 46.8925 8.45317Z" fill="white"/>
<path d="M52.3775 18.6302C52.176 18.3379 52.1601 18.06 52.33 17.7966C52.4552 17.6003 52.5758 17.4009 52.6974 17.2025C52.7794 17.0689 52.759 16.9305 52.6682 16.8214C52.5534 16.6836 52.4594 16.8408 52.3696 16.8815C52.176 16.9697 51.987 17.0741 51.8106 17.1926C51.654 17.2975 51.5777 17.2568 51.5021 17.1002C51.4389 16.9697 51.3736 16.882 51.5605 16.7823C52.2715 16.4038 52.9746 16.0102 53.6773 15.6156C53.7994 15.5472 53.86 15.5603 53.9242 15.6876C54.0682 15.9732 54.2384 16.2462 54.3767 16.5349C54.5506 16.8977 54.5036 17.1253 54.2353 17.3722C53.9497 17.6353 53.5509 17.7276 53.2732 17.5528C53.103 17.4458 53.0508 17.4698 53.0054 17.6514C52.983 17.7428 52.9235 17.8273 52.8702 17.9077C52.7152 18.1416 52.5549 18.3718 52.3785 18.6307L52.3775 18.6302ZM53.6136 17.1634C53.7764 17.1211 53.9461 17.0511 53.955 16.8246C53.9607 16.68 53.6376 16.1898 53.5765 16.2269C53.4042 16.3313 53.137 16.3417 53.0843 16.5677C53.0414 16.7525 53.4345 17.1712 53.6136 17.1634Z" fill="white"/>
<path d="M56.01 32.5059C56.4818 32.5507 56.9532 32.6019 57.4262 32.6364C57.5812 32.6478 57.6548 32.6807 57.6365 32.8566C57.6188 33.0252 57.5749 33.0848 57.3849 33.0654C56.6306 32.9887 55.8742 32.9365 55.1189 32.8686C55.0171 32.8598 54.8548 32.9177 54.8438 32.7423C54.8328 32.568 54.7989 32.3816 55.05 32.2965C55.5093 32.1404 55.9578 31.9525 56.4103 31.7771C56.4714 31.7536 56.5304 31.7255 56.5857 31.6534C56.1185 31.6117 55.6524 31.5595 55.1841 31.5328C54.9899 31.5219 54.943 31.4566 54.9518 31.2677C54.9623 31.0531 55.0792 31.0709 55.2243 31.0844C55.9791 31.1559 56.734 31.2207 57.4883 31.2964C57.5843 31.3058 57.7529 31.2353 57.7498 31.4321C57.7472 31.5897 57.7754 31.7563 57.5546 31.834C57.0602 32.0079 56.5748 32.2073 56.0862 32.3973C56.0533 32.4098 56.024 32.4317 55.9932 32.4495C55.999 32.4683 56.0042 32.4871 56.01 32.5059Z" fill="white"/>
<path d="M5.88836 18.8966C6.34459 19.1195 6.76115 19.3283 7.18189 19.5261C7.32179 19.5919 7.37294 19.654 7.28942 19.8106C7.21321 19.9536 7.16518 20.0158 6.9877 19.9249C6.31379 19.5799 5.62735 19.2588 4.95083 18.9185C4.85896 18.872 4.65851 18.8856 4.72376 18.6883C4.78118 18.5139 4.84904 18.3636 5.10221 18.3766C5.58716 18.4017 6.07419 18.3845 6.56018 18.384C6.62386 18.384 6.68703 18.3782 6.76533 18.3198C6.33519 18.1083 5.90663 17.8927 5.47336 17.6876C5.32824 17.6187 5.2609 17.5608 5.34964 17.3843C5.43317 17.2183 5.50781 17.2079 5.66128 17.2851C6.34668 17.6297 7.03834 17.9617 7.72478 18.3046C7.80777 18.3459 7.97638 18.3532 7.91479 18.5051C7.85528 18.6523 7.83805 18.8543 7.58697 18.8475C7.13021 18.8355 6.67293 18.8433 6.21618 18.8475C6.12326 18.848 6.02564 18.8219 5.88836 18.8976V18.8966Z" fill="white"/>
<path d="M33.1928 3.56032C33.1244 3.99776 33.0471 4.43416 32.9908 4.87316C32.9673 5.05743 32.926 5.15192 32.7084 5.12425C32.4651 5.09345 32.5298 4.94833 32.5517 4.80739C32.664 4.07815 32.7715 3.34786 32.8947 2.62018C32.9114 2.51996 32.8514 2.32368 33.056 2.34091C33.2178 2.35448 33.3932 2.35083 33.4574 2.58729C33.601 3.12026 33.7779 3.64384 33.9601 4.23266C34.0953 3.89388 34.0833 3.59111 34.148 3.30453C34.1862 3.13436 34.2112 2.96001 34.2237 2.78618C34.2368 2.60556 34.2994 2.53196 34.4967 2.55545C34.704 2.57999 34.6909 2.69274 34.6674 2.84047C34.5505 3.57911 34.4419 4.31931 34.3177 5.05691C34.3005 5.15975 34.3511 5.35184 34.1564 5.33879C33.9852 5.32783 33.8051 5.33305 33.7388 5.07675C33.6062 4.56153 33.4256 4.05883 33.2643 3.55092C33.2408 3.55405 33.2168 3.55666 33.1933 3.55979L33.1928 3.56032Z" fill="white"/>
<path d="M3.95727 32.2255C3.47441 32.2741 2.98999 32.309 2.50975 32.3779C2.31347 32.4061 2.30512 32.3064 2.27902 32.1759C2.24718 32.0172 2.29207 31.9546 2.4659 31.9384C3.22124 31.869 3.9745 31.7797 4.72984 31.7098C4.83372 31.7004 5.00076 31.572 5.04879 31.7698C5.09264 31.9499 5.13179 32.1336 4.89219 32.2662C4.47562 32.4959 4.08255 32.7689 3.68008 33.0242C3.63258 33.0545 3.58665 33.0873 3.54958 33.1709C4.00321 33.126 4.45892 33.0936 4.90993 33.0304C5.09942 33.0038 5.19182 33.0148 5.22209 33.2325C5.25498 33.4715 5.11143 33.4507 4.96318 33.4653C4.21827 33.541 3.47441 33.6255 2.72899 33.695C2.63659 33.7038 2.47686 33.8129 2.44449 33.6177C2.41735 33.4554 2.35732 33.2888 2.57604 33.1651C3.00774 32.9213 3.4196 32.6436 3.8393 32.379C3.88628 32.3498 3.9296 32.3153 3.97502 32.2829C3.96928 32.2636 3.96301 32.2443 3.95727 32.2245V32.2255Z" fill="white"/>
<path d="M51.1209 46.151C50.7508 45.8378 50.3838 45.5209 50.008 45.2145C49.8863 45.1153 49.8545 45.0443 49.9699 44.9128C50.0758 44.7922 50.1411 44.7389 50.2899 44.8689C50.8693 45.3737 51.4633 45.8623 52.0448 46.365C52.1164 46.4271 52.3022 46.4652 52.1884 46.625C52.0918 46.7602 52.0099 46.9136 51.7734 46.8447C51.2796 46.7006 50.7769 46.5884 50.2773 46.4637C50.2319 46.4522 50.186 46.4443 50.1087 46.4814C50.4684 46.7847 50.8254 47.0911 51.1893 47.3892C51.3198 47.4962 51.4148 47.5656 51.2592 47.7494C51.1057 47.9315 51.028 47.8313 50.9126 47.7332C50.3342 47.2414 49.7511 46.7555 49.1754 46.2611C49.1086 46.2037 48.9358 46.1578 49.0496 46.0236C49.144 45.9129 49.1858 45.7141 49.4238 45.7783C49.9756 45.9276 50.5331 46.0549 51.0885 46.1912C51.099 46.1781 51.1094 46.1645 51.1198 46.1515L51.1209 46.151Z" fill="white"/>
<path d="M25.1006 3.85085C25.1633 4.32065 25.2134 4.79307 25.2948 5.25974C25.3277 5.44871 25.2672 5.49726 25.1012 5.52127C24.9393 5.54476 24.8871 5.50039 24.8647 5.33126C24.7655 4.5707 24.6444 3.81274 24.54 3.05322C24.5264 2.95404 24.4424 2.79953 24.6162 2.75985C24.766 2.72592 24.93 2.66015 25.0542 2.85538C25.3152 3.26516 25.5955 3.6624 25.869 4.06435C25.9066 4.11968 25.9484 4.1724 26.0131 4.25958C26.0867 3.9777 25.9792 3.74279 25.9614 3.50476C25.9442 3.27299 25.8988 3.04278 25.8649 2.81205C25.845 2.67842 25.832 2.56775 26.0298 2.55209C26.1948 2.53957 26.2736 2.56358 26.2976 2.74628C26.3973 3.50685 26.5142 4.26532 26.615 5.02589C26.6275 5.11985 26.7215 5.27227 26.5252 5.30516C26.3723 5.33074 26.2198 5.41739 26.0904 5.21433C25.7939 4.74818 25.4723 4.29769 25.1612 3.84093C25.1408 3.84406 25.1205 3.84772 25.1001 3.85085H25.1006Z" fill="white"/>
<path d="M21.6135 56.657C21.2418 56.5772 20.8467 56.4153 20.4468 56.266C20.3523 56.2305 20.3836 56.1658 20.4082 56.0985C20.6885 55.3316 20.9709 54.5659 21.2434 53.7964C21.2951 53.6503 21.3702 53.6529 21.4856 53.6967C21.7398 53.7938 21.9987 53.8784 22.2498 53.9828C22.7958 54.2104 22.8715 54.8733 22.3777 55.2147C22.2211 55.3228 22.2248 55.3776 22.3025 55.5337C22.5207 55.9742 22.1261 56.6492 21.6135 56.6565V56.657ZM21.945 55.7576C21.9465 55.6642 21.9011 55.5483 21.7732 55.4882C21.5827 55.399 21.3984 55.2867 21.1787 55.2841C21.1635 55.2841 21.1468 55.3285 21.1322 55.353C20.8341 55.8495 20.8827 55.9768 21.4266 56.1308C21.436 56.1334 21.4454 56.135 21.4548 56.1376C21.7205 56.2081 21.9136 56.0745 21.945 55.7576ZM22.2503 54.7078C22.2603 54.4996 21.8745 54.1978 21.6224 54.2469C21.4026 54.2897 21.3718 54.569 21.3843 54.7136C21.4089 55.0023 21.7304 54.9589 21.9293 55.007C22.1371 55.0571 22.2227 54.8707 22.2503 54.7078Z" fill="white"/>
<path d="M10.9624 11.5788C11.2886 11.9061 11.6081 12.2282 11.9302 12.5477C12.0367 12.6537 12.1395 12.7283 11.9719 12.8943C11.8143 13.0509 11.7402 12.981 11.6253 12.8661C11.0892 12.3284 10.5463 11.7976 10.0113 11.2594C9.94759 11.1952 9.78681 11.1419 9.89696 11.0109C9.99614 10.8929 10.0823 10.729 10.2994 10.8058C10.7666 10.9707 11.238 11.1237 11.7078 11.2808C11.7866 11.3074 11.8618 11.3559 11.9745 11.3298C11.6274 10.9822 11.2933 10.645 10.9561 10.3114C10.8496 10.2065 10.7337 10.135 10.9065 9.96689C11.06 9.81707 11.1346 9.86771 11.2557 9.98933C11.7913 10.5275 12.3358 11.0563 12.8719 11.594C12.9366 11.6587 13.0953 11.7198 12.9872 11.8445C12.8823 11.9657 12.7977 12.1457 12.5623 12.0596C12.1155 11.8962 11.6613 11.7527 11.2088 11.6039C11.1383 11.5809 11.0699 11.5251 10.9619 11.5799L10.9624 11.5788Z" fill="white"/>
<path d="M29.3074 4.22181C29.3215 4.74486 29.2139 4.90459 28.7321 5.07633C28.2717 5.24024 27.8019 5.11653 27.52 4.75739C27.1306 4.26043 27.0643 3.30307 27.3786 2.7628C27.6124 2.36033 27.9705 2.22513 28.4147 2.26428C28.7744 2.2956 28.9983 2.50232 29.132 2.82231C29.1675 2.90687 29.2421 3.02223 29.0887 3.0546C28.9644 3.0807 28.813 3.24826 28.7045 3.05773C28.5546 2.7936 28.3401 2.70433 28.0681 2.79621C27.7847 2.89173 27.685 3.13603 27.6693 3.41635C27.6531 3.7092 27.6599 3.99995 27.7899 4.27296C27.9825 4.677 28.3761 4.76156 28.7295 4.48803C28.8543 4.39146 28.8616 4.27818 28.8339 4.1529C28.8026 4.01092 28.6752 4.05529 28.5922 4.07042C28.3516 4.11427 28.3051 3.99421 28.2842 3.7875C28.2587 3.53693 28.4335 3.57034 28.5635 3.56825C29.3705 3.55625 29.2437 3.34327 29.3069 4.22233L29.3074 4.22181Z" fill="white"/>
<path d="M13.8672 10.9231C13.0106 10.9184 12.1065 9.8702 12.2161 9.10964C12.32 8.38613 13.1009 7.9868 13.6762 8.3663C13.7471 8.41328 13.8923 8.45922 13.7847 8.57771C13.697 8.67481 13.6814 8.91336 13.4548 8.80478C13.2241 8.69412 13.02 8.71865 12.8467 8.90658C12.6666 9.10181 12.6682 9.3294 12.7647 9.55908C12.8963 9.87177 13.1124 10.1234 13.3932 10.3076C13.7717 10.5551 14.1538 10.4115 14.3083 10.0002C14.3741 9.82583 14.3052 9.71464 14.1919 9.61859C14.065 9.51106 14.0014 9.66192 13.9366 9.72039C13.8025 9.84201 13.7179 9.85611 13.5926 9.69689C13.4726 9.54447 13.4574 9.46356 13.6208 9.32836C14.1888 8.8596 14.1684 8.86534 14.5886 9.33775C14.8449 9.6259 14.9843 9.89004 14.7692 10.2654C14.5448 10.6569 14.2451 10.9069 13.8672 10.9226V10.9231Z" fill="white"/>
<path d="M45.6671 7.44764C45.6593 8.04325 45.1059 8.86124 44.5589 9.08622C43.8458 9.37959 43.067 8.81165 43.174 8.04691C43.2664 7.38866 43.6172 6.86091 44.2044 6.53987C44.8935 6.16351 45.6775 6.66411 45.6671 7.44764ZM43.6746 8.11581C43.6746 8.54804 44.0609 8.80016 44.4367 8.58719C44.8554 8.35019 45.1122 7.96965 45.1701 7.49254C45.2213 7.07545 44.8183 6.80975 44.4284 6.97418C44.075 7.12296 43.6741 7.73057 43.6746 8.11581Z" fill="white"/>
<path d="M51.955 13.4077C52.6519 13.4036 53.1254 14.0764 52.8931 14.7415C52.689 15.3261 51.8386 15.9311 51.2216 15.9306C50.5258 15.9301 50.0476 15.2468 50.2836 14.5916C50.4992 13.9929 51.3198 13.4114 51.955 13.4077ZM51.2754 15.4248C51.6784 15.4201 52.298 14.9696 52.4228 14.5906C52.5423 14.2283 52.2542 13.8358 51.8799 13.8995C51.3876 13.983 50.9904 14.2497 50.78 14.7154C50.613 15.0855 50.8698 15.4295 51.2749 15.4248H51.2754Z" fill="white"/>
<path d="M56.2141 35.7165C55.8091 35.68 55.3873 35.6236 55.0088 35.3965C54.6565 35.1851 54.4973 34.8902 54.5484 34.471C54.6638 33.5236 54.6575 33.5241 55.5721 33.7115C56.1327 33.8263 56.6928 33.9448 57.2561 34.0451C57.4377 34.0774 57.4816 34.1401 57.4294 34.3149C57.3772 34.4909 57.361 34.6772 57.3208 34.8573C57.1825 35.4822 56.8755 35.7233 56.2136 35.7165H56.2141ZM56.1447 35.2264C56.6453 35.2363 56.7581 35.1308 56.8593 34.661C56.8896 34.5191 56.8818 34.4491 56.721 34.4204C56.2429 34.3348 55.7673 34.2366 55.2907 34.1442C55.227 34.1317 55.167 34.1009 55.1111 34.1803C54.9217 34.4507 55.0271 34.8923 55.3288 35.0306C55.6055 35.1575 55.9004 35.2154 56.1447 35.2264Z" fill="white"/>
<path d="M4.31647 22.5317C4.66361 22.5484 5.11306 22.6544 5.50247 22.9425C5.81359 23.1727 5.942 23.4745 5.84178 23.8618C5.76922 24.1426 5.80419 24.5352 5.60113 24.6756C5.39337 24.8191 5.05616 24.5968 4.77636 24.5336C4.22669 24.4104 3.68224 24.2658 3.13256 24.1426C2.96187 24.1045 2.90549 24.0398 2.96343 23.8675C3.01616 23.712 3.04487 23.5481 3.08245 23.3873C3.23957 22.7191 3.50789 22.5103 4.31647 22.5312V22.5317ZM4.31073 23.0067C3.68485 22.965 3.6008 23.274 3.53138 23.6514C3.51311 23.7511 3.57836 23.7595 3.64726 23.7762C4.14526 23.8962 4.64273 24.0184 5.1402 24.1405C5.1877 24.152 5.2279 24.1645 5.27018 24.1186C5.46176 23.9093 5.3798 23.3862 5.11932 23.2505C4.82491 23.0965 4.50283 23.0281 4.31125 23.0067H4.31073Z" fill="white"/>
<path d="M55.2525 39.4865C54.803 39.438 54.3019 39.2762 53.888 38.9029C53.5993 38.6425 53.5012 38.3214 53.6411 37.9529C53.747 37.6726 53.7653 37.2722 53.996 37.1511C54.2127 37.0373 54.5259 37.3004 54.7963 37.3969C55.3089 37.5791 55.8095 37.7947 56.3242 37.9685C56.5559 38.0468 56.5794 38.1476 56.4823 38.347C56.4014 38.512 56.3513 38.6915 56.2835 38.8633C56.0971 39.3357 55.8523 39.498 55.2525 39.4871V39.4865ZM55.2786 39.0136C55.6294 39.0183 55.7813 38.8701 55.9008 38.4926C55.94 38.3694 55.9123 38.3209 55.7985 38.2786C55.3339 38.1069 54.8714 37.9278 54.4084 37.7519C54.3546 37.7316 54.305 37.7065 54.2481 37.7566C54.0425 37.9372 54.0362 38.4326 54.256 38.5981C54.5728 38.8366 54.9398 38.9598 55.2786 39.0136Z" fill="white"/>
<path d="M53.3825 41.7172C53.3428 41.2918 53.027 41.1232 52.6846 40.9969C52.445 40.9086 52.4272 40.7907 52.5541 40.5892C52.6204 40.4842 52.6663 40.4571 52.7817 40.514C53.5213 40.8805 54.2626 41.2438 55.007 41.6008C55.185 41.6864 55.0858 41.7846 55.0404 41.8811C54.9939 41.9798 54.9704 42.1192 54.7971 42.031C54.5158 41.8874 54.2297 41.7532 53.905 41.6582C54.046 41.9297 54.1629 42.2173 54.3336 42.4689C54.5581 42.8004 54.5424 43.0901 54.2506 43.4111C54.0856 43.0781 53.916 42.7565 53.7662 42.4261C53.6967 42.2726 53.6101 42.211 53.4368 42.2189C52.9513 42.2418 52.4643 42.2413 51.9788 42.2601C51.8013 42.2669 51.7637 42.2413 51.8342 42.0544C51.9355 41.7867 52.0837 41.6828 52.3766 41.7104C52.7034 41.7418 53.0359 41.7177 53.383 41.7177L53.3825 41.7172Z" fill="white"/>
<path d="M56.4099 28.7907C56.7988 28.7907 57.1877 28.7974 57.5766 28.7875C57.7489 28.7828 57.8204 28.8282 57.8115 29.0146C57.7922 29.4129 57.7823 29.8117 57.7885 30.2105C57.7917 30.4141 57.7061 30.4454 57.5275 30.4454C57.3297 30.4454 57.2796 30.3682 57.2911 30.1855C57.3062 29.9433 57.2858 29.6984 57.3036 29.4567C57.3239 29.1843 57.1339 29.2563 56.9946 29.2521C56.8588 29.2479 56.6902 29.1963 56.7048 29.4458C56.7189 29.688 56.6965 29.9323 56.7048 30.175C56.7122 30.3791 56.579 30.3546 56.4522 30.353C56.3243 30.3515 56.1896 30.3687 56.2001 30.1688C56.2116 29.9453 56.2022 29.7209 56.2178 29.498C56.2303 29.321 56.1959 29.2333 55.9871 29.2354C55.3821 29.2427 55.5027 29.1707 55.4839 29.7183C55.4781 29.8832 55.4682 30.0497 55.4818 30.2142C55.4974 30.4047 55.4322 30.4747 55.237 30.4647C55.0668 30.4564 54.9655 30.4345 54.9775 30.2225C55.001 29.8054 55.0068 29.3868 55.0041 28.9687C55.0031 28.7875 55.0689 28.7359 55.2438 28.7411C55.6321 28.7526 56.0215 28.7447 56.4104 28.7447V28.7912L56.4099 28.7907Z" fill="white"/>
<path d="M44.578 51.3574C44.9021 51.7577 45.1965 52.1305 45.5024 52.4938C45.6027 52.6128 45.6173 52.6833 45.4842 52.795C45.3416 52.915 45.279 52.8566 45.1882 52.7428C44.7085 52.143 44.2214 51.5484 43.7417 50.9486C43.6848 50.8776 43.5418 50.804 43.6785 50.6876C43.7829 50.5989 43.8675 50.4689 44.0539 50.5639C44.5122 50.7978 44.9804 51.0123 45.445 51.2342C45.5129 51.2665 45.5818 51.2973 45.6877 51.2895C45.3688 50.8943 45.054 50.4955 44.7283 50.1066C44.626 49.9845 44.6197 49.9171 44.7513 49.8065C44.8985 49.6828 44.958 49.7553 45.0451 49.8649C45.5254 50.4647 46.0124 51.0588 46.4911 51.6596C46.5449 51.7275 46.7036 51.7985 46.5569 51.9143C46.4457 52.0026 46.3616 52.1529 46.1596 52.0475C45.7467 51.8319 45.3202 51.6419 44.8979 51.444C44.8139 51.4049 44.7382 51.3344 44.578 51.3579V51.3574Z" fill="white"/>
<path d="M6.16829 37.6665C6.16463 38.0011 5.88536 38.3603 5.57372 38.461C5.43748 38.5049 5.41921 38.4156 5.39311 38.3389C5.35813 38.2355 5.21092 38.1259 5.3978 38.0204C5.60817 37.9019 5.70579 37.7239 5.64001 37.4833C5.5852 37.2828 5.45522 37.1649 5.23494 37.1826C5.02613 37.1993 4.95984 37.3465 4.94783 37.5256C4.93583 37.7098 4.95305 37.8967 4.93322 38.08C4.88832 38.4908 4.57355 38.7758 4.1476 38.8092C3.76862 38.839 3.48569 38.6265 3.35676 38.2146C3.22625 37.7981 3.34162 37.4629 3.69658 37.262C3.77227 37.2192 3.88346 37.0814 3.95289 37.2453C4.00405 37.3664 4.17735 37.5136 3.97794 37.6519C3.77645 37.7913 3.77436 37.9672 3.86102 38.1645C3.91061 38.2778 3.9936 38.3676 4.12619 38.3566C4.27444 38.3441 4.34544 38.2339 4.35744 38.0972C4.37102 37.9427 4.36423 37.7861 4.36945 37.6305C4.38981 37.0479 4.77244 36.6758 5.33516 36.6893C5.81802 36.7008 6.17351 37.1184 6.16776 37.6676L6.16829 37.6665Z" fill="white"/>
<path d="M11.3915 13.5081C11.3425 13.5707 11.3138 13.6093 11.2835 13.6459C10.9964 13.9883 10.704 14.3271 10.4237 14.6753C10.3209 14.8032 10.2499 14.7739 10.1434 14.6831C9.53788 14.1653 8.92922 13.6501 8.31691 13.1406C8.20624 13.0482 8.17283 12.9856 8.28089 12.8634C8.56382 12.5429 8.841 12.2166 9.10671 11.882C9.22677 11.7306 9.30663 11.7933 9.41051 11.8883C9.51074 11.9796 9.64385 12.0418 9.48986 12.2051C9.3035 12.403 9.14481 12.6269 8.95689 12.8232C8.79246 12.9955 8.94384 13.0644 9.0472 13.1307C9.1516 13.1975 9.22781 13.4423 9.40947 13.2137C9.56659 13.0158 9.74303 12.8331 9.89546 12.6322C10.0265 12.4588 10.1063 12.5925 10.1987 12.664C10.2958 12.7397 10.4201 12.8023 10.275 12.9548C10.1142 13.1234 9.97793 13.3149 9.81977 13.4856C9.70649 13.6078 9.68822 13.6861 9.8349 13.8098C10.2248 14.1397 10.2175 14.1481 10.5407 13.767C10.6602 13.6261 10.7766 13.483 10.8998 13.3452C10.9463 13.293 10.9833 13.185 11.0783 13.2476C11.1885 13.3202 11.283 13.4162 11.3915 13.5081Z" fill="white"/>
<path d="M15.6984 6.79609C15.7099 6.88379 15.6368 6.90936 15.5841 6.94643C15.3622 7.10407 15.1451 7.26903 14.9143 7.41258C14.6867 7.55404 14.8679 7.65844 14.9394 7.75658C15.0093 7.85263 15.0375 8.07083 15.251 7.90535C15.4504 7.75084 15.6702 7.62243 15.8696 7.46843C16.0377 7.33845 16.0868 7.47679 16.1536 7.57597C16.2188 7.67254 16.3405 7.76441 16.1552 7.87769C15.9401 8.00923 15.7422 8.16897 15.5303 8.30573C15.4134 8.38142 15.4087 8.44093 15.4854 8.55838C15.785 9.01723 15.7798 9.02088 16.2225 8.71342C16.342 8.63042 16.4736 8.55943 16.579 8.46129C16.7753 8.27807 16.8823 8.36054 16.9977 8.55421C17.0687 8.67323 17.0661 8.73117 16.9486 8.80999C16.578 9.05899 16.2115 9.31529 15.8498 9.57786C15.736 9.66034 15.6739 9.6499 15.5945 9.53558C15.1315 8.86376 14.6648 8.19402 14.1929 7.52846C14.1073 7.40788 14.1407 7.34994 14.2503 7.27634C14.5891 7.04874 14.9206 6.81123 15.2563 6.57893C15.4337 6.45626 15.6801 6.57893 15.6968 6.79713L15.6984 6.79609Z" fill="white"/>
<path d="M45.606 49.4889C45.5976 49.0948 45.8038 48.8306 46.1264 48.6411C46.4172 48.4704 46.7053 48.5117 46.9825 48.6751C47.0577 48.7194 47.1882 48.7675 47.0744 48.888C46.9956 48.9716 46.9883 49.1798 46.7836 49.0786C46.5529 48.9648 46.3478 49.0034 46.1807 49.1992C46.0163 49.3923 46.021 49.6126 46.1176 49.8292C46.2726 50.1764 46.5179 50.4525 46.8546 50.6295C47.2242 50.8242 47.5792 50.6498 47.6987 50.251C47.7514 50.0756 47.6674 49.9681 47.5552 49.872C47.4247 49.7603 47.362 49.9107 47.3015 49.9717C47.1663 50.109 47.0874 50.0902 46.9585 49.9498C46.8129 49.7911 46.8771 49.7196 47.0039 49.6095C47.515 49.1642 47.5124 49.1611 47.9352 49.6502C48.2881 50.0584 48.3069 50.1962 48.0673 50.6216C47.8444 51.0168 47.4382 51.2251 47.0212 51.1577C46.3478 51.0492 45.607 50.1764 45.6055 49.4889H45.606Z" fill="white"/>
<path d="M32.6975 56.5283C32.7016 56.8259 32.6531 57.1124 32.4949 57.3682C32.1091 57.9941 31.227 57.9732 30.8631 57.3113C30.5698 56.7784 30.5186 56.2 30.7143 55.6174C30.8428 55.2348 31.1064 54.9993 31.5245 54.9649C31.9395 54.931 32.2396 55.1168 32.4443 55.4618C32.6379 55.7886 32.6875 56.1551 32.6975 56.5283ZM32.2506 56.5006C32.2475 56.2459 32.2235 55.9938 32.1055 55.763C32.0016 55.56 31.844 55.4211 31.6002 55.4316C31.3449 55.4425 31.1935 55.5939 31.1105 55.8236C31.0182 56.0794 31.0385 56.344 31.0782 56.603C31.1513 57.0806 31.4102 57.3687 31.7218 57.3479C32.0569 57.3254 32.2579 57.0039 32.2506 56.5006Z" fill="white"/>
<path d="M5.36535 25.229C5.42747 25.2353 5.53552 25.2113 5.50316 25.3146C5.46035 25.4514 5.54283 25.643 5.34603 25.7176C5.31054 25.7312 5.27034 25.7333 5.23171 25.7385C5.08138 25.7604 4.86161 25.7066 4.80367 25.8481C4.71023 26.0752 4.66638 26.3377 4.66951 26.5847C4.6716 26.7543 4.90181 26.7538 5.02918 26.83C5.13671 26.8942 5.25364 26.9224 5.22023 27.102C5.1602 27.4272 5.16803 27.4303 4.87049 27.281C4.15116 26.9203 3.43184 26.5601 2.71094 26.2025C2.60706 26.1509 2.51624 26.0919 2.56374 25.9624C2.60863 25.8398 2.53555 25.6461 2.74748 25.6142C3.62028 25.4843 4.49308 25.3569 5.36639 25.229H5.36535ZM3.37076 25.9807C3.37233 26 3.37441 26.0193 3.37598 26.0381C3.59261 26.142 3.8082 26.2469 4.02588 26.3492C4.07286 26.3712 4.14229 26.4312 4.17413 26.3602C4.23312 26.2286 4.28636 26.0752 4.24251 25.9395C4.19762 25.8001 4.06346 25.9013 3.97159 25.9087C3.77062 25.9243 3.57121 25.9556 3.37076 25.9807Z" fill="white"/>
<path d="M31.6973 5.08208C31.5626 5.11132 31.5 5.00065 31.4598 4.82056C31.43 4.68745 31.453 4.47081 31.3021 4.44315C31.049 4.39669 30.7791 4.404 30.5217 4.43584C30.4137 4.44941 30.4038 4.6295 30.3855 4.73651C30.3401 5.00796 30.1751 5.03562 29.947 5.01213C29.8144 4.99856 29.8071 4.94584 29.8421 4.84561C30.1313 4.02241 30.4236 3.20025 30.7055 2.37443C30.7624 2.20791 30.8783 2.25072 30.9879 2.25542C31.1074 2.26064 31.239 2.22932 31.2875 2.4068C31.5151 3.23888 31.7516 4.06887 31.9849 4.8999C32.0507 5.13428 31.8748 5.0612 31.6963 5.08208H31.6973ZM30.9691 2.97213C30.8689 3.26289 30.7864 3.48892 30.7154 3.71808C30.6992 3.77132 30.6298 3.86424 30.7217 3.89139C30.859 3.93158 31.0114 3.94881 31.1492 3.89974C31.227 3.87207 31.1883 3.77811 31.1727 3.71756C31.1158 3.49257 31.0511 3.2702 30.9686 2.97213H30.9691Z" fill="white"/>
<path d="M22.3367 4.85004C22.3554 4.42252 22.3836 3.995 22.3883 3.56747C22.3904 3.37903 22.4797 3.32108 22.6415 3.28141C22.8018 3.24226 22.9041 3.25009 23.0027 3.41139C23.4282 4.10827 23.8719 4.79419 24.301 5.48846C24.3406 5.55266 24.4915 5.65498 24.3469 5.71971C24.2232 5.77504 24.0723 5.89145 23.9168 5.76512C23.9022 5.75312 23.8943 5.73328 23.8828 5.71814C23.7774 5.5819 23.7424 5.32455 23.5832 5.31567C23.3514 5.30262 23.1144 5.41538 22.8775 5.46445C22.772 5.48637 22.7652 5.55266 22.7642 5.63462C22.7631 5.75155 22.7605 5.86796 22.759 5.98489C22.7553 6.25737 22.5204 6.21718 22.3742 6.22814C22.1947 6.24171 22.2923 6.07415 22.2907 5.98645C22.2839 5.60748 22.2881 5.2285 22.2881 4.84952C22.3043 4.84952 22.3205 4.84952 22.3367 4.84952V4.85004ZM22.8764 4.07591C22.8581 4.08217 22.8399 4.08791 22.8216 4.09418C22.8132 4.27636 22.8054 4.45854 22.796 4.64072C22.7783 4.98837 22.7757 4.9795 23.1108 4.89911C23.2951 4.85526 23.3316 4.79262 23.2204 4.63237C23.0962 4.45332 22.9902 4.26174 22.8764 4.07591Z" fill="white"/>
<path d="M6.69121 40.2446C6.88435 40.242 7.10725 40.0953 7.21113 40.4237C7.27481 40.6262 7.23201 40.6701 7.04409 40.6863C6.3566 40.7452 5.67017 40.8131 4.98373 40.8773C4.88716 40.8862 4.79006 40.893 4.69349 40.9045C4.53323 40.9238 4.38655 40.9796 4.29259 40.7505C4.20698 40.5411 4.23621 40.431 4.40847 40.2901C5.02496 39.7848 5.62527 39.2591 6.23707 38.748C6.29292 38.7016 6.36652 38.5361 6.45526 38.675C6.52991 38.7924 6.64945 38.9292 6.5581 39.0988C6.54975 39.115 6.52887 39.1239 6.51477 39.1369C6.39001 39.256 6.14728 39.3379 6.15668 39.4893C6.17025 39.7096 6.31641 39.9194 6.3968 40.1376C6.45631 40.2995 6.58472 40.2347 6.69173 40.2436L6.69121 40.2446ZM5.02079 40.3715C5.05837 40.3971 5.07299 40.4159 5.08604 40.4148C5.24055 40.4007 5.39455 40.3819 5.54906 40.3673C5.93848 40.3303 5.97241 40.2577 5.77666 39.9288C5.72028 39.8338 5.68008 39.8265 5.60178 39.8923C5.41177 40.052 5.21863 40.2086 5.02131 40.3715H5.02079Z" fill="white"/>
<path d="M5.25812 33.9361C5.39645 34.3871 5.40324 34.4017 5.01539 34.5901C4.82225 34.6841 4.78936 34.8016 4.84052 34.9822C4.85879 35.0474 4.87967 35.1148 4.8828 35.1816C4.89428 35.4609 5.00495 35.619 5.31502 35.6081C5.41525 35.6044 5.56924 35.5668 5.62405 35.7057C5.66581 35.8116 5.71227 35.9489 5.67782 36.0429C5.63606 36.1551 5.48728 36.0904 5.39071 36.081C4.60718 36.0043 3.82469 35.914 3.04064 35.8393C2.85271 35.8216 2.77807 35.7354 2.74153 35.5595C2.7029 35.3737 2.76554 35.2828 2.92841 35.1962C3.6232 34.825 4.30964 34.4393 4.99973 34.0598C5.08273 34.0138 5.17095 33.9773 5.25864 33.9355L5.25812 33.9361ZM3.45772 35.428C3.74482 35.4582 3.93692 35.4864 4.13007 35.4948C4.22611 35.499 4.38219 35.5752 4.40882 35.4525C4.43701 35.3225 4.37854 35.1696 4.34096 35.0307C4.32477 34.9702 4.26213 35.0015 4.21933 35.0239C3.99121 35.1445 3.76309 35.2656 3.45772 35.4274V35.428Z" fill="white"/>
<path d="M51.608 42.4653C52.212 43.1544 52.8118 43.8434 53.4183 44.5262C53.5144 44.6343 53.482 44.7152 53.4147 44.8076C53.3395 44.9109 53.3103 45.0733 53.1197 45.0258C52.272 44.8138 51.4232 44.604 50.575 44.3936C50.5087 44.3774 50.4137 44.3607 50.4706 44.271C50.5473 44.1493 50.563 43.9624 50.7582 43.9473C50.7947 43.9447 50.8323 43.9713 50.8704 43.976C51.0218 43.9959 51.2149 44.1457 51.3079 44.0507C51.4869 43.868 51.608 43.6226 51.7281 43.3908C51.7803 43.2901 51.6492 43.2259 51.5897 43.1575C51.2985 42.8229 51.2958 42.825 51.608 42.4659V42.4653ZM52.7836 44.473C52.6019 44.272 52.4782 44.1368 52.356 44.0006C52.0992 43.715 52.0543 43.726 51.8899 44.0846C51.8455 44.1806 51.856 44.2318 51.9536 44.2579C52.2021 44.3247 52.4516 44.3868 52.7841 44.4724L52.7836 44.473Z" fill="white"/>
<path d="M4.63074 20.3276C5.32815 20.3647 6.02607 20.3986 6.72347 20.4419C6.80751 20.4471 6.98604 20.3798 6.95159 20.5495C6.92392 20.6852 6.92236 20.9571 6.70207 20.9055C6.19311 20.7854 6.0506 21.0715 5.93159 21.4677C5.87678 21.6499 5.8893 21.7563 6.05321 21.8498C6.13673 21.8973 6.21712 21.9573 6.28342 22.0267C6.44315 22.1927 6.29125 22.3467 6.21973 22.4684C6.14143 22.6009 6.05791 22.4396 5.9984 22.3942C5.35164 21.8983 4.71479 21.3888 4.06541 20.8966C3.91768 20.7844 3.91403 20.6847 3.97354 20.5317C4.032 20.3814 4.08838 20.2723 4.28257 20.3104C4.3948 20.3323 4.51486 20.3146 4.63127 20.3146C4.63127 20.3193 4.63127 20.324 4.63127 20.3287L4.63074 20.3276ZM4.76125 20.7875C4.75028 20.8063 4.7388 20.8251 4.72784 20.8439C4.86356 20.9472 4.99928 21.0506 5.13553 21.1529C5.46648 21.4019 5.49153 21.3899 5.59855 20.9916C5.63091 20.8715 5.60585 20.8407 5.48684 20.836C5.24463 20.8266 5.00346 20.8042 4.76177 20.787L4.76125 20.7875Z" fill="white"/>
<path d="M9.37145 44.2601C9.38294 44.3577 9.3015 44.3619 9.242 44.3791C8.41357 44.6208 7.58254 44.8536 6.75776 45.1052C6.57036 45.1626 6.54165 45.0337 6.47379 44.9392C6.40332 44.8411 6.31458 44.7549 6.43255 44.6114C6.98223 43.9443 7.52042 43.2667 8.06591 42.5959C8.10402 42.5495 8.1557 42.4205 8.23348 42.5432C8.30917 42.6627 8.47778 42.7531 8.40104 42.9384C8.39008 42.9645 8.36398 42.9833 8.34832 43.0078C8.25958 43.143 8.0372 43.2578 8.08314 43.3967C8.15988 43.6285 8.31596 43.8477 8.48195 44.0325C8.6182 44.1839 8.78263 44.0027 8.93297 43.974C9.11776 43.9385 9.3511 44.0763 9.37145 44.2596V44.2601ZM7.14405 44.4642C7.15606 44.4819 7.16806 44.4992 7.18007 44.5169C7.38 44.4564 7.57679 44.3817 7.7809 44.3394C8.0038 44.293 7.99753 44.2199 7.89156 44.0377C7.74958 43.7929 7.65301 43.8007 7.50423 44.021C7.39775 44.1781 7.26516 44.3175 7.14457 44.4652L7.14405 44.4642Z" fill="white"/>
<path d="M48.3768 12.8437C48.2572 12.8546 48.0176 12.5075 48.0923 12.4172C48.4029 12.0424 48.2275 11.8002 47.9221 11.534C47.7493 11.3831 47.636 11.3633 47.4502 11.4807C47.3468 11.546 47.2398 11.6958 47.0952 11.6065C46.9924 11.5434 46.8734 11.439 46.8499 11.3335C46.8264 11.227 46.9945 11.2025 47.0832 11.1545C47.7744 10.7797 48.4723 10.4174 49.1598 10.0363C49.3357 9.93871 49.4302 9.99091 49.5581 10.1115C49.688 10.2342 49.6953 10.3297 49.6139 10.4853C49.2355 11.2072 48.8716 11.937 48.4994 12.6631C48.466 12.7283 48.4535 12.8124 48.3773 12.8437H48.3768ZM48.5762 11.4792C48.7176 11.214 48.8565 10.953 48.9953 10.692C48.8283 10.7222 48.7098 10.7859 48.5929 10.8522C48.2873 11.0245 48.2819 11.2333 48.5767 11.4786L48.5762 11.4792Z" fill="white"/>
<path d="M54.1204 21.5378C53.6787 21.5346 53.4183 21.305 53.2945 20.8623C53.1833 20.4635 53.3008 20.1325 53.6417 19.9326C53.9789 19.7348 54.3568 19.634 54.7217 19.5025C54.9681 19.4137 55.2176 19.3339 55.4635 19.2425C55.6096 19.1882 55.7193 19.136 55.7892 19.3589C55.8513 19.5562 55.8216 19.6246 55.6232 19.6878C55.133 19.8428 54.6518 20.0245 54.1684 20.1999C54.0113 20.2568 53.8531 20.3272 53.7967 20.5011C53.7461 20.6577 53.7763 20.8106 53.8907 20.9364C54.0238 21.0836 54.1966 21.0586 54.3526 21.0079C54.8694 20.8398 55.3857 20.6692 55.8931 20.475C56.1087 20.3925 56.1885 20.452 56.2413 20.654C56.2726 20.773 56.2851 20.8477 56.1405 20.8952C55.5506 21.0883 54.9644 21.2924 54.3751 21.4877C54.2749 21.5205 54.1668 21.5289 54.1204 21.5378Z" fill="white"/>
<path d="M40.1746 5.55065C40.1746 5.95834 40.1798 6.36603 40.1699 6.77319C40.1683 6.84941 40.2471 7.01227 40.0911 6.99557C39.9485 6.97991 39.7455 6.99087 39.7042 6.76954C39.7006 6.75075 39.7063 6.73039 39.7042 6.7116C39.686 6.54247 39.805 6.31696 39.6567 6.21569C39.4631 6.0831 39.2157 6.0095 38.9807 5.96304C38.7939 5.92598 38.7688 6.15357 38.6675 6.25849C38.5851 6.34358 38.5543 6.47304 38.3747 6.41353C38.0516 6.30704 38.0422 6.30704 38.2463 6.03299C38.7218 5.39457 39.2047 4.76138 39.6693 4.11513C39.782 3.95801 39.8833 3.96793 40.0352 4.02274C40.1871 4.07755 40.2711 4.13601 40.2607 4.32811C40.2388 4.73476 40.2539 5.14349 40.2539 5.55117C40.2273 5.55117 40.2007 5.55117 40.1741 5.55117L40.1746 5.55065ZM39.7648 4.7358C39.5957 4.96862 39.485 5.13931 39.355 5.29435C39.2203 5.4546 39.2277 5.52664 39.4432 5.6039C39.6855 5.69107 39.7805 5.65297 39.7669 5.38779C39.757 5.19882 39.7648 5.00881 39.7648 4.7358Z" fill="white"/>
<path d="M29.1856 56.2735C29.4111 55.9796 29.6267 55.74 29.7927 55.4701C29.9827 55.1606 30.2228 55.0509 30.6138 55.1726C30.4092 55.4283 30.2275 55.6873 30.0125 55.9149C29.8287 56.109 29.8188 56.2745 29.9435 56.5063C30.132 56.856 30.2891 57.224 30.4442 57.5905C30.4817 57.6792 30.6253 57.7821 30.4937 57.887C30.3899 57.9695 30.0365 57.863 29.989 57.7497C29.8532 57.4276 29.7201 57.1045 29.5917 56.7788C29.5317 56.6274 29.5014 56.5825 29.3485 56.7281C29.0838 56.9792 29.1193 57.2888 29.1047 57.5926C29.0969 57.7602 29.0739 57.8583 28.8609 57.8478C28.6396 57.8374 28.6714 57.708 28.6761 57.5733C28.7027 56.8247 28.732 56.0767 28.7544 55.3281C28.7596 55.159 28.791 55.0692 28.9998 55.0734C29.2263 55.0776 29.1877 55.2075 29.1872 55.3412C29.1856 55.6298 29.1872 55.9185 29.1872 56.275L29.1856 56.2735Z" fill="white"/>
<path d="M57.6542 27.0794C57.7226 27.6928 57.3149 27.8937 56.8008 27.9475C56.3143 27.9981 55.9911 27.7371 55.9097 27.2391C55.8627 26.9517 55.6925 26.8214 55.3992 26.8482C55.2927 26.8581 55.1846 26.856 55.0808 26.8774C54.9148 26.9118 54.8062 26.9066 54.7879 26.6884C54.7712 26.489 54.8281 26.418 55.0301 26.3997C55.7735 26.3319 56.5157 26.2525 57.257 26.1648C57.4872 26.1377 57.5963 26.1868 57.5911 26.4436C57.5869 26.655 57.6313 26.8675 57.6542 27.0799V27.0794ZM57.1453 27.0141C57.0941 26.8941 57.2236 26.6023 56.8926 26.69C56.7115 26.738 56.3915 26.5673 56.3743 26.9097C56.3544 27.3023 56.5053 27.461 56.7841 27.4542C57.0425 27.4479 57.1552 27.3174 57.1453 27.0141Z" fill="white"/>
<path d="M12.7218 50.1788C12.7224 50.5588 12.4259 50.9462 12.0537 51.0735C11.7431 51.18 11.3923 51.0464 11.1344 50.7238C10.9126 50.4456 10.9079 50.0974 11.1235 49.7455C11.1715 49.6678 11.2096 49.5441 11.3333 49.6532C11.4205 49.7299 11.6178 49.7429 11.503 49.9497C11.3631 50.2007 11.4132 50.4169 11.6616 50.5771C11.824 50.682 11.9754 50.6565 12.1168 50.538C12.2625 50.4163 12.2531 50.2717 12.1722 50.1183C12.0725 49.9293 11.955 49.7476 11.8783 49.5498C11.7457 49.2105 11.895 48.8268 12.2176 48.6102C12.5292 48.4009 12.8638 48.4431 13.1702 48.7292C13.4495 48.9902 13.5158 49.3342 13.3357 49.6532C13.2955 49.7241 13.2673 49.8818 13.1394 49.7931C13.0397 49.7241 12.8356 49.6949 12.9296 49.4778C13.0377 49.2293 12.9181 49.0664 12.7041 48.9552C12.6039 48.903 12.4953 48.8994 12.4039 48.9808C12.3048 49.069 12.2834 49.1776 12.3444 49.2971C12.4201 49.4438 12.4995 49.5889 12.5772 49.7346C12.655 49.8813 12.7291 50.029 12.7224 50.1799L12.7218 50.1788Z" fill="white"/>
<path d="M7.79025 14.0098C8.14156 14.0484 8.45111 14.229 8.66357 14.5595C8.86245 14.869 8.7497 15.152 8.57117 15.4281C8.36759 15.7434 8.37124 15.745 8.69175 15.9585C8.79668 16.0284 8.89377 16.1166 9.00705 16.1678C9.24508 16.2743 9.18766 16.4022 9.0723 16.5666C8.99191 16.6809 8.93292 16.6929 8.81704 16.6136C8.15095 16.1579 7.48174 15.7068 6.80783 15.2621C6.68046 15.1781 6.6601 15.1128 6.7525 14.9886C6.9258 14.7542 7.08397 14.5088 7.25206 14.2703C7.37212 14.0996 7.54021 14.015 7.79025 14.0093V14.0098ZM8.23187 14.9583C8.23395 14.7385 8.02724 14.5349 7.83462 14.5318C7.69211 14.5297 7.36742 14.8434 7.35489 14.9953C7.3502 15.0522 7.88943 15.4683 7.93589 15.4307C8.09406 15.3012 8.19898 15.1316 8.23239 14.9583H8.23187Z" fill="white"/>
<path d="M14.4635 53.2161C14.3252 53.1681 14.2015 53.1049 14.1393 53.0031C14.0809 52.9076 14.2161 52.8648 14.2766 52.8147C14.8999 52.3005 15.5305 51.7957 16.1491 51.2769C16.2832 51.1646 16.3699 51.1813 16.5009 51.2716C16.6288 51.3593 16.6862 51.4303 16.6335 51.5979C16.3887 52.3767 16.1606 53.1603 15.9183 53.9401C15.8969 54.0085 15.9157 54.1891 15.7722 54.1129C15.6605 54.0534 15.4397 54.0341 15.5049 53.8023C15.5075 53.7929 15.5122 53.7841 15.5138 53.7747C15.5378 53.6055 15.7184 53.4181 15.6041 53.284C15.4517 53.1055 15.2178 52.9948 15.0158 52.8601C14.913 52.7917 14.8561 52.8899 14.7919 52.94C14.6775 53.0292 14.57 53.1263 14.4635 53.2172V53.2161ZM16.1031 51.9074C16.0896 51.8934 16.076 51.8798 16.0624 51.8657C15.8484 52.0468 15.6339 52.2269 15.4204 52.4086C15.376 52.4462 15.3196 52.4958 15.3906 52.5464C15.5159 52.6356 15.6443 52.7599 15.7831 52.7771C15.8761 52.7886 15.8802 52.5897 15.9194 52.4848C15.9899 52.2958 16.0431 52.1001 16.1037 51.9069L16.1031 51.9074Z" fill="white"/>
<path d="M45.0969 52.9942C44.7498 53.2761 44.7419 53.285 44.4397 53.0083C44.2841 52.8658 44.1552 52.8361 43.9955 52.9828C43.9459 53.0282 43.8869 53.0689 43.8253 53.0934C43.5288 53.2114 43.4818 53.4056 43.6149 53.6828C43.6687 53.795 43.735 53.9166 43.5606 54.0309C43.3706 54.1552 43.2991 54.1484 43.2354 53.9161C43.0204 53.1305 42.7943 52.348 42.5552 51.5697C42.502 51.3969 42.5881 51.3473 42.6972 51.2763C42.8058 51.2053 42.8878 51.1442 43.024 51.2601C43.7026 51.8401 44.3922 52.407 45.0969 52.9948V52.9942ZM43.0945 51.8589C43.0981 52.1126 43.1931 52.2937 43.2495 52.4832C43.3664 52.8747 43.3685 52.8705 43.7047 52.6288C43.7981 52.562 43.8597 52.515 43.7402 52.4159C43.533 52.2436 43.3315 52.0645 43.094 51.8594L43.0945 51.8589Z" fill="white"/>
<path d="M40.0363 55.2348C40.0504 55.3334 40.0629 55.4295 40.078 55.5255C40.1057 55.7041 39.959 55.8889 39.7852 55.8847C39.6505 55.8815 39.6834 55.7589 39.6729 55.6894C39.5832 55.1147 39.5038 54.5379 39.4208 53.9621C39.389 53.7413 39.3618 53.52 39.3222 53.3002C39.2961 53.1556 39.2914 53.0491 39.462 52.9755C39.6213 52.9072 39.7257 52.8837 39.8588 53.0356C40.3902 53.6411 40.9388 54.2315 41.4749 54.8334C41.525 54.8897 41.6915 54.9602 41.5616 55.0474C41.4556 55.1184 41.323 55.2823 41.1544 55.1293C41.1471 55.1231 41.1413 55.1147 41.1346 55.1085C41.0108 54.9894 40.9216 54.7451 40.7707 54.7639C40.541 54.7926 40.327 54.944 40.1062 55.0437C40.0175 55.0839 40.007 55.1544 40.0373 55.2353L40.0363 55.2348ZM39.8264 53.6213C39.8097 53.6275 39.7925 53.6338 39.7758 53.64C39.8014 53.8013 39.8238 53.9626 39.8536 54.1229C39.9211 54.4925 40.1208 54.5645 40.4528 54.339C40.243 54.0984 40.0347 53.8598 39.8264 53.6213Z" fill="white"/>
<path d="M19.7313 55.6424C19.8174 55.4216 19.6817 55.2974 19.4384 55.2332C19.3455 55.2086 19.2521 55.1721 19.1691 55.1235C19.0088 55.0296 18.8997 55.0724 18.8058 55.2212C18.7489 55.3115 18.6847 55.3992 18.6095 55.4743C18.4612 55.6231 18.3323 55.4686 18.2232 55.4112C18.088 55.3402 18.2383 55.264 18.2796 55.2118C18.7797 54.5786 19.2918 53.9542 19.7877 53.3174C19.9056 53.166 20.0038 53.1514 20.1781 53.214C20.3671 53.2824 20.3666 53.4009 20.3525 53.5533C20.2804 54.3374 20.2141 55.122 20.1369 55.9055C20.1285 55.988 20.2068 56.1644 20.0419 56.1388C19.8989 56.1164 19.6582 56.1133 19.713 55.8366C19.7224 55.7891 19.7224 55.74 19.7308 55.6414L19.7313 55.6424ZM19.2516 54.6537C19.4019 54.7174 19.5267 54.7681 19.6493 54.8234C19.7391 54.8641 19.8002 54.8537 19.8122 54.744C19.8425 54.4648 19.8712 54.1855 19.8999 53.9062C19.8811 53.9005 19.8618 53.8947 19.843 53.889C19.6504 54.138 19.4578 54.387 19.2516 54.6532V54.6537Z" fill="white"/>
<path d="M34.5669 56.8821C34.6108 56.1837 34.6604 55.4857 34.6943 54.7868C34.7032 54.6072 34.7737 54.5378 34.9417 54.4944C35.1208 54.448 35.1991 54.5117 35.2826 54.6589C35.6814 55.3594 36.0928 56.0532 36.4937 56.7521C36.5281 56.8122 36.6571 56.9051 36.5339 56.9609C36.418 57.0137 36.2755 57.1102 36.1345 56.9949C36.1131 56.9776 36.1058 56.9442 36.0876 56.9218C35.9821 56.7881 35.9675 56.5287 35.7921 56.5214C35.5577 56.512 35.3155 56.6008 35.0837 56.6707C34.936 56.7156 35.0007 56.868 34.9814 56.9755C34.959 57.0961 35.0326 57.2527 34.9235 57.3321C34.8389 57.3937 34.6928 57.4245 34.5925 57.3979C34.4704 57.3655 34.5581 57.2319 34.5544 57.1436C34.5508 57.0565 34.5638 56.9693 34.5696 56.8816C34.569 56.8816 34.568 56.8816 34.5675 56.8816L34.5669 56.8821ZM35.1323 55.2305L35.0691 55.2441C35.0571 55.5202 34.9929 55.8068 35.0467 56.0688C35.1046 56.3528 35.316 56.0777 35.4585 56.1001C35.5415 56.1132 35.5943 56.0464 35.5363 55.9462C35.399 55.7092 35.267 55.469 35.1323 55.23V55.2305Z" fill="white"/>
<path d="M24.3308 57.358C23.7039 57.3616 23.351 56.9544 23.4502 56.3416C23.5467 55.746 23.7273 55.1697 23.8594 54.5824C23.896 54.4206 23.9461 54.3851 24.1115 54.4253C24.2786 54.4655 24.3141 54.536 24.276 54.6889C24.1502 55.188 24.0301 55.6886 23.909 56.1892C23.8907 56.2644 23.8745 56.3416 23.8698 56.4183C23.8542 56.6736 23.9831 56.825 24.2274 56.872C24.4639 56.9174 24.6022 56.7843 24.6602 56.576C24.8116 56.0336 24.9567 55.4892 25.0887 54.9416C25.1295 54.7714 25.1676 54.6863 25.3722 54.7344C25.5763 54.7824 25.5465 54.8883 25.5079 55.0303C25.3508 55.6113 25.2125 56.1981 25.0397 56.7749C24.9201 57.1737 24.6685 57.3569 24.3308 57.3585V57.358Z" fill="white"/>
<path d="M5.81582 43.7837C5.62059 43.5005 5.61189 43.2349 5.78972 42.9872C5.9244 42.7987 6.05751 42.6097 6.22873 42.3681C5.87428 42.3884 5.57204 42.403 5.27032 42.4234C5.08344 42.4359 4.84906 42.2391 4.84384 42.0543C4.84019 41.9243 4.94668 41.9588 5.01193 41.9562C5.44885 41.9364 5.88577 41.9092 6.32269 41.9108C6.74447 41.9123 7.05402 41.6597 7.37662 41.4598C7.64232 41.2948 7.70496 41.4404 7.7984 41.6216C7.84277 41.7077 7.83599 41.7771 7.74255 41.8074C6.79615 42.1138 6.40412 42.9637 5.88838 43.6924C5.8722 43.7154 5.85288 43.7368 5.81582 43.7832V43.7837Z" fill="white"/>
<path d="M8.54613 46.1529C8.23867 46.2119 7.93642 46.2704 7.63366 46.3278C7.46871 46.3591 7.18943 46.154 7.17638 45.9974C7.16855 45.9029 7.23902 45.9185 7.2907 45.9092C7.50107 45.871 7.71039 45.8162 7.92285 45.8006C8.57118 45.7531 9.15949 45.5688 9.63556 45.1042C9.78642 44.957 9.89604 44.9554 10.0198 45.1512C10.1095 45.2932 10.1054 45.3757 9.96181 45.4508C9.31504 45.7896 8.94964 46.3591 8.67559 47.0075C8.59259 47.2032 8.48349 47.388 8.38535 47.5796C8.03091 47.3128 8.01368 47.2387 8.2063 46.8785C8.32114 46.664 8.43337 46.4484 8.54508 46.2328C8.55239 46.2182 8.54613 46.1963 8.54613 46.1524V46.1529Z" fill="white"/>
<path d="M49.201 13.7779C49.0611 13.7414 49.0079 13.6166 48.9265 13.5263C48.8429 13.4345 48.9437 13.3906 48.9964 13.3441C49.4469 12.9453 49.8906 12.5382 50.3552 12.1561C50.5577 11.9895 50.5802 11.8747 50.3865 11.6894C50.2957 11.6022 50.0717 11.5135 50.3035 11.3088C50.4831 11.1507 50.5797 11.147 50.7316 11.3386C50.9967 11.6727 51.2812 11.9927 51.5762 12.3012C51.7265 12.4583 51.6263 12.5236 51.5208 12.6191C51.4128 12.7167 51.3381 12.7955 51.1982 12.6342C50.9033 12.2939 50.8923 12.3027 50.5624 12.5919C50.161 12.9438 49.7606 13.2966 49.3592 13.6485C49.3086 13.6928 49.2548 13.7341 49.2016 13.7779H49.201Z" fill="white"/>
<path d="M37.8501 5.82582C37.837 6.1218 37.7347 6.19645 37.456 6.10875C37.1141 6.00122 36.7753 5.88377 36.4308 5.78719C36.2663 5.74126 36.2428 5.67079 36.2929 5.51627C36.5362 4.77033 36.7768 4.02333 36.9997 3.27164C37.0582 3.07432 37.1469 3.09938 37.2936 3.14219C37.4544 3.18969 37.5123 3.24606 37.4508 3.42825C37.2555 4.00611 37.0916 4.59493 36.8922 5.17123C36.8249 5.36646 36.8839 5.4244 37.0551 5.46929C37.2795 5.52828 37.5009 5.60188 37.7212 5.67549C37.7885 5.69793 37.8861 5.70837 37.8496 5.82582H37.8501Z" fill="white"/>
<path d="M34.3874 54.9669C34.4287 55.1793 34.2694 55.1365 34.1682 55.1543C33.7709 55.2237 33.7761 55.2211 33.8299 55.6188C33.9025 56.157 33.9677 56.6968 34.0324 57.236C34.0481 57.3676 34.0867 57.5022 33.8691 57.531C33.6644 57.5576 33.6284 57.4704 33.6096 57.2987C33.548 56.7396 33.4567 56.1831 33.4097 55.623C33.3862 55.3443 33.3225 55.2096 33.0151 55.2999C32.8464 55.3495 32.6904 55.3448 32.6914 55.0833C32.6919 54.9235 32.7264 54.8609 32.8924 54.8463C33.2881 54.8103 33.6858 54.7727 34.0758 54.6991C34.3399 54.649 34.4114 54.7445 34.3874 54.9669Z" fill="white"/>
<path d="M18.0101 55.2937C17.9569 55.2681 17.913 55.2477 17.8697 55.2258C17.5586 55.0666 17.2532 54.8938 16.9338 54.7534C16.7333 54.6652 16.7396 54.5723 16.8294 54.4021C17.1775 53.7402 17.5148 53.0731 17.8504 52.4049C17.9188 52.2692 17.9637 52.1867 18.149 52.2734C18.3536 52.3689 18.3014 52.4644 18.2262 52.608C17.9475 53.1414 17.6828 53.6822 17.4015 54.2147C17.3211 54.3671 17.3237 54.4496 17.497 54.5232C17.7199 54.6177 17.9292 54.7435 18.1474 54.8495C18.2409 54.8949 18.255 54.9554 18.1996 55.0316C18.1359 55.1193 18.1406 55.2608 18.0101 55.2937Z" fill="white"/>
<path d="M41.959 54.8946C41.864 54.9113 41.8494 54.8304 41.8206 54.7745C41.4573 54.0651 41.0998 53.3531 40.7317 52.6463C40.6571 52.5033 40.7009 52.4479 40.8288 52.3858C40.9562 52.3237 41.0371 52.2845 41.1201 52.4568C41.3775 52.9903 41.6698 53.5076 41.9177 54.0458C42.0341 54.2974 42.149 54.3193 42.3651 54.1794C42.5358 54.0693 42.7305 53.9978 42.908 53.8976C43.0495 53.8177 43.0829 53.9216 43.1137 54.0098C43.1455 54.1022 43.3073 54.205 43.1283 54.2995C42.7592 54.4952 42.3844 54.6806 42.0122 54.8701C41.995 54.8789 41.9772 54.8862 41.959 54.8946Z" fill="white"/>
<path d="M54.2829 35.9854C54.523 36.0454 54.7297 36.0987 54.937 36.1483C55.5305 36.2908 56.1235 36.4364 56.7191 36.5711C56.9044 36.6128 56.9378 36.6911 56.8898 36.8728C56.8439 37.0445 56.7922 37.0832 56.6131 37.0372C55.8526 36.843 55.0868 36.6682 54.3236 36.4849C54.2197 36.4599 54.0976 36.4385 54.1488 36.284C54.1842 36.1775 54.1608 36.0318 54.2834 35.9849L54.2829 35.9854Z" fill="white"/>
<path d="M55.6437 40.5082C55.6578 40.7238 55.4636 40.8763 55.27 40.7974C54.5506 40.5041 53.8355 40.2018 53.112 39.9194C52.9183 39.8437 52.9251 39.7586 52.9909 39.5963C53.0582 39.4293 53.1308 39.4063 53.2952 39.4757C54.0192 39.7821 54.75 40.0729 55.4772 40.373C55.5425 40.4002 55.638 40.4028 55.6442 40.5077L55.6437 40.5082Z" fill="white"/>
<path d="M52.8145 19.4592C52.6741 19.4211 52.6762 19.2718 52.612 19.1752C52.5472 19.0786 52.6146 19.0369 52.6898 19.0009C53.442 18.6396 54.1957 18.281 54.9464 17.9167C55.1541 17.8159 55.1327 18.0132 55.1949 18.0968C55.2836 18.2158 55.257 18.2967 55.114 18.364C54.403 18.6986 53.6957 19.0421 52.9868 19.3819C52.9346 19.407 52.8808 19.43 52.8145 19.4597V19.4592Z" fill="white"/>
<path d="M29.9861 53.3649C17.1055 53.3889 6.63931 42.8564 6.65236 29.9915C6.66593 17.1126 17.1651 6.64269 30.0325 6.65626C42.9172 6.66984 53.3798 17.1763 53.3662 30.038C53.3527 42.919 42.8509 53.4161 29.9861 53.3649ZM30.0064 53.1801C42.7846 53.1812 53.1522 42.8266 53.1767 30.0693C53.2018 17.2567 42.8165 6.84836 30.0237 6.84732C17.2251 6.84627 6.85072 17.2029 6.84498 29.9936C6.83923 42.8052 17.2016 53.1786 30.0064 53.1796V53.1801Z" fill="white"/>
</g>
<defs>
<clipPath id="clip0_1183_5141">
<rect width="60.0219" height="60" fill="white"/>
</clipPath>
</defs>
</svg>
