<svg width="219" height="34" viewBox="0 0 219 34" fill="none" xmlns="http://www.w3.org/2000/svg">
<path d="M6.254 15.9696C5.176 15.9696 4.21 15.7946 3.356 15.4446C2.502 15.0946 1.816 14.5766 1.298 13.8906C0.794 13.2046 0.528 12.3786 0.5 11.4126H4.322C4.378 11.9586 4.567 12.3786 4.889 12.6726C5.211 12.9526 5.631 13.0926 6.149 13.0926C6.681 13.0926 7.101 12.9736 7.409 12.7356C7.717 12.4836 7.871 12.1406 7.871 11.7066C7.871 11.3426 7.745 11.0416 7.493 10.8036C7.255 10.5656 6.954 10.3696 6.59 10.2156C6.24 10.0616 5.736 9.88661 5.078 9.69061C4.126 9.39661 3.349 9.10261 2.747 8.80861C2.145 8.51461 1.627 8.08061 1.193 7.50661C0.759 6.93261 0.542 6.18361 0.542 5.25961C0.542 3.88761 1.039 2.81661 2.033 2.04661C3.027 1.26261 4.322 0.870605 5.918 0.870605C7.542 0.870605 8.851 1.26261 9.845 2.04661C10.839 2.81661 11.371 3.89461 11.441 5.2806H7.556C7.528 4.80461 7.353 4.43361 7.031 4.16761C6.709 3.88761 6.296 3.74761 5.792 3.74761C5.358 3.74761 5.008 3.86661 4.742 4.10461C4.476 4.32861 4.343 4.65761 4.343 5.09161C4.343 5.56761 4.567 5.93861 5.015 6.20461C5.463 6.47061 6.163 6.75761 7.115 7.06561C8.067 7.38761 8.837 7.69561 9.425 7.98961C10.027 8.28361 10.545 8.71061 10.979 9.27061C11.413 9.83061 11.63 10.5516 11.63 11.4336C11.63 12.2736 11.413 13.0366 10.979 13.7226C10.559 14.4086 9.943 14.9546 9.131 15.3606C8.319 15.7666 7.36 15.9696 6.254 15.9696Z" fill="white"/>
<path d="M30.5349 1.08061V15.8226H26.9439V6.98161L23.6469 15.8226H20.7489L17.4309 6.96061V15.8226H13.8399V1.08061H18.0819L22.2189 11.2866L26.3139 1.08061H30.5349Z" fill="white"/>
<path d="M42.2943 13.2186H36.7923L35.9103 15.8226H32.1513L37.4853 1.08061H41.6433L46.9773 15.8226H43.1763L42.2943 13.2186ZM41.3703 10.4466L39.5433 5.04961L37.7373 10.4466H41.3703Z" fill="white"/>
<path d="M56.6419 13.0506H61.3459V15.8226H53.0509V1.08061H56.6419V13.0506Z" fill="white"/>
<path d="M72.2357 13.2186H66.7337L65.8517 15.8226H62.0927L67.4267 1.08061H71.5847L76.9187 15.8226H73.1177L72.2357 13.2186ZM71.3117 10.4466L69.4847 5.04961L67.6787 10.4466H71.3117Z" fill="white"/>
<path d="M87.4671 8.26261C88.3211 8.44461 89.0071 8.87161 89.5251 9.5436C90.0431 10.2016 90.3021 10.9576 90.3021 11.8116C90.3021 13.0436 89.8681 14.0236 89.0001 14.7516C88.1461 15.4656 86.9491 15.8226 85.4091 15.8226H78.5421V1.08061H85.1781C86.6761 1.08061 87.8451 1.42361 88.6851 2.10961C89.5391 2.79561 89.9661 3.72661 89.9661 4.90261C89.9661 5.77061 89.7351 6.49161 89.2731 7.06561C88.8251 7.63961 88.2231 8.03861 87.4671 8.26261ZM82.1331 7.04461H84.4851C85.0731 7.04461 85.5211 6.91861 85.8291 6.66661C86.1511 6.40061 86.3121 6.01561 86.3121 5.51161C86.3121 5.00761 86.1511 4.62261 85.8291 4.35661C85.5211 4.09061 85.0731 3.95761 84.4851 3.95761H82.1331V7.04461ZM84.7791 12.9246C85.3811 12.9246 85.8431 12.7916 86.1651 12.5256C86.5011 12.2456 86.6691 11.8466 86.6691 11.3286C86.6691 10.8106 86.4941 10.4046 86.1441 10.1106C85.8081 9.81661 85.3391 9.66961 84.7371 9.66961H82.1331V12.9246H84.7791Z" fill="white"/>
<path d="M99.3568 15.9696C97.9708 15.9696 96.6968 15.6476 95.5348 15.0036C94.3868 14.3596 93.4698 13.4636 92.7838 12.3156C92.1118 11.1536 91.7758 9.85161 91.7758 8.40961C91.7758 6.96761 92.1118 5.67261 92.7838 4.52461C93.4698 3.37661 94.3868 2.48061 95.5348 1.83661C96.6968 1.19261 97.9708 0.870605 99.3568 0.870605C100.743 0.870605 102.01 1.19261 103.158 1.83661C104.32 2.48061 105.23 3.37661 105.888 4.52461C106.56 5.67261 106.896 6.96761 106.896 8.40961C106.896 9.85161 106.56 11.1536 105.888 12.3156C105.216 13.4636 104.306 14.3596 103.158 15.0036C102.01 15.6476 100.743 15.9696 99.3568 15.9696ZM99.3568 12.6936C100.533 12.6936 101.471 12.3016 102.171 11.5176C102.885 10.7336 103.242 9.69761 103.242 8.40961C103.242 7.10761 102.885 6.07161 102.171 5.3016C101.471 4.5176 100.533 4.12561 99.3568 4.12561C98.1668 4.12561 97.2148 4.5106 96.5008 5.2806C95.8008 6.0506 95.4508 7.09361 95.4508 8.40961C95.4508 9.71161 95.8008 10.7546 96.5008 11.5386C97.2148 12.3086 98.1668 12.6936 99.3568 12.6936Z" fill="white"/>
<path d="M116.412 15.8226L113.346 10.2576H112.485V15.8226H108.894V1.08061H114.921C116.083 1.08061 117.07 1.28361 117.882 1.68961C118.708 2.09561 119.324 2.6556 119.73 3.3696C120.136 4.0696 120.339 4.85361 120.339 5.72161C120.339 6.70161 120.059 7.57661 119.499 8.34661C118.953 9.11661 118.141 9.66261 117.063 9.98461L120.465 15.8226H116.412ZM112.485 7.71661H114.711C115.369 7.71661 115.859 7.55561 116.181 7.23361C116.517 6.91161 116.685 6.45661 116.685 5.86861C116.685 5.30861 116.517 4.86761 116.181 4.54561C115.859 4.22361 115.369 4.06261 114.711 4.06261H112.485V7.71661Z" fill="white"/>
<path d="M131.77 13.2186H126.268L125.386 15.8226H121.627L126.961 1.08061H131.119L136.453 15.8226H132.652L131.77 13.2186ZM130.846 10.4466L129.019 5.04961L127.213 10.4466H130.846Z" fill="white"/>
<path d="M148.681 1.08061V3.95761H144.775V15.8226H141.184V3.95761H137.278V1.08061H148.681Z" fill="white"/>
<path d="M157.455 15.9696C156.069 15.9696 154.795 15.6476 153.633 15.0036C152.485 14.3596 151.568 13.4636 150.882 12.3156C150.21 11.1536 149.874 9.85161 149.874 8.40961C149.874 6.96761 150.21 5.67261 150.882 4.52461C151.568 3.37661 152.485 2.48061 153.633 1.83661C154.795 1.19261 156.069 0.870605 157.455 0.870605C158.841 0.870605 160.108 1.19261 161.256 1.83661C162.418 2.48061 163.328 3.37661 163.986 4.52461C164.658 5.67261 164.994 6.96761 164.994 8.40961C164.994 9.85161 164.658 11.1536 163.986 12.3156C163.314 13.4636 162.404 14.3596 161.256 15.0036C160.108 15.6476 158.841 15.9696 157.455 15.9696ZM157.455 12.6936C158.631 12.6936 159.569 12.3016 160.269 11.5176C160.983 10.7336 161.34 9.69761 161.34 8.40961C161.34 7.10761 160.983 6.07161 160.269 5.3016C159.569 4.5176 158.631 4.12561 157.455 4.12561C156.265 4.12561 155.313 4.5106 154.599 5.2806C153.899 6.0506 153.549 7.09361 153.549 8.40961C153.549 9.71161 153.899 10.7546 154.599 11.5386C155.313 12.3086 156.265 12.6936 157.455 12.6936Z" fill="white"/>
<path d="M174.51 15.8226L171.444 10.2576H170.583V15.8226H166.992V1.08061H173.019C174.181 1.08061 175.168 1.28361 175.98 1.68961C176.806 2.09561 177.422 2.6556 177.828 3.3696C178.234 4.0696 178.437 4.85361 178.437 5.72161C178.437 6.70161 178.157 7.57661 177.597 8.34661C177.051 9.11661 176.239 9.66261 175.161 9.98461L178.563 15.8226H174.51ZM170.583 7.71661H172.809C173.467 7.71661 173.957 7.55561 174.279 7.23361C174.615 6.91161 174.783 6.45661 174.783 5.86861C174.783 5.30861 174.615 4.86761 174.279 4.54561C173.957 4.22361 173.467 4.06261 172.809 4.06261H170.583V7.71661Z" fill="white"/>
<path d="M184.282 1.08061V15.8226H180.691V1.08061H184.282Z" fill="white"/>
<path d="M190.413 1.08061V9.90061C190.413 10.7826 190.63 11.4616 191.064 11.9376C191.498 12.4136 192.135 12.6516 192.975 12.6516C193.815 12.6516 194.459 12.4136 194.907 11.9376C195.355 11.4616 195.579 10.7826 195.579 9.90061V1.08061H199.17V9.87961C199.17 11.1956 198.89 12.3086 198.33 13.2186C197.77 14.1286 197.014 14.8146 196.062 15.2766C195.124 15.7386 194.074 15.9696 192.912 15.9696C191.75 15.9696 190.707 15.7456 189.783 15.2976C188.873 14.8356 188.152 14.1496 187.62 13.2396C187.088 12.3156 186.822 11.1956 186.822 9.87961V1.08061H190.413Z" fill="white"/>
<path d="M218.386 1.08061V15.8226H214.795V6.98161L211.498 15.8226H208.6L205.282 6.96061V15.8226H201.691V1.08061H205.933L210.07 11.2866L214.165 1.08061H218.386Z" fill="white"/>
<path d="M1.79675 23.098V29.3822C1.79675 30.2657 2.0105 30.9212 2.438 31.3487C2.875 31.7762 3.47825 31.99 4.24775 31.99C5.00775 31.99 5.6015 31.7762 6.029 31.3487C6.466 30.9212 6.6845 30.2657 6.6845 29.3822V23.098H7.98125V29.368C7.98125 30.1945 7.815 30.8927 7.4825 31.4627C7.15 32.0232 6.69875 32.4412 6.12875 32.7167C5.56825 32.9922 4.9365 33.13 4.2335 33.13C3.5305 33.13 2.894 32.9922 2.324 32.7167C1.7635 32.4412 1.317 32.0232 0.9845 31.4627C0.6615 30.8927 0.5 30.1945 0.5 29.368V23.098H1.79675Z" fill="white"/>
<path d="M17.9535 33.0302H16.6567L11.4412 25.1215V33.0302H10.1445V23.0837H11.4412L16.6567 30.9782V23.0837H17.9535V33.0302Z" fill="white"/>
<path d="M21.4607 23.098V33.0302H20.164V23.098H21.4607Z" fill="white"/>
<path d="M31.8788 23.098L28.1311 33.0302H26.6348L22.8871 23.098H24.2693L27.3901 31.6622L30.5108 23.098H31.8788Z" fill="white"/>
<path d="M34.5975 24.1525V27.4727H38.217V28.5415H34.5975V31.9615H38.6445V33.0302H33.3007V23.0837H38.6445V24.1525H34.5975Z" fill="white"/>
<path d="M45.8364 33.0302L43.4709 28.969H41.9034V33.0302H40.6066V23.098H43.8129C44.5634 23.098 45.1951 23.2262 45.7081 23.4827C46.2306 23.7392 46.6201 24.086 46.8766 24.523C47.1331 24.96 47.2614 25.4587 47.2614 26.0192C47.2614 26.7032 47.0619 27.3065 46.6629 27.829C46.2734 28.3515 45.6844 28.6982 44.8959 28.8692L47.3896 33.0302H45.8364ZM41.9034 27.9287H43.8129C44.5159 27.9287 45.0431 27.7577 45.3946 27.4157C45.7461 27.0642 45.9219 26.5987 45.9219 26.0192C45.9219 25.4302 45.7461 24.9742 45.3946 24.6512C45.0526 24.3282 44.5254 24.1667 43.8129 24.1667H41.9034V27.9287Z" fill="white"/>
<path d="M52.4256 33.13C51.7701 33.13 51.1811 33.016 50.6586 32.788C50.1456 32.5505 49.7418 32.2275 49.4473 31.819C49.1528 31.401 49.0008 30.9212 48.9913 30.3797H50.3736C50.4211 30.8452 50.611 31.2395 50.9435 31.5625C51.2855 31.876 51.7796 32.0327 52.4256 32.0327C53.0431 32.0327 53.5275 31.8807 53.879 31.5767C54.24 31.2632 54.4205 30.8642 54.4205 30.3797C54.4205 29.9997 54.3161 29.691 54.107 29.4535C53.8981 29.216 53.6368 29.0355 53.3233 28.912C53.0098 28.7885 52.587 28.6555 52.055 28.513C51.3995 28.342 50.8723 28.171 50.4733 28C50.0838 27.829 49.7465 27.563 49.4615 27.202C49.186 26.8315 49.0483 26.3375 49.0483 25.72C49.0483 25.1785 49.186 24.6987 49.4615 24.2807C49.737 23.8627 50.1218 23.5397 50.6158 23.3117C51.1193 23.0837 51.6941 22.9697 52.3401 22.9697C53.2711 22.9697 54.031 23.2025 54.62 23.668C55.2185 24.1335 55.5558 24.751 55.6318 25.5205H54.2068C54.1593 25.1405 53.9598 24.808 53.6083 24.523C53.2568 24.2285 52.7913 24.0812 52.2118 24.0812C51.6703 24.0812 51.2286 24.2237 50.8866 24.5087C50.5446 24.7842 50.3736 25.1737 50.3736 25.6772C50.3736 26.0382 50.4733 26.3327 50.6728 26.5607C50.8818 26.7887 51.1336 26.9645 51.4281 27.088C51.7321 27.202 52.1548 27.335 52.6963 27.487C53.3518 27.6675 53.8791 27.848 54.2781 28.0285C54.6771 28.1995 55.0191 28.4702 55.3041 28.8407C55.5891 29.2017 55.7316 29.6957 55.7316 30.3227C55.7316 30.8072 55.6033 31.2632 55.3468 31.6907C55.0903 32.1182 54.7103 32.465 54.2068 32.731C53.7033 32.997 53.1096 33.13 52.4256 33.13Z" fill="white"/>
<path d="M58.9366 23.098V33.0302H57.6398V23.098H58.9366Z" fill="white"/>
<path d="M67.2599 23.098V24.1525H64.5524V33.0302H63.2557V24.1525H60.5339V23.098H67.2599Z" fill="white"/>
<path d="M74.7271 30.8215H70.3951L69.5971 33.0302H68.2291L71.8201 23.155H73.3164L76.8931 33.0302H75.5251L74.7271 30.8215ZM74.3566 29.767L72.5611 24.751L70.7656 29.767H74.3566Z" fill="white"/>
<path d="M81.6074 33.13C80.9519 33.13 80.3629 33.016 79.8404 32.788C79.3274 32.5505 78.9237 32.2275 78.6292 31.819C78.3347 31.401 78.1827 30.9212 78.1732 30.3797H79.5554C79.6029 30.8452 79.7929 31.2395 80.1254 31.5625C80.4674 31.876 80.9614 32.0327 81.6074 32.0327C82.2249 32.0327 82.7094 31.8807 83.0609 31.5767C83.4219 31.2632 83.6024 30.8642 83.6024 30.3797C83.6024 29.9997 83.4979 29.691 83.2889 29.4535C83.0799 29.216 82.8187 29.0355 82.5052 28.912C82.1917 28.7885 81.7689 28.6555 81.2369 28.513C80.5814 28.342 80.0542 28.171 79.6552 28C79.2657 27.829 78.9284 27.563 78.6434 27.202C78.3679 26.8315 78.2302 26.3375 78.2302 25.72C78.2302 25.1785 78.3679 24.6987 78.6434 24.2807C78.9189 23.8627 79.3037 23.5397 79.7977 23.3117C80.3012 23.0837 80.8759 22.9697 81.5219 22.9697C82.4529 22.9697 83.2129 23.2025 83.8019 23.668C84.4004 24.1335 84.7377 24.751 84.8137 25.5205H83.3887C83.3412 25.1405 83.1417 24.808 82.7902 24.523C82.4387 24.2285 81.9732 24.0812 81.3937 24.0812C80.8522 24.0812 80.4104 24.2237 80.0684 24.5087C79.7264 24.7842 79.5554 25.1737 79.5554 25.6772C79.5554 26.0382 79.6552 26.3327 79.8547 26.5607C80.0637 26.7887 80.3154 26.9645 80.6099 27.088C80.9139 27.202 81.3367 27.335 81.8782 27.487C82.5337 27.6675 83.0609 27.848 83.4599 28.0285C83.8589 28.1995 84.2009 28.4702 84.4859 28.8407C84.7709 29.2017 84.9134 29.6957 84.9134 30.3227C84.9134 30.8072 84.7852 31.2632 84.5287 31.6907C84.2722 32.1182 83.8922 32.465 83.3887 32.731C82.8852 32.997 82.2914 33.13 81.6074 33.13Z" fill="white"/>
<path d="M98.4298 33.0302H97.133L91.9175 25.1215V33.0302H90.6208V23.0837H91.9175L97.133 30.9782V23.0837H98.4298V33.0302Z" fill="white"/>
<path d="M101.937 24.1525V27.4727H105.557V28.5415H101.937V31.9615H105.984V33.0302H100.64V23.0837H105.984V24.1525H101.937Z" fill="white"/>
<path d="M115.47 25.9765C115.195 25.397 114.796 24.9505 114.273 24.637C113.751 24.314 113.143 24.1525 112.449 24.1525C111.756 24.1525 111.129 24.314 110.568 24.637C110.017 24.9505 109.58 25.4065 109.257 26.005C108.944 26.594 108.787 27.278 108.787 28.057C108.787 28.836 108.944 29.52 109.257 30.109C109.58 30.698 110.017 31.154 110.568 31.477C111.129 31.7905 111.756 31.9472 112.449 31.9472C113.418 31.9472 114.216 31.6575 114.843 31.078C115.47 30.4985 115.836 29.7147 115.94 28.7267H111.979V27.6722H117.323V28.6697C117.247 29.4867 116.99 30.2372 116.553 30.9212C116.116 31.5957 115.541 32.1325 114.829 32.5315C114.116 32.921 113.323 33.1157 112.449 33.1157C111.528 33.1157 110.687 32.902 109.927 32.4745C109.167 32.0375 108.564 31.4342 108.117 30.6647C107.68 29.8952 107.462 29.026 107.462 28.057C107.462 27.088 107.68 26.2187 108.117 25.4492C108.564 24.6702 109.167 24.067 109.927 23.6395C110.687 23.2025 111.528 22.984 112.449 22.984C113.504 22.984 114.435 23.2452 115.242 23.7677C116.059 24.2902 116.653 25.0265 117.023 25.9765H115.47Z" fill="white"/>
<path d="M120.334 24.1525V27.4727H123.954V28.5415H120.334V31.9615H124.381V33.0302H119.037V23.0837H124.381V24.1525H120.334Z" fill="white"/>
<path d="M131.573 33.0302L129.207 28.969H127.64V33.0302H126.343V23.098H129.549C130.3 23.098 130.932 23.2262 131.445 23.4827C131.967 23.7392 132.357 24.086 132.613 24.523C132.87 24.96 132.998 25.4587 132.998 26.0192C132.998 26.7032 132.798 27.3065 132.399 27.829C132.01 28.3515 131.421 28.6982 130.632 28.8692L133.126 33.0302H131.573ZM127.64 27.9287H129.549C130.252 27.9287 130.78 27.7577 131.131 27.4157C131.483 27.0642 131.658 26.5987 131.658 26.0192C131.658 25.4302 131.483 24.9742 131.131 24.6512C130.789 24.3282 130.262 24.1667 129.549 24.1667H127.64V27.9287Z" fill="white"/>
<path d="M136.31 23.098V33.0302H135.013V23.098H136.31Z" fill="white"/>
<path d="M152.394 23.1692V33.0302H151.097V25.6772L147.819 33.0302H146.907L143.616 25.663V33.0302H142.319V23.1692H143.715L147.363 31.3202L151.011 23.1692H152.394Z" fill="white"/>
<path d="M160.464 30.8215H156.132L155.334 33.0302H153.966L157.557 23.155H159.053L162.63 33.0302H161.262L160.464 30.8215ZM160.093 29.767L158.298 24.751L156.502 29.767H160.093Z" fill="white"/>
<path d="M165.492 31.9757H168.969V33.0302H164.195V23.098H165.492V31.9757Z" fill="white"/>
<path d="M176.217 30.8215H171.885L171.087 33.0302H169.719L173.31 23.155H174.806L178.383 33.0302H177.015L176.217 30.8215ZM175.846 29.767L174.051 24.751L172.255 29.767H175.846Z" fill="white"/>
<path d="M187.757 33.0302H186.46L181.244 25.1215V33.0302H179.948V23.0837H181.244L186.46 30.9782V23.0837H187.757V33.0302Z" fill="white"/>
<path d="M197.491 25.9765C197.216 25.397 196.817 24.9505 196.294 24.637C195.772 24.314 195.164 24.1525 194.47 24.1525C193.777 24.1525 193.15 24.314 192.589 24.637C192.038 24.9505 191.601 25.4065 191.278 26.005C190.965 26.594 190.808 27.278 190.808 28.057C190.808 28.836 190.965 29.52 191.278 30.109C191.601 30.698 192.038 31.154 192.589 31.477C193.15 31.7905 193.777 31.9472 194.47 31.9472C195.439 31.9472 196.237 31.6575 196.864 31.078C197.491 30.4985 197.857 29.7147 197.961 28.7267H194V27.6722H199.344V28.6697C199.268 29.4867 199.011 30.2372 198.574 30.9212C198.137 31.5957 197.562 32.1325 196.85 32.5315C196.137 32.921 195.344 33.1157 194.47 33.1157C193.549 33.1157 192.708 32.902 191.948 32.4745C191.188 32.0375 190.585 31.4342 190.138 30.6647C189.701 29.8952 189.483 29.026 189.483 28.057C189.483 27.088 189.701 26.2187 190.138 25.4492C190.585 24.6702 191.188 24.067 191.948 23.6395C192.708 23.2025 193.549 22.984 194.47 22.984C195.525 22.984 196.456 23.2452 197.263 23.7677C198.08 24.2902 198.674 25.0265 199.044 25.9765H197.491Z" fill="white"/>
</svg>
