<svg width="56" height="56" viewBox="0 0 56 56" fill="none" xmlns="http://www.w3.org/2000/svg">
<path d="M39.0826 8.30602V4.66602C39.0826 3.70935 38.2892 2.91602 37.3326 2.91602C36.3759 2.91602 35.5826 3.70935 35.5826 4.66602V8.16602H20.4159V4.66602C20.4159 3.70935 19.6226 2.91602 18.6659 2.91602C17.7092 2.91602 16.9159 3.70935 16.9159 4.66602V8.30602C10.6159 8.88935 7.55923 12.646 7.09257 18.2227C7.0459 18.8993 7.6059 19.4593 8.25923 19.4593H47.7392C48.4159 19.4593 48.9759 18.876 48.9059 18.2227C48.4392 12.646 45.3826 8.88935 39.0826 8.30602Z" fill="#861FC1"/>
<path d="M46.6667 22.9609H9.33333C8.05 22.9609 7 24.0109 7 25.2943V39.6676C7 46.6676 10.5 51.3343 18.6667 51.3343H30.17C31.78 51.3343 32.9 49.7709 32.3867 48.2543C31.92 46.9009 31.5233 45.4076 31.5233 44.3343C31.5233 37.2643 37.2867 31.5009 44.3567 31.5009C45.0333 31.5009 45.71 31.5476 46.3633 31.6643C47.7633 31.8743 49.0233 30.7776 49.0233 29.3776V25.3176C49 24.0109 47.95 22.9609 46.6667 22.9609ZM21.49 41.3243C21.0467 41.7443 20.44 42.0009 19.8333 42.0009C19.53 42.0009 19.2267 41.9309 18.9467 41.8143C18.6667 41.6976 18.41 41.5343 18.1767 41.3243C17.7567 40.8809 17.5 40.2976 17.5 39.6676C17.5 39.3643 17.57 39.0609 17.6867 38.7809C17.8033 38.4776 17.9667 38.2443 18.1767 38.0109C18.41 37.8009 18.6667 37.6376 18.9467 37.5209C19.7867 37.1476 20.8367 37.3576 21.49 38.0109C21.7 38.2443 21.8633 38.4776 21.98 38.7809C22.0967 39.0609 22.1667 39.3643 22.1667 39.6676C22.1667 40.2976 21.91 40.8809 21.49 41.3243ZM21.49 33.1576C21.0467 33.5776 20.44 33.8343 19.8333 33.8343C19.53 33.8343 19.2267 33.7876 18.9467 33.6476C18.6667 33.5309 18.41 33.3676 18.1767 33.1576C17.7567 32.7143 17.5 32.1076 17.5 31.5009C17.5 31.1976 17.57 30.8943 17.6867 30.6143C17.8033 30.3343 17.9667 30.0776 18.1767 29.8443C18.41 29.6343 18.6667 29.4709 18.9467 29.3543C19.7867 29.0043 20.8367 29.1909 21.49 29.8443C21.7 30.0776 21.8633 30.3343 21.98 30.6143C22.0967 30.8943 22.1667 31.1976 22.1667 31.5009C22.1667 32.1076 21.91 32.7143 21.49 33.1576ZM30.1467 32.3876C30.03 32.6676 29.8667 32.9243 29.6567 33.1576C29.4233 33.3676 29.1667 33.5309 28.8867 33.6476C28.6067 33.7876 28.3033 33.8343 28 33.8343C27.3933 33.8343 26.7867 33.5776 26.3433 33.1576C26.1333 32.9243 25.97 32.6676 25.8533 32.3876C25.7367 32.1076 25.6667 31.8043 25.6667 31.5009C25.6667 30.8943 25.9233 30.2876 26.3433 29.8443C26.9967 29.1909 28.0233 28.9809 28.8867 29.3543C29.1667 29.4709 29.4233 29.6343 29.6567 29.8443C30.0767 30.2876 30.3333 30.8943 30.3333 31.5009C30.3333 31.8043 30.2867 32.1076 30.1467 32.3876Z" fill="#861FC1"/>
<path d="M44.3333 35C39.1767 35 35 39.1767 35 44.3333C35 49.49 39.1767 53.6667 44.3333 53.6667C49.49 53.6667 53.6667 49.49 53.6667 44.3333C53.6667 39.1767 49.49 35 44.3333 35ZM48.0667 48.16C47.7167 48.51 47.2733 48.6733 46.83 48.6733C46.3867 48.6733 45.9433 48.51 45.5933 48.16L44.3567 46.9233L43.0733 48.2067C42.7233 48.5567 42.28 48.72 41.8367 48.72C41.3933 48.72 40.95 48.5567 40.6 48.2067C39.9233 47.53 39.9233 46.41 40.6 45.7333L41.8833 44.45L40.6467 43.2133C39.97 42.5367 39.97 41.4167 40.6467 40.74C41.3233 40.0633 42.4433 40.0633 43.12 40.74L44.3567 42L45.5233 40.8333C46.2 40.1567 47.32 40.1567 47.9967 40.8333C48.6733 41.51 48.6733 42.63 47.9967 43.3067L46.83 44.4733L48.0667 45.71C48.7433 46.3867 48.7433 47.4833 48.0667 48.16Z" fill="#861FC1"/>
</svg>
