<svg width="24" height="24" viewBox="0 0 24 24" fill="none" xmlns="http://www.w3.org/2000/svg">
<path d="M11.998 16.3299C9.60797 16.3299 7.66797 14.3899 7.66797 11.9999C7.66797 9.60992 9.60797 7.66992 11.998 7.66992C14.388 7.66992 16.328 9.60992 16.328 11.9999C16.328 14.3899 14.388 16.3299 11.998 16.3299ZM11.998 9.16992C10.438 9.16992 9.16797 10.4399 9.16797 11.9999C9.16797 13.5599 10.438 14.8299 11.998 14.8299C13.558 14.8299 14.828 13.5599 14.828 11.9999C14.828 10.4399 13.558 9.16992 11.998 9.16992Z" fill="#292D32"/>
<path d="M11.9981 21.02C8.23812 21.02 4.68813 18.82 2.24812 15C1.18813 13.35 1.18813 10.66 2.24812 8.99998C4.69812 5.17998 8.24813 2.97998 11.9981 2.97998C15.7481 2.97998 19.2981 5.17998 21.7381 8.99998C22.7981 10.65 22.7981 13.34 21.7381 15C19.2981 18.82 15.7481 21.02 11.9981 21.02ZM11.9981 4.47998C8.76813 4.47998 5.67813 6.41998 3.51813 9.80998C2.76813 10.98 2.76813 13.02 3.51813 14.19C5.67813 17.58 8.76813 19.52 11.9981 19.52C15.2281 19.52 18.3181 17.58 20.4781 14.19C21.2281 13.02 21.2281 10.98 20.4781 9.80998C18.3181 6.41998 15.2281 4.47998 11.9981 4.47998Z" fill="#292D32"/>
</svg>
