<svg width="24" height="25" viewBox="0 0 24 25" fill="none" xmlns="http://www.w3.org/2000/svg">
<path d="M11.9989 14.6699C9.86891 14.6699 8.12891 12.9399 8.12891 10.7999C8.12891 8.65994 9.86891 6.93994 11.9989 6.93994C14.1289 6.93994 15.8689 8.66994 15.8689 10.8099C15.8689 12.9499 14.1289 14.6699 11.9989 14.6699ZM11.9989 8.43994C10.6989 8.43994 9.62891 9.49994 9.62891 10.8099C9.62891 12.1199 10.6889 13.1799 11.9989 13.1799C13.3089 13.1799 14.3689 12.1199 14.3689 10.8099C14.3689 9.49994 13.2989 8.43994 11.9989 8.43994Z" fill="#FEB700"/>
<path d="M12.0016 23.26C10.5216 23.26 9.03164 22.7 7.87164 21.59C4.92164 18.75 1.66164 14.22 2.89164 8.83C4.00164 3.94 8.27164 1.75 12.0016 1.75C12.0016 1.75 12.0016 1.75 12.0116 1.75C15.7416 1.75 20.0116 3.94 21.1216 8.84C22.3416 14.23 19.0816 18.75 16.1316 21.59C14.9716 22.7 13.4816 23.26 12.0016 23.26ZM12.0016 3.25C9.09164 3.25 5.35164 4.8 4.36164 9.16C3.28164 13.87 6.24164 17.93 8.92164 20.5C10.6516 22.17 13.3616 22.17 15.0916 20.5C17.7616 17.93 20.7216 13.87 19.6616 9.16C18.6616 4.8 14.9116 3.25 12.0016 3.25Z" fill="#FEB700"/>
</svg>
