<svg width="24" height="24" viewBox="0 0 24 24" fill="none" xmlns="http://www.w3.org/2000/svg">
<path d="M17.4806 15.1045C17.3462 14.9701 17.2614 14.7863 17.2614 14.5742L17.2614 6.73942L9.42661 6.73942C9.01649 6.73942 8.67708 6.40001 8.67708 5.98989C8.67708 5.57977 9.01649 5.24035 9.42661 5.24035L18.0109 5.24035C18.421 5.24035 18.7604 5.57977 18.7604 5.98989L18.7604 14.5742C18.7604 14.9843 18.421 15.3237 18.0109 15.3237C17.8058 15.3308 17.6149 15.2388 17.4806 15.1045Z" fill="white"/>
<path d="M5.45969 18.5409C5.16977 18.251 5.16977 17.7702 5.45969 17.4803L17.3603 5.57965C17.6502 5.28973 18.131 5.28973 18.421 5.57965C18.7109 5.86956 18.7109 6.35039 18.421 6.64031L6.52035 18.5409C6.23043 18.8308 5.7496 18.8308 5.45969 18.5409Z" fill="white"/>
</svg>
