<svg width="24" height="25" viewBox="0 0 24 25" fill="none" xmlns="http://www.w3.org/2000/svg">
<path d="M21.7689 2.73086C21.4689 2.43086 20.9789 2.43086 20.6789 2.73086L2.22891 21.1909C1.92891 21.4909 1.92891 21.9809 2.22891 22.2809C2.37891 22.4209 2.56891 22.5009 2.76891 22.5009C2.96891 22.5009 3.15891 22.4209 3.30891 22.2709L21.7689 3.81086C22.0789 3.51086 22.0789 3.03086 21.7689 2.73086Z" fill="#727272"/>
<path d="M9.00109 10.8791C10.3155 10.8791 11.3811 9.81358 11.3811 8.49914C11.3811 7.1847 10.3155 6.11914 9.00109 6.11914C7.68666 6.11914 6.62109 7.1847 6.62109 8.49914C6.62109 9.81358 7.68666 10.8791 9.00109 10.8791Z" fill="#727272"/>
<path d="M21.6084 5.89062L20.3884 7.11063C20.4684 7.48063 20.4984 7.88063 20.4984 8.31063V13.1106L20.3684 13.0006C19.5884 12.3306 18.3284 12.3306 17.5484 13.0006L13.3884 16.5706C12.6784 17.1806 11.5584 17.2406 10.7784 16.7206L5.39844 22.1006C5.43844 22.1206 5.47844 22.1306 5.51844 22.1406C5.78844 22.2306 6.05844 22.3006 6.34844 22.3606C6.44844 22.3806 6.54844 22.4006 6.65844 22.4106C7.02844 22.4606 7.40844 22.5006 7.80844 22.5006H16.1884C19.8284 22.5006 21.9984 20.3306 21.9984 16.6906V8.31063C21.9984 7.41063 21.8684 6.60062 21.6084 5.89062Z" fill="#727272"/>
<path d="M21.6106 5.89062L20.3906 7.11063C20.4706 7.48063 20.5006 7.88063 20.5006 8.31063V13.1106L20.3706 13.0006C19.5906 12.3306 18.3306 12.3306 17.5506 13.0006L13.3906 16.5706C12.6806 17.1806 11.5606 17.2406 10.7806 16.7206L5.39062 22.1106C6.10062 22.3706 6.91063 22.5006 7.81063 22.5006H16.1906C19.8306 22.5006 22.0006 20.3306 22.0006 16.6906V8.31063C22.0006 7.41063 21.8706 6.60062 21.6106 5.89062Z" fill="#727272"/>
<path d="M20.46 4.04L19.4 5.1C18.68 4.37 17.6 4 16.19 4H7.81C4.99 4 3.5 5.49 3.5 8.31V16.69C3.5 17.45 3.63 18.1 3.85 18.66L7.59 16.15C7.93 15.92 8.32 15.8 8.71 15.79L3.54 20.96C3.14 20.56 2.81 20.08 2.56 19.53C2.19 18.73 2 17.78 2 16.69V8.31C2 4.67 4.17 2.5 7.81 2.5H16.19C18.01 2.5 19.46 3.04 20.46 4.04Z" fill="#727272"/>
</svg>
